<svg xmlns="http://www.w3.org/2000/svg" width="25" height="14" viewBox="0 0 25 14">
  <path fill="#40BEE2" fill-rule="evenodd" d="M0,14 L0,0 L24.5,0 L24.5,14 L0,14 Z M1.75,3.5 L1.75,10.5 L7,10.5 L7,8.75 L3.5,8.75 L3.5,3.5 L1.75,3.5 Z M7.6000061,10.5 L9.3500061,10.5 L9.3500061,3.5 L7.6000061,3.5 L7.6000061,10.5 Z M14.298875,10.5 L16.56075,3.5 L14.661125,3.5 L13.27075,8.75 L11.899625,3.5 L10,3.5 L12.2028125,10.5 L14.298875,10.5 Z M17.0625,3.5 L17.0625,10.5 L22.75,10.5 L22.75,8.75 L18.8125,8.75 L18.8125,7.4375 L22.3125,7.4375 L22.3125,6.125 L18.8125,6.125 L18.8125,4.8125 L22.75,4.8125 L22.75,3.5 L17.0625,3.5 Z"/>
</svg>
