<svg xmlns="http://www.w3.org/2000/svg" width="15" height="15" viewBox="0 0 15 15">
  <g fill="#40BEE2" fill-rule="evenodd">
    <path d="M7.5,13.125 C4.39828125,13.125 1.875,10.6017187 1.875,7.5 C1.875,4.39875 4.39828125,1.875 7.5,1.875 C10.6017187,1.875 13.125,4.39875 13.125,7.5 C13.125,10.6017187 10.6017187,13.125 7.5,13.125 M7.5,0 C3.3571875,0 0,3.358125 0,7.5 C0,11.6423438 3.3571875,15 7.5,15 C11.641875,15 15,11.6423438 15,7.5 C15,3.358125 11.641875,0 7.5,0"/>
    <polygon points="8.129 7.232 8.129 2.612 7.191 2.612 7.191 7.773 11.24 10.158 11.748 9.346"/>
  </g>
</svg>
