<svg xmlns="http://www.w3.org/2000/svg" width="17" height="19" viewBox="0 0 17 19">
  <g fill="#40BEE2" fill-rule="evenodd">
    <path d="M7.66284615,16.8000436 C4.57510256,16.8000436 2.06320513,14.2881462 2.06320513,11.1994282 C2.06320513,8.11168462 4.57510256,5.60027436 7.66284615,5.60027436 C10.7505897,5.60027436 13.2634615,8.11168462 13.2634615,11.1994282 C13.2634615,14.2881462 10.7505897,16.8000436 7.66284615,16.8000436 M7.66284615,3.53658205 C3.43071795,3.53658205 0,6.96681282 0,11.1994282 C0,15.4335051 3.43071795,18.8622744 7.66284615,18.8622744 C11.8954615,18.8622744 15.3266667,15.4335051 15.3266667,11.1994282 C15.3266667,6.96681282 11.8954615,3.53658205 7.66284615,3.53658205"/>
    <polygon points="16.619 5.614 14.118 3.114 12.456 4.777 14.957 7.278"/>
    <path d="M7.66284615,2.94685128 C7.0134359,2.94685128 6.48435897,2.41874872 6.48435897,1.76787692 C6.48435897,1.11992821 7.0134359,0.589876923 7.66284615,0.589876923 C8.31371795,0.589876923 8.84182051,1.11992821 8.84182051,1.76787692 C8.84182051,2.41874872 8.31371795,2.94685128 7.66284615,2.94685128 M9.43228205,1.76787692 C9.43228205,0.79254359 8.63964103,-9.74358974e-05 7.66284615,-9.74358974e-05 C6.68653846,-9.74358974e-05 5.89487179,0.79254359 5.89487179,1.76787692 C5.89487179,2.74418462 6.68653846,3.53682564 7.66284615,3.53682564 C8.63964103,3.53682564 9.43228205,2.74418462 9.43228205,1.76787692"/>
    <polygon points="5.846 14.149 11.666 11.299 5.846 8.451"/>
  </g>
</svg>
