<svg xmlns="http://www.w3.org/2000/svg" width="15" height="15" viewBox="0 0 15 15">
  <g fill="#40BEE2" fill-rule="evenodd">
    <path d="M7.5,0 C3.3575,0 0,3.3575 0,7.5 C0,11.6425 3.3575,15 7.5,15 C11.6425,15 15,11.6425 15,7.5 C15,3.3575 11.6425,0 7.5,0 M7.5,1.25 C10.94625,1.25 13.75,4.05375 13.75,7.5 C13.75,10.94625 10.94625,13.75 7.5,13.75 C4.05375,13.75 1.25,10.94625 1.25,7.5 C1.25,4.05375 4.05375,1.25 7.5,1.25"/>
    <path d="M7.5,12.5 C4.738125,12.5 2.5,10.259375 2.5,7.5 C2.5,4.74 4.738125,2.5 7.5,2.5 C10.255625,2.5 12.5,4.74 12.5,7.5 C12.5,10.259375 10.255625,12.5 7.5,12.5 Z"/>
  </g>
</svg>
