<svg xmlns="http://www.w3.org/2000/svg" width="24" height="15" viewBox="0 0 24 15">
  <g fill="#40BEE2" fill-rule="evenodd">
    <polygon points="6.75 0 6.75 3 10.142 3 10.742 1.5 13.258 1.5 13.856 3 17.25 3 17.25 0"/>
    <path d="M11.25,2.25 L9.74925,6 L8.24925,6 L8.24925,4.92 L7.5,4.5 L6,4.5 L6,6 L7.5,6 L6.75,7.17 L6.75,7.92 L4.5,8.67 L4.5,6.41925 L3.75,6 L0.75,6 L0,6.41925 L0,13.92 L0.75,15 L3.75,15 L4.5,13.92 L4.5,12.75 L7.5,12.75 L8.24925,13.5 L15.74925,13.5 L16.49925,12.75 L19.5,12.75 L19.5,13.92 L20.25,15 L23.24925,15 L24,13.92 L24,6.41925 L23.24925,6 L20.25,6 L19.5,6.41925 L19.5,8.67 L17.25,7.92 L17.25,7.17 L16.49925,6 L18,6 L18,4.5 L16.49925,4.5 L15.74925,4.92 L15.74925,6 L14.24625,6 L12.75,2.25 L11.25,2.25 Z M11.25,4.5 L12.75,4.5 L13.5,6 L10.5,6 L11.25,4.5 Z M9.74925,8.25 L14.25,8.25 L12.75,10.5 L11.25,10.5 L9.74925,8.25 Z M14.99925,10.5 L19.5,10.5 L19.5,11.25 L15.74925,11.25 L14.99925,10.5 Z M4.5,10.5 L8.99925,10.5 L8.24925,11.25 L4.5,11.25 L4.5,10.5 Z"/>
  </g>
</svg>
