<svg xmlns="http://www.w3.org/2000/svg" width="28" height="14" viewBox="0 0 28 14">
  <g fill="none" fill-rule="evenodd">
    <polygon fill="#40BEE2" points="0 14 27.563 14 27.563 0 0 0"/>
    <path fill="#000" d="M9.21136364,7.75276515 L9.21136364,3.42040152 L7.67942424,3.42040152 L7.67942424,7.75276515 C7.67942424,8.27317179 7.57534448,8.65533969 7.36718182,8.8992803 C7.15901916,9.14322092 6.78173,9.26518939 6.23530303,9.26518939 C5.92305904,9.26518939 5.67424335,9.22128074 5.48884848,9.13346212 C5.30345362,9.0456435 5.15871769,8.93180625 5.05463636,8.79194697 C4.95055504,8.65208768 4.88225269,8.49108929 4.84972727,8.30894697 C4.81720186,8.12680464 4.80093939,7.94141256 4.80093939,7.75276515 L4.80093939,3.42040152 L3.269,3.42040152 L3.269,7.75276515 C3.269,8.70250727 3.52757317,9.4050457 4.04472727,9.86040152 C4.56188137,10.3157573 5.29206599,10.5434318 6.23530303,10.5434318 C7.1655299,10.5434318 7.89408827,10.3141311 8.421,9.85552273 C8.94791173,9.39691437 9.21136364,8.69600219 9.21136364,7.75276515 Z M10.5286364,3.42040152 L10.5286364,10.3873106 L12.0605758,10.3873106 L12.0605758,7.38197727 L14.8805152,7.38197727 L14.8805152,10.3873106 L16.4124545,10.3873106 L16.4124545,3.42040152 L14.8805152,3.42040152 L14.8805152,6.09397727 L12.0605758,6.09397727 L12.0605758,3.42040152 L10.5286364,3.42040152 Z M19.2909394,9.09931061 L20.657,9.09931061 C20.8781728,9.09931061 21.0928373,9.06353319 21.301,8.99197727 C21.5091627,8.92042136 21.6945547,8.80170537 21.8571818,8.63582576 C22.0198089,8.46994614 22.1499086,8.25365537 22.2474848,7.98694697 C22.3450611,7.72023857 22.3938485,7.39498929 22.3938485,7.01118939 C22.3938485,6.65991491 22.3596973,6.34279687 22.2913939,6.05982576 C22.2230906,5.77685465 22.1108796,5.53454394 21.9547576,5.33288636 C21.7986356,5.13122879 21.5921023,4.97673539 21.3351515,4.86940152 C21.0782007,4.76206765 20.7610827,4.70840152 20.3837879,4.70840152 L19.2909394,4.70840152 L19.2909394,9.09931061 Z M17.759,3.42040152 L20.7643333,3.42040152 C21.2131841,3.42040152 21.6311294,3.49195636 22.0181818,3.63506818 C22.4052343,3.77818001 22.740241,3.99284453 23.0232121,4.27906818 C23.3061832,4.56529184 23.5273527,4.92306604 23.6867273,5.35240152 C23.8461018,5.781737 23.9257879,6.28587337 23.9257879,6.86482576 C23.9257879,7.37222223 23.860738,7.84058119 23.7306364,8.26991667 C23.6005347,8.69925215 23.4037589,9.07003632 23.140303,9.3822803 C22.8768472,9.69452429 22.5483454,9.94008749 22.1547879,10.1189773 C21.7612304,10.2978671 21.2977501,10.3873106 20.7643333,10.3873106 L17.759,10.3873106 L17.759,3.42040152 Z"/>
  </g>
</svg>
