<svg xmlns="http://www.w3.org/2000/svg" width="96" height="57" viewBox="0 0 96 57">
  <g fill="none" fill-rule="evenodd">
    <path fill="#FFF" d="M39.7100243 8.55936L39.5088417 8.68207304C38.5346504 9.27894261 37.4786504 9.59866435 36.5194852 9.59866435 34.4642504 9.59031652 33.110233 8.36736 33.1043896 6.58927304 33.1068939 4.84958609 34.5201809 3.56318609 36.4668939 3.55650783 37.4577809 3.55734261 38.3568417 3.81362087 39.4220243 4.40047304L39.6198678 4.50899478 39.6198678 2.92123826 39.5355548 2.88784696C38.3334678 2.41285565 37.4001809 2.19998609 36.4802504 2.19998609 35.0577809 2.19998609 33.820633 2.66913391 32.9432765 3.47302957 32.0642504 4.27024696 31.5408417 5.40221217 31.5408417 6.69779478 31.5425113 7.60269913 31.9148243 8.66120348 32.7103722 9.50099478 33.5034157 10.3424557 34.7255374 10.9568557 36.4026157 10.9568557L36.4084591 10.9568557C37.799207 10.9568557 38.7633809 10.6438122 39.6357287 10.2147339L39.7100243 10.1763339 39.7100243 8.55936zM42.2026852 12.4978643L29.6500591 12.4978643 29.6500591.648125217 42.2026852.648125217 42.2026852 12.4978643zM24.758567 8.50393043C24.7610713 7.42706087 24.0473322 6.60897391 22.9028452 6.29509565 23.2125496 6.13648696 23.4554713 5.94365217 23.6349496 5.7074087 23.8745322 5.39102609 23.986393 5.00285217 23.986393 4.55290435 23.986393 3.99526957 23.7710191 3.43095652 23.3027061 3.00605217 22.834393 2.58448696 22.1264974 2.3090087 21.15648 2.3090087L18.4810017 2.3090087 18.4810017 10.8438261 21.6197843 10.8438261C22.7408974 10.8438261 23.5280974 10.5399652 24.0348104 10.0883478 24.5415235 9.63923478 24.758567 9.04904348 24.758567 8.50393043L24.758567 8.50393043zM27.7395757 12.4975304L15.1886191 12.4975304 15.1886191.647791304 27.7395757.647791304 27.7395757 12.4975304z"/>
    <path fill="#FFF" d="M23.1957704 8.33438609C23.1941009 8.61570783 23.108953 8.89953391 22.8568487 9.12158609 22.6072487 9.34363826 22.1706574 9.51059478 21.4527443 9.51059478L20.0052313 9.51059478 20.0052313 7.1815513 21.3884661 7.1815513C22.033753 7.1815513 22.4903791 7.31344696 22.7783791 7.51713391 23.0622052 7.72499478 23.1932661 7.99462957 23.1957704 8.33438609M22.0239026 5.54546087C22.2927026 5.35012174 22.4229287 5.07464348 22.4245983 4.66142609 22.4237635 4.3776 22.3427896 4.13551304 22.1391026 3.95186087 21.9354157 3.77154783 21.5881461 3.64215652 21.0288417 3.64215652L20.0053983 3.64215652 20.0053983 5.84848696 20.7082852 5.84848696C21.316007 5.84932174 21.7525983 5.73996522 22.0239026 5.54546087M10.2949565 8.50393043C10.2991304 7.42706087 9.58455652 6.60897391 8.44090435 6.29509565 8.74893913 6.13648696 8.99269565 5.94365217 9.1730087 5.7074087 9.41175652 5.39102609 9.52528696 5.00285217 9.52445217 4.55290435 9.52528696 3.99526957 9.30907826 3.43095652 8.84076522 3.00605217 8.37328696 2.58448696 7.66455652 2.3090087 6.69537391 2.3090087L4.01906087 2.3090087 4.01906087 10.8438261 7.15867826 10.8438261 7.16034783 10.8438261C8.2797913 10.8438261 9.06448696 10.5399652 9.57036522 10.0883478 10.0787478 9.63923478 10.2974609 9.04904348 10.2949565 8.50393043L10.2949565 8.50393043zM13.2776348 12.4975304L.727513043 12.4975304.727513043.647791304 13.2776348.647791304 13.2776348 12.4975304z"/>
    <path fill="#FFF" d="M7.56070957 5.54546087C7.82867478 5.35012174 7.95973565 5.07464348 7.96307478 4.66142609 7.96140522 4.3776 7.8804313 4.13551304 7.67757913 3.95186087 7.47138783 3.77154783 7.12745739 3.64215652 6.56731826 3.64215652L5.54470957 3.64215652 5.54470957 5.84848696 6.24676174 5.84848696C6.8536487 5.84932174 7.28857043 5.73996522 7.56070957 5.54546087M8.31727304 7.51746783C8.02927304 7.31378087 7.57097739 7.18188522 6.92736 7.18188522L5.54496 7.18188522 5.54496 9.5109287 6.99080348 9.5109287C7.71038609 9.5109287 8.14363826 9.34230261 8.39574261 9.12192 8.64534261 8.89903304 8.73299478 8.61520696 8.73466435 8.33472 8.73216 7.9941287 8.6027687 7.72449391 8.31727304 7.51746783"/>
    <polygon fill="#FFF" points=".728 16.166 23.561 16.166 23.561 19.649 14.032 19.649 14.032 43.538 10.1 43.538 10.1 19.649 .728 19.649"/>
    <polygon fill="#ABDCEC" points="36.445 44.658 25.611 19.406 29.549 19.406 36.432 35.467"/>
    <polygon fill="#40BEE2" points="36.433 35.467 51.358 .648 55.297 .648 36.432 44.658"/>
    <path fill="#FFF" d="M59.2275757 19.6486957L55.1772104 19.6486957 55.1772104 28.1985391 59.4621496 28.1985391C61.05408 28.1985391 62.2795409 27.8237217 63.1402017 27.074087 64.0016974 26.3236174 64.4316104 25.2509217 64.4316104 23.8551652 64.4316104 21.0511304 62.6969322 19.6486957 59.2275757 19.6486957L59.2275757 19.6486957zM51.2445496 43.5376696L51.2445496 16.1659826 59.9120974 16.1659826C62.520793 16.1659826 64.6010713 16.8705391 66.153767 18.2788174 67.7056278 19.6879304 68.4819757 21.5795478 68.4819757 23.9528348 68.4819757 25.5439304 68.0837843 26.9530435 67.2882365 28.1793391 66.4926887 29.4056348 65.4032974 30.295513 64.0208974 30.8498087 62.6384974 31.4041043 60.6558887 31.6812522 58.0730713 31.6812522L55.1772104 31.6812522 55.1772104 43.5376696 51.2445496 43.5376696zM95.4427826 37.1987478L95.4427826 41.502887C92.5728 43.0681043 89.2603826 43.8511304 85.5038609 43.8511304 82.4510609 43.8511304 79.8624 43.2375652 77.7362087 42.0121043 75.6100174 40.7858087 73.9279304 39.0962087 72.6882783 36.9441391 71.4494609 34.7920696 70.8300522 32.4638609 70.8300522 29.959513 70.8300522 25.9809391 72.2483478 22.6359652 75.0849391 19.9229217 77.9223652 17.2098783 81.4209391 15.8533565 85.5814957 15.8533565 88.4514783 15.8533565 91.6403478 16.6029913 95.1489391 18.1030957L95.1489391 22.3095652C91.9533913 20.4838957 88.8296348 19.5706435 85.7776696 19.5706435 82.6472348 19.5706435 80.0485565 20.5581913 77.9808 22.5349565 75.9130435 24.510887 74.8795826 26.9860174 74.8795826 29.959513 74.8795826 32.9597217 75.8971826 35.4248348 77.9315478 37.3548522 79.9667478 39.2857043 82.5687652 40.250713 85.7384348 40.250713 89.051687 40.250713 92.2864696 39.2339478 95.4427826 37.1987478M3.6472487 49.8977948L2.55034435 49.8977948 2.55034435 52.212647 3.71069217 52.212647C4.14144 52.212647 4.47368348 52.1108035 4.70742261 51.9079513 4.94032696 51.7050991 5.05636174 51.4145948 5.05636174 51.0364383 5.05636174 50.2767861 4.58637913 49.8977948 3.6472487 49.8977948L3.6472487 49.8977948zM1.48516174 56.36736L1.48516174 48.9536557 3.83257043 48.9536557C4.53879652 48.9536557 5.10310957 49.1448209 5.52300522 49.5263165 5.94290087 49.9078122 6.15326609 50.4203687 6.15326609 51.0631513 6.15326609 51.4938991 6.04641391 51.8753948 5.83020522 52.208473 5.6148313 52.5398817 5.32015304 52.7811339 4.94533565 52.9313948 4.57051826 53.0808209 4.03375304 53.1559513 3.33420522 53.1559513L2.55034435 53.1559513 2.55034435 56.36736 1.48516174 56.36736z"/>
    <polygon fill="#FFF" points="6.965 48.965 7.929 48.965 7.929 56.367 6.965 56.367"/>
    <path fill="#FFF" d="M11.4366887 55.4030191L11.4366887 53.9563409 10.790567 54.2051061C10.4616626 54.336167 10.229593 54.4680626 10.0935235 54.5999583 9.95745391 54.7326887 9.88900174 54.8979757 9.88900174 55.0958191 9.88900174 55.2970017 9.95411478 55.4606191 10.0826713 55.5883409 10.2120626 55.7152278 10.3781843 55.7786713 10.5835409 55.7786713 10.8907409 55.7786713 11.1754017 55.6542887 11.4366887 55.4030191M12.3850017 53.4379409L12.3850017 55.5090365C12.3850017 55.6751583 12.441767 55.7578017 12.5544626 55.7578017 12.6713322 55.7578017 12.8533148 55.6709843 13.1004104 55.4981843L13.1004104 56.0867061C12.8816974 56.2277843 12.706393 56.3246191 12.5728278 56.3755409 12.4409322 56.4272974 12.3023583 56.4523409 12.1571061 56.4523409 11.7438887 56.4523409 11.5001322 56.2895583 11.4258365 55.9648278 11.016793 56.28288 10.5802017 56.4414887 10.1168974 56.4414887 9.77797565 56.4414887 9.49581913 56.328793 9.26959304 56.1050713 9.04336696 55.8805148 8.9306713 55.599193 8.9306713 55.2602713 8.9306713 54.9522365 9.04086261 54.6784278 9.26208 54.4363409 9.48246261 54.1942539 9.79550609 54.0022539 10.2020452 53.8611757L11.4366887 53.4379409 11.4366887 53.1774887C11.4366887 52.5914713 11.14368 52.2976278 10.5568278 52.2976278 10.0309148 52.2976278 9.51835826 52.569767 9.01999304 53.1140452L9.01999304 52.0597148C9.39481043 51.6181148 9.93324522 51.3968974 10.636967 51.3968974 11.16288 51.3968974 11.58528 51.5346365 11.9033322 51.8101148 12.0093496 51.8986017 12.1045148 52.0154713 12.1888278 52.162393 12.2739757 52.3093148 12.3274017 52.4562365 12.3507757 52.6031583 12.3741496 52.7492452 12.3850017 53.0272278 12.3850017 53.4379409M13.2701217 52.266073L15.0824348 50.4854817 15.0824348 51.4922296 16.6242783 51.4922296 16.6242783 52.3612383 15.0824348 52.3612383 15.0824348 54.7478817C15.0824348 55.3046817 15.3136696 55.5834991 15.7761391 55.5834991 16.1225739 55.5834991 16.4882087 55.4682991 16.8730435 55.2395687L16.8730435 56.1394643C16.5024 56.34816 16.0983652 56.4525078 15.6601043 56.4525078 15.2185043 56.4525078 14.8512 56.3231165 14.5573565 56.0660035 14.4663652 55.9875339 14.3895652 55.9007165 14.3302957 55.803047 14.2701913 55.7062122 14.2192696 55.5793252 14.1792 55.4215513 14.1382957 55.2646122 14.1182609 54.9649252 14.1182609 54.5233252L14.1182609 52.3612383 13.2701217 52.3612383 13.2701217 52.266073zM17.6787757 51.4923965L17.6787757 51.2002226C17.6787757 50.4163617 17.8457322 49.8320139 18.1796452 49.4471791 18.5135583 49.0623443 18.9134191 48.8686748 19.3800626 48.8686748 19.5812452 48.8686748 19.8191583 48.9012313 20.0954713 48.9655096L20.0954713 49.9079791C19.939367 49.8512139 19.7916104 49.8228313 19.6496974 49.8228313 19.2723757 49.8228313 19.0094191 49.92384 18.8633322 50.1250226 18.7164104 50.32704 18.6429496 50.6851617 18.6429496 51.2002226L18.6429496 51.4923965 19.5119583 51.4923965 19.5119583 52.3614052 18.6429496 52.3614052 18.6429496 56.367527 17.6787757 56.367527 17.6787757 52.3614052 16.9792278 52.3614052 16.9792278 51.4923965 17.6787757 51.4923965zM22.4531478 52.3508035C21.9906783 52.3508035 21.6108522 52.5027339 21.3136696 52.8065948 21.0173217 53.1104557 20.8687304 53.49696 20.8687304 53.9677774 20.8687304 54.4335861 21.0206609 54.8134122 21.3245217 55.1089252 21.6283826 55.4036035 22.0182261 55.55136 22.4957217 55.55136 22.9690435 55.55136 23.3572174 55.4019339 23.6585739 55.1039165 23.9607652 54.8050643 24.1118609 54.4218991 24.1118609 53.9560904 24.1118609 53.4936209 23.954087 53.1104557 23.6402087 52.8065948 23.3254957 52.5027339 22.9298087 52.3508035 22.4531478 52.3508035M22.5057391 51.4817948C23.2478609 51.4817948 23.8639304 51.7213774 24.3556174 52.1997078 24.8464696 52.678873 25.0918957 53.2799165 25.0918957 54.003673 25.0918957 54.70656 24.8431304 55.290073 24.3447652 55.755047 23.8464 56.2200209 23.2194783 56.4520904 22.464 56.4520904 21.7327304 56.4520904 21.1216696 56.2166817 20.6299826 55.7441948 20.1391304 55.2733774 19.8937043 54.6840209 19.8937043 53.97696 19.8937043 53.2640557 20.1416348 52.6696904 20.6383304 52.1946991 21.1341913 51.718873 21.7577739 51.4817948 22.5057391 51.4817948M27.1956313 51.4923965L27.1956313 52.6110052 27.2482226 52.5258574C27.7148661 51.7728835 28.1815096 51.3972313 28.6473183 51.3972313 29.0112835 51.3972313 29.3911096 51.5800487 29.7867965 51.9481878L29.2784139 52.796327C28.9428313 52.4782748 28.6314574 52.3188313 28.345127 52.3188313 28.0345878 52.3188313 27.7657878 52.4674226 27.5370574 52.7637704 27.3099965 53.060953 27.1956313 53.4123965 27.1956313 53.8189357L27.1956313 56.367527 26.2256139 56.367527 26.2256139 51.4923965 27.1956313 51.4923965zM34.4551513 52.8277148L34.4551513 56.367193 33.4851339 56.367193 33.4851339 53.6541496C33.4851339 53.1140452 33.4125078 52.7367235 33.2680904 52.5230191 33.123673 52.3093148 32.8707339 52.2024626 32.5101078 52.2024626 32.3089252 52.2024626 32.1244383 52.2483757 31.956647 52.3402017 31.7888557 52.4320278 31.5976904 52.5948104 31.3814817 52.8277148L31.3814817 56.367193 30.4173078 56.367193 30.4173078 51.4920626 31.3814817 51.4920626 31.3814817 52.1331757C31.8731687 51.6423235 32.3531687 51.3968974 32.8231513 51.3968974 33.4417252 51.3968974 33.9200557 51.6907409 34.2589774 52.2767583 34.774873 51.6832278 35.3133078 51.3860452 35.8751165 51.3860452 36.3484383 51.3860452 36.7382817 51.5588452 37.0438122 51.9061148 37.3493426 52.2525496 37.5021078 52.7801322 37.5021078 53.4896974L37.5021078 56.367193 36.5379339 56.367193 36.5379339 53.47968C36.5379339 53.0731409 36.4544557 52.7626017 36.2883339 52.5472278 36.123047 52.3310191 35.8842991 52.2233322 35.5729252 52.2233322 35.1738991 52.2233322 34.8015861 52.4253496 34.4551513 52.8277148M48.3541983 54.6505461L48.3541983 55.8159026C47.5770157 56.2399722 46.6796243 56.452007 45.6620243 56.452007 44.8355896 56.452007 44.1343722 56.2858852 43.5583722 55.9544765 42.9823722 55.622233 42.5274157 55.1639374 42.191833 54.5820939 41.8562504 53.9985809 41.6884591 53.36832 41.6884591 52.6896417 41.6884591 51.6119374 42.0724591 50.7061983 42.8412939 49.9715896 43.6084591 49.2369809 44.5567722 48.8688417 45.6837287 48.8688417 46.4609113 48.8688417 47.3249113 49.0725287 48.2748939 49.4790678L48.2748939 50.6185461C47.4092243 50.12352 46.5627548 49.8764243 45.73632 49.8764243 44.8890157 49.8764243 44.1844591 50.1443896 43.6251548 50.6786504 43.0650157 51.2145809 42.7853635 51.8849113 42.7853635 52.6896417 42.7853635 53.50272 43.0608417 54.1705461 43.6117983 54.69312 44.1627548 55.2156939 44.8673113 55.4769809 45.7263026 55.4769809 46.6228591 55.4769809 47.4993809 55.2015026 48.3541983 54.6505461M50.2724452 53.4375235L52.7258713 53.4375235C52.7016626 53.0518539 52.5864626 52.7555061 52.3811061 52.5476452 52.1765843 52.3389496 51.9011061 52.2346017 51.5546713 52.2346017 51.2090713 52.2346017 50.9252452 52.3389496 50.7048626 52.5476452 50.4836452 52.7555061 50.3400626 53.0518539 50.2724452 53.4375235L50.2724452 53.4375235zM53.6800278 54.0143583L50.2515757 54.0143583C50.2757843 54.4810017 50.4318887 54.8516452 50.7198887 55.1271235 51.0078887 55.4026017 51.3802017 55.5411757 51.835993 55.5411757 52.4712626 55.5411757 53.0581148 55.3424974 53.59488 54.9476452L53.59488 55.8901148C53.2985322 56.088793 53.0046887 56.2298713 52.7125148 56.3141843 52.4211757 56.3993322 52.0797496 56.4419061 51.6874017 56.4419061 51.1506365 56.4419061 50.7157148 56.3300452 50.3834713 56.107993 50.0512278 55.8851061 49.785767 55.5854191 49.5862539 55.209767 49.3867409 54.83328 49.286567 54.3975235 49.286567 53.904167 49.286567 53.1620452 49.4969322 52.5584974 49.9176626 52.0943583 50.3375583 51.6293843 50.8835061 51.3973148 51.5546713 51.3973148 52.2016278 51.3973148 52.7166887 51.6227061 53.1023583 52.0751583 53.487193 52.5276104 53.6800278 53.1336626 53.6800278 53.89248L53.6800278 54.0143583zM55.7568 51.4923965L55.7568 52.6110052 55.8093913 52.5258574C56.2760348 51.7728835 56.7426783 51.3972313 57.208487 51.3972313 57.573287 51.3972313 57.9522783 51.5800487 58.3479652 51.9481878L57.8395826 52.796327C57.504 52.4782748 57.1934609 52.3188313 56.9071304 52.3188313 56.5957565 52.3188313 56.3269565 52.4674226 56.0982261 52.7637704 55.8711652 53.060953 55.7568 53.4123965 55.7568 53.8189357L55.7568 56.367527 54.7876174 56.367527 54.7876174 51.4923965 55.7568 51.4923965zM58.5546574 52.266073L60.3669704 50.4854817 60.3669704 51.4922296 61.9096487 51.4922296 61.9096487 52.3612383 60.3669704 52.3612383 60.3669704 54.7478817C60.3669704 55.3046817 60.5982052 55.5834991 61.0615096 55.5834991 61.4071096 55.5834991 61.7727443 55.4682991 62.1575791 55.2395687L62.1575791 56.1394643C61.7869357 56.34816 61.3829009 56.4525078 60.94464 56.4525078 60.50304 56.4525078 60.1357357 56.3231165 59.842727 56.0660035 59.7509009 55.9875339 59.6749357 55.9007165 59.6148313 55.803047 59.554727 55.7062122 59.50464 55.5793252 59.4637357 55.4215513 59.4228313 55.2646122 59.4027965 54.9649252 59.4027965 54.5233252L59.4027965 52.3612383 58.5546574 52.3612383 58.5546574 52.266073zM62.8733217 51.4927304L63.8374957 51.4927304 63.8374957 56.3678609 62.8733217 56.3678609 62.8733217 51.4927304zM63.3508174 49.4416696C63.5094261 49.4416696 63.6454957 49.4967652 63.7581913 49.6061217 63.8717217 49.7154783 63.9276522 49.8498783 63.9276522 50.008487 63.9276522 50.1645913 63.8717217 50.2981565 63.7581913 50.411687 63.6454957 50.5243826 63.5094261 50.5811478 63.3508174 50.5811478 63.2022261 50.5811478 63.0711652 50.5235478 62.9584696 50.4091826 62.8449391 50.2939826 62.7890087 50.1604174 62.7890087 50.008487 62.7890087 49.8607304 62.8449391 49.7288348 62.9584696 49.6144696 63.0711652 49.4992696 63.2022261 49.4416696 63.3508174 49.4416696L63.3508174 49.4416696zM65.3429426 51.4923965L65.3429426 51.2002226C65.3429426 50.4163617 65.5098991 49.8320139 65.8438122 49.4471791 66.1777252 49.0623443 66.5775861 48.8686748 67.0433948 48.8686748 67.2445774 48.8686748 67.4833252 48.9012313 67.7596383 48.9655096L67.7596383 49.9079791C67.6035339 49.8512139 67.4549426 49.8228313 67.3138643 49.8228313 66.9357078 49.8228313 66.6735861 49.92384 66.5274991 50.1250226 66.3805774 50.32704 66.3071165 50.6851617 66.3071165 51.2002226L66.3071165 51.4923965 67.1761252 51.4923965 67.1761252 52.3614052 66.3071165 52.3614052 66.3071165 56.367527 65.3429426 56.367527 65.3429426 52.3614052 64.6433948 52.3614052 64.6433948 51.4923965 65.3429426 51.4923965zM67.9654957 51.4927304L68.9296696 51.4927304 68.9296696 56.3678609 67.9654957 56.3678609 67.9654957 51.4927304zM68.4421565 49.4416696C68.6016 49.4416696 68.7376696 49.4967652 68.8512 49.6061217 68.9630609 49.7154783 69.0206609 49.8498783 69.0206609 50.008487 69.0206609 50.1645913 68.9630609 50.2981565 68.8512 50.411687 68.7376696 50.5243826 68.6016 50.5811478 68.4421565 50.5811478 68.2944 50.5811478 68.1633391 50.5235478 68.0506435 50.4091826 67.9379478 50.2939826 67.8803478 50.1604174 67.8803478 50.008487 67.8803478 49.8607304 67.9379478 49.7288348 68.0506435 49.6144696 68.1633391 49.4992696 68.2944 49.4416696 68.4421565 49.4416696L68.4421565 49.4416696zM73.9801878 55.2277148L73.9801878 56.1818713C73.4960139 56.3621843 73.0226922 56.4523409 72.5602226 56.4523409 71.7972313 56.4523409 71.18784 56.2261148 70.7337183 55.7736626 70.2804313 55.3212104 70.0533704 54.715993 70.0533704 53.9563409 70.0533704 53.1900104 70.2745878 52.5714365 70.7161878 52.1022887 71.156953 51.6314713 71.7379617 51.3968974 72.4592139 51.3968974 72.7104835 51.3968974 72.93504 51.4202713 73.134553 51.4686887 73.3349009 51.5162713 73.580327 51.605593 73.8741704 51.7358191L73.8741704 52.7642713C73.3866574 52.4537322 72.9342052 52.2976278 72.5176487 52.2976278 72.0835617 52.2976278 71.7262748 52.450393 71.4474574 52.7559235 71.1678052 53.0614539 71.0283965 53.4512974 71.0283965 53.9246191 71.0283965 54.4221496 71.1794922 54.8186713 71.4816835 55.11168 71.78304 55.4046887 72.1904139 55.5516104 72.7029704 55.5516104 73.0736139 55.5516104 73.499353 55.4439235 73.9801878 55.2277148M77.1912626 55.4030191L77.1912626 53.9563409 76.5451409 54.2051061C76.2162365 54.336167 75.984167 54.4680626 75.8480974 54.5999583 75.7120278 54.7326887 75.6435757 54.8979757 75.6435757 55.0958191 75.6435757 55.2970017 75.7086887 55.4606191 75.8372452 55.5883409 75.9658017 55.7152278 76.1327583 55.7786713 76.3381148 55.7786713 76.6453148 55.7786713 76.9299757 55.6542887 77.1912626 55.4030191M78.1395757 53.4379409L78.1395757 55.5090365C78.1395757 55.6751583 78.1963409 55.7578017 78.3090365 55.7578017 78.4259061 55.7578017 78.6070539 55.6709843 78.8549843 55.4981843L78.8549843 56.0867061C78.6354365 56.2277843 78.460967 56.3246191 78.3274017 56.3755409 78.1955061 56.4272974 78.0560974 56.4523409 77.91168 56.4523409 77.4984626 56.4523409 77.2547061 56.2895583 77.1804104 55.9648278 76.7705322 56.28288 76.3347757 56.4414887 75.8714713 56.4414887 75.5325496 56.4414887 75.250393 56.328793 75.0233322 56.1050713 74.7979409 55.8805148 74.6844104 55.599193 74.6844104 55.2602713 74.6844104 54.9522365 74.7954365 54.6784278 75.0166539 54.4363409 75.2362017 54.1942539 75.55008 54.0022539 75.9566191 53.8611757L77.1912626 53.4379409 77.1912626 53.1774887C77.1912626 52.5914713 76.8974191 52.2976278 76.3114017 52.2976278 75.7846539 52.2976278 75.2729322 52.569767 74.774567 53.1140452L74.774567 52.0597148C75.1493843 51.6181148 75.6878191 51.3968974 76.3907061 51.3968974 76.9174539 51.3968974 77.3398539 51.5346365 77.6579061 51.8101148 77.7639235 51.8986017 77.8590887 52.0154713 77.9434017 52.162393 78.0285496 52.3093148 78.0819757 52.4562365 78.1053496 52.6031583 78.1278887 52.7492452 78.1395757 53.0272278 78.1395757 53.4379409M79.0246957 52.266073L80.8370087 50.4854817 80.8370087 51.4922296 82.3788522 51.4922296 82.3788522 52.3612383 80.8370087 52.3612383 80.8370087 54.7478817C80.8370087 55.3046817 81.0682435 55.5834991 81.530713 55.5834991 81.8771478 55.5834991 82.2419478 55.4682991 82.6276174 55.2395687L82.6276174 56.1394643C82.2569739 56.34816 81.8529391 56.4525078 81.4138435 56.4525078 80.9730783 56.4525078 80.6057739 56.3231165 80.3119304 56.0660035 80.2209391 55.9875339 80.1441391 55.9007165 80.0848696 55.803047 80.0239304 55.7062122 79.9738435 55.5793252 79.9337739 55.4215513 79.8928696 55.2646122 79.8728348 54.9649252 79.8728348 54.5233252L79.8728348 52.3612383 79.0246957 52.3612383 79.0246957 52.266073zM83.3430261 51.4927304L84.3072 51.4927304 84.3072 56.3678609 83.3430261 56.3678609 83.3430261 51.4927304zM83.819687 49.4416696C83.9791304 49.4416696 84.1152 49.4967652 84.2278957 49.6061217 84.3405913 49.7154783 84.3981913 49.8498783 84.3981913 50.008487 84.3981913 50.1645913 84.3405913 50.2981565 84.2278957 50.411687 84.1152 50.5243826 83.9791304 50.5811478 83.819687 50.5811478 83.6710957 50.5811478 83.5408696 50.5235478 83.4273391 50.4091826 83.3154783 50.2939826 83.2578783 50.1604174 83.2578783 50.008487 83.2578783 49.8607304 83.3154783 49.7288348 83.4273391 49.6144696 83.5408696 49.4992696 83.6710957 49.4416696 83.819687 49.4416696L83.819687 49.4416696zM87.9799096 52.3508035C87.5166052 52.3508035 87.1367791 52.5027339 86.8404313 52.8065948 86.5432487 53.1104557 86.3954922 53.49696 86.3954922 53.9677774 86.3954922 54.4335861 86.5474226 54.8134122 86.8504487 55.1089252 87.1551443 55.4036035 87.5449878 55.55136 88.0224835 55.55136 88.4949704 55.55136 88.8831443 55.4019339 89.1845009 55.1039165 89.487527 54.8050643 89.6377878 54.4218991 89.6377878 53.9560904 89.6377878 53.4936209 89.4808487 53.1104557 89.1669704 52.8065948 88.8522574 52.5027339 88.4565704 52.3508035 87.9799096 52.3508035M88.0325009 51.4817948C88.7746226 51.4817948 89.3906922 51.7213774 89.8815443 52.1997078 90.3732313 52.678873 90.6186574 53.2799165 90.6186574 54.003673 90.6186574 54.70656 90.3690574 55.290073 89.871527 55.755047 89.3731617 56.2200209 88.74624 56.4520904 87.9907617 56.4520904 87.2594922 56.4520904 86.6475965 56.2166817 86.1567443 55.7441948 85.6658922 55.2733774 85.4204661 54.6840209 85.4204661 53.97696 85.4204661 53.2640557 85.6683965 52.6696904 86.1642574 52.1946991 86.660953 51.718873 87.2837009 51.4817948 88.0325009 51.4817948M92.6535235 51.4923965L92.6535235 52.1118052C93.0842713 51.6359791 93.5742887 51.3972313 94.1210713 51.3972313 94.4249322 51.3972313 94.7079235 51.4748661 94.9683757 51.63264 95.2304974 51.7895791 95.4291757 52.004953 95.5644104 52.2787617 95.70048 52.5534052 95.7689322 52.9866574 95.7689322 53.5801878L95.7689322 56.367527 94.8047583 56.367527 94.8047583 53.59104C94.8047583 53.0926748 94.728793 52.7362226 94.5768626 52.5225183 94.4249322 52.3096487 94.1703235 52.2027965 93.8138713 52.2027965 93.35808 52.2027965 92.9715757 52.4298574 92.6535235 52.8864835L92.6535235 56.367527 91.6676452 56.367527 91.6676452 51.4923965 92.6535235 51.4923965z"/>
  </g>
</svg>
