<?xml version="1.0" encoding="UTF-8" standalone="no"?>
<svg width="300px" height="50px" viewBox="0 0 300 50" version="1.1" xmlns="http://www.w3.org/2000/svg" xmlns:xlink="http://www.w3.org/1999/xlink">
    <!-- Generator: Sketch 42 (36781) - http://www.bohemiancoding.com/sketch -->
    <title>iplayer</title>
    <desc>Created with Sketch.</desc>
    <defs></defs>
    <g id="Page-1" stroke="none" stroke-width="1" fill="none" fill-rule="evenodd">
        <g id="iplayer" transform="translate(-1.000000, -1.000000)" fill-rule="nonzero">
            <g id="layer1" transform="translate(0.222580, 0.187800)">
                <g id="g3253">
                    <g id="g3271" transform="translate(0.155267, 0.117086)">
                        <g id="g3281" transform="translate(0.281241, 0.096123)">
                            <path d="M261.424378,21.5371483 C261.699454,18.4167682 263.243762,15.8721456 266.627903,15.8721456 C270.375381,15.8721456 271.820574,18.4167682 271.820574,21.5371483 L261.424378,21.5371483 Z M214.508914,32.046622 C212.329015,32.046622 210.661832,30.9558129 210.661832,29.0811371 C210.661832,26.4798369 213.160938,25.4908373 216.331659,25.4908373 C217.738903,25.4908373 219.090163,25.602756 220.2835,25.6511463 C220.2835,28.8213791 218.053363,32.0520614 214.508914,32.0520614 L214.508914,32.046622 Z M178.151575,19.115041 L175.639427,19.115041 L175.639427,8.06203569 L178.151575,8.06203569 C181.489719,8.06203569 184.16427,9.82284284 184.16427,13.5366073 C184.16427,17.3524891 181.489719,19.115041 178.151575,19.115041 L178.151575,19.115041 Z M254.530375,15.3912957 L256.42142,10.5717125 L247.065847,10.5717125 L241.505143,28.2543452 L241.305937,28.2543452 L235.48296,10.5717125 L225.392219,10.5717125 L226.713152,13.9047175 L226.523439,13.9521328 C224.159985,11.1061869 220.235597,9.95297842 215.941765,9.95297842 C211.934862,9.95297842 209.826573,10.4492742 206.314889,11.4267278 C206.314889,11.4267278 204.222739,17.7316578 204.127395,18.00309 C203.928189,18.3066456 204.374042,18.6209774 204.633954,18.4721887 C207.041051,17.3219565 210.064214,16.196253 213.909397,16.196253 C217.290228,16.196253 220.047296,17.1805572 220.101844,20.8744626 C218.905172,20.6581687 217.23804,20.5068912 215.735939,20.5068912 C211.762699,20.5068912 205.263361,21.1382745 202.768053,25.5579834 L202.5641,25.54849 L202.5641,1.09901285 L193.205531,1.09901285 L193.205531,9.72028924 L193.006325,9.72311158 C191.473753,4.09577439 186.347012,1.0991668 177.171143,1.0991668 L165.558116,1.0991668 L165.510682,10.808199 L156.231934,2.46800212 C155.11519,1.53077969 154.061146,1.10216874 152.251581,1.10216874 L148.574359,1.10216874 C146.930945,1.10216874 145.614041,2.49268477 145.614041,4.20381873 L145.614041,9.92131688 L154.730718,9.92131688 L154.730718,7.34634135 C154.730718,6.48965827 155.749668,6.04413893 156.390827,6.68406624 L169.474103,18.387775 C170.06603,18.9796969 170.164687,19.6382773 169.55094,20.2964472 L156.416582,32.1176937 C155.695453,32.669487 154.756948,32.240055 154.756948,31.4359188 L154.756948,14.2221795 L145.640556,14.2221795 L145.640556,34.6607511 C145.640556,36.1244427 146.908082,37.6609764 148.652663,37.6609764 L152.278714,37.6609764 C154.088748,37.6609764 155.124106,37.2364707 156.293122,36.3477412 L165.53985,27.9915083 L165.53985,37.6623619 L175.267004,37.6623619 L175.267004,26.01315 L179.032974,26.01315 C186.544937,26.01315 191.511603,22.6342691 193.022879,17.3140026 L193.203111,17.3165684 L193.203111,37.6627981 L202.558892,37.6627981 L202.558892,33.8933823 L202.762844,33.8905599 C204.4485,36.8424976 208.011936,38.1866246 211.880314,38.2884085 C216.612918,38.4131559 219.163672,36.0883168 220.149259,35.4623472 C220.419614,35.2683498 220.590366,35.2398955 220.614099,35.5097626 C220.727916,36.268613 220.86072,37.0849367 220.86072,37.6711625 L229.442253,37.6711625 C229.034348,35.5409366 228.918606,33.4085811 228.918606,31.276123 L228.918606,21.1869727 C228.918606,20.6158849 228.847483,20.0787421 228.728893,19.5628438 L228.923353,19.5154029 L236.359477,38.2903071 C236.359477,38.2903071 235.1168,42.4753512 231.237493,42.4753512 C229.641921,42.4753512 228.61269,42.2481527 227.150461,41.5449537 C226.899093,41.4444013 226.69514,41.573408 226.6126,41.8119984 L224.352546,48.6733144 C225.701933,49.3489571 229.055695,50.4269117 232.664673,50.4269117 C240.556554,50.4269117 244.043146,41.7725883 246.391847,35.8030807 L252.053616,21.4296427 L252.248076,21.4770581 C252.020415,22.3156782 251.996682,23.1907065 251.996682,24.1060686 C251.996682,33.0555576 258.806221,38.3052655 267.754838,38.3052655 C270.458384,38.3052655 273.482009,37.8209005 275.749657,36.9469498 C275.749657,36.9469498 277.646398,31.3173291 278.043373,30.1279947 C278.27578,29.7172415 277.782512,29.5102612 277.522138,29.6528664 C275.198505,30.9447288 272.509225,32.0665067 269.417273,32.0665067 C264.838821,32.0665067 261.979789,30.6046881 261.45994,26.865266 L279.574442,26.865266 L279.574442,37.6796039 L288.938071,37.6796039 L288.938071,26.2401432 C288.938071,20.3137918 292.107816,17.7638581 295.777963,17.7638581 C296.680086,17.7638581 297.364503,18.0365732 297.364503,18.0365732 L299.805212,10.6853502 C299.923802,10.4643353 299.724596,10.2437822 299.534858,10.200626 C298.694929,10.0768279 297.724018,9.95823823 296.791542,9.95823823 C292.741945,9.95823823 289.83927,12.1422169 288.233256,15.5776729 L288.029329,15.5776729 L288.029329,10.5818729 L279.504705,10.5818729 L279.504705,19.4755309 L279.305499,19.4660376 C277.832801,14.0144552 273.913622,9.9527475 266.342384,9.9527475 C261.198591,9.9527475 256.937934,11.8939022 254.388565,15.4353756 L254.530375,15.3912957 Z" id="path3255" fill="#FF008E"></path>
                            <g id="g3257" transform="translate(0.138138, 0.014649)" fill="#EBEBEB">
                                <g id="g3259" transform="translate(65.131647, 19.276784) scale(-1, 1) rotate(-180.000000) translate(-65.131647, -19.276784) translate(45.131647, 0.776784)">
                                    <path d="M25.0678382,13.0635213 C25.0678382,9.0915047 20.1248842,9.32700115 20.1248842,9.32700115 L15.1819302,9.32700115 L15.1819302,16.5059357 L20.1248842,16.5059357 C25.2150676,16.5352404 25.0678382,13.0635213 25.0678382,13.0635213 L25.0678382,13.0635213 Z M15.1819302,27.4510482 L18.9481081,27.4510482 C22.8611623,27.2448564 22.7139329,24.3323973 22.7139329,24.3323973 C22.7139329,20.7134488 18.3888481,20.6544864 18.3888481,20.6544864 L15.1819302,20.6544864 L15.1819302,27.4510482 Z M24.1558632,19.2422138 C24.1558632,19.2422138 27.5393152,20.6837911 27.5100106,24.5089313 C27.5100106,24.5089313 28.0244308,30.7755378 19.7202681,31.5406365 L10.5037773,31.5406365 L10.5037773,5.2667175 L21.0665169,5.2667175 C21.0665169,5.2667175 29.8932205,5.23705978 29.8932205,12.6811485 C29.8932205,12.6811485 30.0990593,17.7416742 24.1558632,19.2422138 L24.1558632,19.2422138 Z M0.307875421,36.689288 L39.1022969,36.689288 L39.1022969,0.131200122 L0.307875421,0.131200122 L0.307875421,36.689288 Z" id="path3261"></path>
                                </g>
                                <g id="g3263" transform="translate(20.394895, 19.276784) scale(-1, 1) rotate(-180.000000) translate(-20.394895, -19.276784) translate(0.394895, 0.776784)">
                                    <path d="M25.0678382,13.0635213 C25.0678382,9.0915047 20.1248842,9.32700115 20.1248842,9.32700115 L15.1819302,9.32700115 L15.1819302,16.5059357 L20.1248842,16.5059357 C25.2150676,16.5352404 25.0678382,13.0635213 25.0678382,13.0635213 L25.0678382,13.0635213 Z M15.1819302,27.4510482 L18.9481081,27.4510482 C22.8611623,27.2448564 22.7139329,24.3323973 22.7139329,24.3323973 C22.7139329,20.7134488 18.3888481,20.6544864 18.3888481,20.6544864 L15.1819302,20.6544864 L15.1819302,27.4510482 Z M24.1558632,19.2422138 C24.1558632,19.2422138 27.5393152,20.6837911 27.5100106,24.5089313 C27.5100106,24.5089313 28.0244308,30.7755378 19.7202681,31.5406365 L10.5037773,31.5406365 L10.5037773,5.2667175 L21.0665169,5.2667175 C21.0665169,5.2667175 29.8932205,5.23705978 29.8932205,12.6811485 C29.8932205,12.6811485 30.0990593,17.7416742 24.1558632,19.2422138 L24.1558632,19.2422138 Z M0.307875421,36.689288 L39.1022969,36.689288 L39.1022969,0.131200122 L0.307875421,0.131200122 L0.307875421,36.689288 Z" id="path3265"></path>
                                </g>
                                <g id="g3267" transform="translate(109.485936, 19.277278) scale(-1, 1) rotate(-180.000000) translate(-109.485936, -19.277278) translate(89.985936, 0.777278)">
                                    <path d="M31.0699966,29.6577241 L31.0699966,24.8030371 C31.0699966,24.8030371 26.3328814,27.7158493 21.0958216,27.7748117 C21.0958216,27.7748117 11.3278383,27.9654685 10.8865031,18.4107384 C10.8865031,18.4107384 10.533435,9.62110692 20.9782499,9.12080936 C20.9782499,9.12080936 25.362297,8.59120714 31.3054931,12.3866897 L31.3054931,7.35546864 C31.3054931,7.35546864 23.3321552,2.61870642 14.0934211,6.26695955 C14.0934211,6.26695955 6.32592193,9.10562743 6.0314631,18.4107384 C6.0314631,18.4107384 5.70769961,27.9806504 16.0646005,31.1582637 C16.0646005,31.1582637 18.8305364,32.2174681 23.802795,31.7468283 C23.802795,31.7468283 26.7742165,31.4523694 31.0699966,29.6577241 L31.0699966,29.6577241 Z M0.190303729,0.131694418 L38.9847252,0.131694418 L38.9847252,36.6897823 L0.190303729,36.6897823 L0.190303729,0.131694418 Z" id="path3269"></path>
                                </g>
                            </g>
                        </g>
                    </g>
                </g>
            </g>
        </g>
    </g>
</svg>