<?xml version="1.0" standalone="no"?>
<!DOCTYPE svg PUBLIC "-//W3C//DTD SVG 1.1//EN" "http://www.w3.org/Graphics/SVG/1.1/DTD/svg11.dtd" >
<svg xmlns="http://www.w3.org/2000/svg" xmlns:xlink="http://www.w3.org/1999/xlink" version="1.1">
<metadata>
Created by FontForge 20170910 at Fri Mar 17 19:22:02 2017
 By Jimmy Wärting
Copyright 2017 Dalton Maag Ltd. Modification of this file requires prior written permission from Dalton Maag Ltd.
</metadata>
<defs>
<font id="ReithSans-Bold" horiz-adv-x="596" >
  <font-face 
    font-family="Reith Sans"
    font-weight="700"
    font-stretch="normal"
    units-per-em="1000"
    panose-1="2 11 7 3 2 2 4 2 2 4"
    ascent="745"
    descent="-255"
    x-height="518"
    cap-height="715"
    bbox="-211 -263 1350 997"
    underline-thickness="78"
    underline-position="-147"
    unicode-range="U+000D-FB04"
  />
<missing-glyph horiz-adv-x="500" 
d="M0 0v715h500v-715h-500zM87 668l162 -265l162 265h-324zM278 357l168 -273v547zM221 357l-167 272v-544zM249 311l-162 -264h324z" />
    <glyph glyph-name="f_b" unicode="fb" horiz-adv-x="994" 
d="M372 403h-127v-403h-148v403h-84v115h84v16q0 70 24.5 120.5t71 77t111.5 26.5q58 0 106 -20v-116q-17 9 -36.5 13t-38.5 4q-90 0 -90 -100v-21h127v-115zM953 269q0 -89 -34 -152t-99 -96.5t-156 -33.5q-50 0 -101 11.5t-107 35.5v711h148v-274q27 30 60.5 45t74.5 15
q66 0 114 -32t74 -91t26 -139zM698 411q-56 0 -94 -46v-245q18 -7 35 -10t37 -3q61 0 93.5 40.5t32.5 114.5q0 72 -26.5 110.5t-77.5 38.5z" />
    <glyph glyph-name="ff" unicode="ff" horiz-adv-x="748" 
d="M456 0v403h-211v-403h-148v403h-84v115h84v20q0 69 23.5 118.5t68.5 75.5t108 26q29 0 52 -4.5t47 -14.5v-116q-16 8 -33 12t-35 4q-83 0 -83 -96v-25h211v16q0 70 24.5 120.5t71 77t111.5 26.5q58 0 106 -20v-116q-17 9 -36 13t-39 4q-90 0 -90 -100v-21h127v-115h-127
v-403h-148z" />
    <glyph glyph-name="f_h" unicode="fh" horiz-adv-x="990" 
d="M372 403h-127v-403h-148v403h-84v115h84v16q0 70 24.5 120.5t71 77t111.5 26.5q58 0 106 -20v-116q-17 9 -36.5 13t-38.5 4q-90 0 -90 -100v-21h127v-115zM702 410q-58 0 -98 -49v-361h-148v745h148v-276q60 62 144 62q85 0 132 -52.5t47 -149.5v-329h-148v323
q0 43 -20 65t-57 22z" />
    <glyph glyph-name="fi" unicode="fi" horiz-adv-x="671" 
d="M245 543v-25h359v-518h-148v403h-211v-403h-148v403h-84v115h84v20q0 69 23.5 118.5t68.5 75.5t108 26q29 0 52 -4.5t47 -14.5v-116q-16 8 -33 12t-35 4q-83 0 -83 -96zM530 595q-40 0 -63 20.5t-23 55.5q0 36 23 56.5t63 20.5t63 -20.5t23 -56.5q0 -35 -23 -55.5
t-63 -20.5z" />
    <glyph glyph-name="f_j" unicode="fj" horiz-adv-x="671" 
d="M245 543v-25h359v-546q0 -104 -49 -157.5t-147 -53.5q-47 0 -89 17v116q13 -8 28 -11t35 -3q38 0 56 22t18 65v436h-211v-403h-148v403h-84v115h84v20q0 69 23.5 118.5t68.5 75.5t108 26q29 0 52 -4.5t47 -14.5v-116q-16 8 -33 12t-35 4q-83 0 -83 -96zM530 595
q-40 0 -63 20.5t-23 55.5q0 36 23 56.5t63 20.5t63 -20.5t23 -56.5q0 -35 -23 -55.5t-63 -20.5z" />
    <glyph glyph-name="f_k" unicode="fk" horiz-adv-x="978" 
d="M372 403h-127v-403h-148v403h-84v115h84v16q0 70 24.5 120.5t71 77t111.5 26.5q58 0 106 -20v-116q-17 9 -36.5 13t-38.5 4q-90 0 -90 -100v-21h127v-115zM634 218h-30v-218h-148v745h148v-414h31q40 48 76.5 94t71.5 93h165q-48 -61 -97 -120t-98 -116q56 -71 110 -140
t107 -142h-175q-42 61 -81 114t-80 104z" />
    <glyph glyph-name="fl" unicode="fl" horiz-adv-x="715" 
d="M372 403h-127v-403h-148v403h-84v115h84v16q0 70 24.5 120.5t71 77t111.5 26.5q58 0 106 -20v-116q-17 9 -36.5 13t-38.5 4q-90 0 -90 -100v-21h127v-115zM591 -9q-137 0 -137 149v605h148v-592q0 -25 9.5 -35.5t32.5 -10.5q11 0 22 2.5t22 7.5v-109q-39 -17 -97 -17z
" />
    <glyph glyph-name="f_t" unicode="ft" horiz-adv-x="766" 
d="M746 11q-54 -24 -118 -24q-86 0 -131 44.5t-45 129.5v242h-207v-403h-148v403h-84v115h84v20q0 69 23.5 118.5t68.5 75.5t108 26q29 0 52 -4.5t47 -14.5v-116q-16 8 -33 12t-35 4q-83 0 -83 -96v-25h207v125l148 33v-158h135v-115h-135v-226q0 -71 71 -71q18 0 36.5 4.5
t38.5 14.5v-114z" />
    <glyph glyph-name="f_f_b" unicode="ffb" horiz-adv-x="1353" 
d="M456 0v403h-211v-403h-148v403h-84v115h84v20q0 69 23.5 118.5t68.5 75.5t108 26q29 0 52 -4.5t47 -14.5v-116q-16 8 -33 12t-35 4q-83 0 -83 -96v-25h211v16q0 70 24.5 120.5t71 77t111.5 26.5q58 0 106 -20v-116q-17 9 -36 13t-39 4q-90 0 -90 -100v-21h127v-115h-127
v-403h-148zM1312 269q0 -89 -34 -152t-99 -96.5t-156 -33.5q-50 0 -101 11.5t-107 35.5v711h148v-274q27 30 60.5 45t74.5 15q66 0 114 -32t74 -91t26 -139zM1057 411q-56 0 -94 -46v-245q18 -7 35 -10t37 -3q61 0 93.5 40.5t32.5 114.5q0 72 -26.5 110.5t-77.5 38.5z" />
    <glyph glyph-name="f_f_h" unicode="ffh" horiz-adv-x="1349" 
d="M456 0v403h-211v-403h-148v403h-84v115h84v20q0 69 23.5 118.5t68.5 75.5t108 26q29 0 52 -4.5t47 -14.5v-116q-16 8 -33 12t-35 4q-83 0 -83 -96v-25h211v16q0 70 24.5 120.5t71 77t111.5 26.5q58 0 106 -20v-116q-17 9 -36 13t-39 4q-90 0 -90 -100v-21h127v-115h-127
v-403h-148zM1061 410q-58 0 -98 -49v-361h-148v745h148v-276q60 62 144 62q85 0 132 -52.5t47 -149.5v-329h-148v323q0 43 -20 65t-57 22z" />
    <glyph glyph-name="ffi" unicode="ffi" horiz-adv-x="1030" 
d="M604 543v-25h359v-518h-148v403h-211v-403h-148v403h-211v-403h-148v403h-84v115h84v20q0 69 23.5 118.5t68.5 75.5t108 26q29 0 52 -4.5t47 -14.5v-116q-16 8 -33 12t-35 4q-83 0 -83 -96v-25h211v20q0 69 24 118.5t68.5 75.5t107.5 26q28 0 51.5 -4.5t47.5 -14.5v-116
q-16 8 -33 12t-35 4q-83 0 -83 -96zM889 595q-40 0 -63 20.5t-23 55.5q0 36 23 56.5t63 20.5t63 -20.5t23 -56.5q0 -35 -23 -55.5t-63 -20.5z" />
    <glyph glyph-name="f_f_j" unicode="ffj" horiz-adv-x="1030" 
d="M604 543v-25h359v-546q0 -104 -49.5 -157.5t-146.5 -53.5q-47 0 -89 17v116q13 -8 28.5 -11t34.5 -3q38 0 56 22t18 65v436h-211v-403h-148v403h-211v-403h-148v403h-84v115h84v20q0 69 23.5 118.5t68.5 75.5t108 26q29 0 52 -4.5t47 -14.5v-116q-16 8 -33 12t-35 4
q-83 0 -83 -96v-25h211v20q0 69 24 118.5t68.5 75.5t107.5 26q28 0 51.5 -4.5t47.5 -14.5v-116q-16 8 -33 12t-35 4q-83 0 -83 -96zM889 595q-40 0 -63 20.5t-23 55.5q0 36 23 56.5t63 20.5t63 -20.5t23 -56.5q0 -35 -23 -55.5t-63 -20.5z" />
    <glyph glyph-name="f_f_k" unicode="ffk" horiz-adv-x="1337" 
d="M456 0v403h-211v-403h-148v403h-84v115h84v20q0 69 23.5 118.5t68.5 75.5t108 26q29 0 52 -4.5t47 -14.5v-116q-16 8 -33 12t-35 4q-83 0 -83 -96v-25h211v16q0 70 24.5 120.5t71 77t111.5 26.5q58 0 106 -20v-116q-17 9 -36 13t-39 4q-90 0 -90 -100v-21h127v-115h-127
v-403h-148zM993 218h-30v-218h-148v745h148v-414h31q40 48 76.5 94t71.5 93h165q-48 -61 -97 -120t-98 -116q56 -71 110 -140t107 -142h-175q-42 61 -81 114t-80 104z" />
    <glyph glyph-name="ffl" unicode="ffl" horiz-adv-x="1072" 
d="M456 0v403h-211v-403h-148v403h-84v115h84v20q0 69 23.5 118.5t68.5 75.5t108 26q29 0 52 -4.5t47 -14.5v-116q-16 8 -33 12t-35 4q-83 0 -83 -96v-25h211v16q0 70 24.5 120.5t71 77t111.5 26.5q58 0 106 -20v-116q-17 9 -36 13t-39 4q-90 0 -90 -100v-21h127v-115h-127
v-403h-148zM948 -9q-137 0 -137 149v605h148v-592q0 -25 9.5 -35.5t32.5 -10.5q11 0 22 2.5t22 7.5v-109q-39 -17 -97 -17z" />
    <glyph glyph-name="f_f_t" unicode="fft" horiz-adv-x="1125" 
d="M1105 11q-54 -24 -118 -24q-86 0 -131 44.5t-45 129.5v242h-207v-403h-148v403h-211v-403h-148v403h-84v115h84v20q0 69 23.5 118.5t68.5 75.5t108 26q29 0 52 -4.5t47 -14.5v-116q-16 8 -33 12t-35 4q-83 0 -83 -96v-25h211v20q0 69 24 118.5t68.5 75.5t107.5 26
q28 0 51.5 -4.5t47.5 -14.5v-116q-16 8 -33 12t-35 4q-83 0 -83 -96v-25h207v125l148 33v-158h135v-115h-135v-226q0 -71 71 -71q18 0 37 4.5t38 14.5v-114z" />
    <glyph glyph-name=".notdef" horiz-adv-x="500" 
d="M0 0v715h500v-715h-500zM87 668l162 -265l162 265h-324zM278 357l168 -273v547zM221 357l-167 272v-544zM249 311l-162 -264h324z" />
    <glyph glyph-name=".null" horiz-adv-x="0" 
 />
    <glyph glyph-name=".null" horiz-adv-x="0" 
 />
    <glyph glyph-name="CR" unicode="&#xd;" horiz-adv-x="233" 
 />
    <glyph glyph-name="space" unicode=" " horiz-adv-x="233" 
 />
    <glyph glyph-name="period" unicode="." horiz-adv-x="276" 
d="M138 160q42 0 65.5 -24t23.5 -61q0 -23 -10.5 -42.5t-30.5 -30.5t-48 -11t-48 11t-30.5 30.5t-10.5 42.5q0 37 23.5 61t65.5 24z" />
    <glyph glyph-name="colon" unicode=":" horiz-adv-x="276" 
d="M138 160q42 0 65.5 -24t23.5 -61q0 -23 -10.5 -42.5t-30.5 -30.5t-48 -11t-48 11t-30.5 30.5t-10.5 42.5q0 37 23.5 61t65.5 24zM138 527q42 0 65.5 -24t23.5 -61q0 -23 -10.5 -42.5t-30.5 -30.5t-48 -11t-48 11t-30.5 30.5t-10.5 42.5q0 37 23.5 61t65.5 24z" />
    <glyph glyph-name="comma" unicode="," horiz-adv-x="276" 
d="M227 50q0 -33 -11 -68.5t-30.5 -69t-46.5 -61.5h-117q70 74 87 148q-29 6 -45.5 26.5t-16.5 50.5q0 38 24 61t65 23q45 0 68 -28t23 -82z" />
    <glyph glyph-name="semicolon" unicode=";" horiz-adv-x="276" 
d="M227 50q0 -33 -11 -68.5t-30.5 -69t-46.5 -61.5h-117q70 74 87 148q-29 6 -45.5 26.5t-16.5 50.5q0 38 24 61t65 23q45 0 68 -28t23 -82zM138 527q42 0 65.5 -24t23.5 -61q0 -23 -10.5 -42.5t-30.5 -30.5t-48 -11t-48 11t-30.5 30.5t-10.5 42.5q0 37 23.5 61t65.5 24z
" />
    <glyph glyph-name="question" unicode="?" horiz-adv-x="514" 
d="M152 228v15q0 35 7.5 61t26 48.5t51.5 48.5q27 21 43.5 36.5t26 28.5t13 27t3.5 31q0 40 -31.5 63.5t-86.5 23.5q-45 0 -85 -11t-83 -36v121q43 23 92 34t101 11q75 0 129.5 -23.5t84.5 -67t30 -103.5q0 -40 -12 -73t-38 -62t-68 -58q-28 -19 -45 -34.5t-24 -31t-7 -34.5
v-15h-128zM216 -9q-28 0 -48 11t-30.5 30.5t-10.5 42.5q0 37 23.5 61t65.5 24t65.5 -24t23.5 -61q0 -23 -10.5 -42.5t-30.5 -30.5t-48 -11z" />
    <glyph glyph-name="exclam" unicode="!" horiz-adv-x="282" 
d="M205 228h-128l-13 487h154zM141 160q42 0 65.5 -24t23.5 -61q0 -23 -10.5 -42.5t-30.5 -30.5t-48 -11t-48 11t-30.5 30.5t-10.5 42.5q0 37 23.5 61t65.5 24z" />
    <glyph glyph-name="questiondown" unicode="&#xbf;" horiz-adv-x="514" 
d="M298 358q-42 0 -65.5 24t-23.5 61q0 23 10.5 42.5t30.5 30.5t48 11t48 -11t30.5 -30.5t10.5 -42.5q0 -37 -23.5 -61t-65.5 -24zM284 -212q-75 0 -129.5 23.5t-84.5 67t-30 103.5q0 40 12 73t38 62t68 58q28 19 45 34.5t24 31t7 34.5v15h128v-15q0 -35 -7.5 -61t-26 -48.5
t-51.5 -48.5q-27 -21 -43.5 -36.5t-26 -28.5t-13 -27t-3.5 -31q0 -40 31.5 -63.5t86.5 -23.5q45 0 85 11t83 36v-121q-43 -23 -92 -34t-101 -11z" />
    <glyph glyph-name="exclamdown" unicode="&#xa1;" horiz-adv-x="282" 
d="M141 358q-42 0 -65.5 24t-23.5 61q0 23 10.5 42.5t30.5 30.5t48 11t48 -11t30.5 -30.5t10.5 -42.5q0 -37 -23.5 -61t-65.5 -24zM77 290h128l13 -487h-154z" />
    <glyph glyph-name="quotesingle" unicode="'" horiz-adv-x="214" 
d="M163 438h-112l-8 277h128z" />
    <glyph glyph-name="quotedbl" unicode="&#x22;" horiz-adv-x="410" 
d="M163 438h-112l-8 277h128zM359 438h-112l-8 277h128z" />
    <glyph glyph-name="ellipsis" unicode="&#x2026;" horiz-adv-x="1000" 
d="M166 160q42 0 65.5 -24t23.5 -61q0 -23 -10.5 -42.5t-30.5 -30.5t-48 -11t-48 11t-30.5 30.5t-10.5 42.5q0 37 23.5 61t65.5 24zM500 160q42 0 65.5 -24t23.5 -61q0 -23 -10.5 -42.5t-30.5 -30.5t-48 -11t-48 11t-30.5 30.5t-10.5 42.5q0 37 23.5 61t65.5 24zM834 160
q42 0 65.5 -24t23.5 -61q0 -23 -10.5 -42.5t-30.5 -30.5t-48 -11t-48 11t-30.5 30.5t-10.5 42.5q0 37 23.5 61t65.5 24z" />
    <glyph glyph-name="question.smcp" unicode="&#xf63f;" horiz-adv-x="453" 
d="M128 192v9q0 29 6.5 50t22 37t43.5 33q28 16 43.5 28.5t22 24.5t6.5 29q0 27 -24.5 42t-68.5 15q-39 0 -73.5 -10t-71.5 -33v117q38 20 80.5 30t87.5 10q68 0 115.5 -19t73 -55t25.5 -86q0 -46 -21.5 -78.5t-68.5 -60.5q-30 -17 -46 -28.5t-22 -21.5t-6 -24v-9h-124z
M190 -9q-26 0 -44 10.5t-28 28.5t-10 40q0 34 22 56.5t60 22.5t60 -22.5t22 -56.5q0 -22 -10 -40t-28 -28.5t-44 -10.5z" />
    <glyph glyph-name="exclam.smcp" unicode="&#xf63e;" horiz-adv-x="262" 
d="M193 192h-124l-13 369h150zM131 149q38 0 60 -22.5t22 -56.5q0 -22 -10 -40t-28.5 -28.5t-43.5 -10.5t-43.5 10.5t-28.5 28.5t-10 40q0 34 22 56.5t60 22.5z" />
    <glyph glyph-name="questiondown.smcp" unicode="&#xf642;" horiz-adv-x="453" 
d="M263 412q-38 0 -60 22.5t-22 56.5q0 22 10 40t28.5 28.5t43.5 10.5t43.5 -10.5t28.5 -28.5t10 -40q0 -34 -22 -56.5t-60 -22.5zM251 -13q-67 0 -115 19t-73.5 54.5t-25.5 86.5q0 46 21.5 78.5t68.5 60.5q30 18 46 29t22 21t6 24v9h124v-9q0 -30 -6.5 -50.5t-22.5 -37
t-43 -32.5t-43 -28.5t-22.5 -25t-6.5 -28.5q0 -27 24.5 -42t68.5 -15q39 0 73.5 10.5t71.5 32.5v-117q-37 -19 -80 -29.5t-88 -10.5z" />
    <glyph glyph-name="exclamdown.smcp" unicode="&#xf643;" horiz-adv-x="262" 
d="M131 412q-38 0 -60 22.5t-22 56.5q0 22 10 40t28.5 28.5t43.5 10.5t43.5 -10.5t28.5 -28.5t10 -40q0 -34 -22 -56.5t-60 -22.5zM69 369h124l13 -369h-150z" />
    <glyph glyph-name="nbspace" unicode="&#xa0;" horiz-adv-x="250" 
 />
    <glyph glyph-name="enquad" unicode="&#x2000;" horiz-adv-x="500" 
 />
    <glyph glyph-name="emquad" unicode="&#x2001;" horiz-adv-x="1000" 
 />
    <glyph glyph-name="enspace" unicode="&#x2002;" horiz-adv-x="500" 
 />
    <glyph glyph-name="emspace" unicode="&#x2003;" horiz-adv-x="1000" 
 />
    <glyph glyph-name="thirdemspace" unicode="&#x2004;" horiz-adv-x="333" 
 />
    <glyph glyph-name="fourthemspace" unicode="&#x2005;" horiz-adv-x="250" 
 />
    <glyph glyph-name="sixthemspace" unicode="&#x2006;" horiz-adv-x="167" 
 />
    <glyph glyph-name="figurespace" unicode="&#x2007;" 
 />
    <glyph glyph-name="punctuationspace" unicode="&#x2008;" horiz-adv-x="276" 
 />
    <glyph glyph-name="thinspace" unicode="&#x2009;" horiz-adv-x="200" 
 />
    <glyph glyph-name="hairspace" unicode="&#x200a;" horiz-adv-x="150" 
 />
    <glyph glyph-name="zerowidthspace" unicode="&#x200b;" horiz-adv-x="0" 
 />
    <glyph glyph-name="zero" unicode="0" 
d="M298 712q86 0 146.5 -42.5t92 -124t31.5 -197.5q0 -115 -31.5 -195.5t-92 -123t-146.5 -42.5t-146.5 42.5t-92 123t-31.5 195.5q0 116 31.5 197.5t92 124t146.5 42.5zM298 113q58 0 87 59.5t29 175.5q0 117 -29 177.5t-87 60.5t-87 -60.5t-29 -177.5q0 -116 29 -175.5
t87 -59.5z" />
    <glyph glyph-name="one" unicode="1" 
d="M401 699v-699h-150v547q-41 -21 -82.5 -43t-78.5 -43v138q40 23 89 48.5t103 51.5h119z" />
    <glyph glyph-name="two" unicode="2" 
d="M537 130v-130h-490v28q0 54 9 96.5t30.5 79t58 71t90.5 70.5q49 33 77.5 57t40 45.5t11.5 46.5q0 91 -117 91q-49 0 -94.5 -15.5t-89.5 -48.5v133q51 30 103 44t113 14q73 0 127 -24t84 -68t30 -104q0 -39 -8 -71t-27 -59.5t-52 -55.5t-82 -59q-43 -27 -71.5 -50
t-46.5 -45t-27 -46h331z" />
    <glyph glyph-name="three" unicode="3" 
d="M536 195q0 -65 -34.5 -111.5t-98 -71.5t-151.5 -25q-56 0 -106.5 9.5t-99.5 32.5v127q47 -22 93.5 -34t103.5 -12q68 0 103.5 24.5t35.5 70.5q0 47 -35 71t-102 24h-106v118h101q64 0 97.5 24t33.5 67q0 38 -32 59t-91 21q-36 0 -67 -5.5t-60 -15.5t-59 -26v124
q93 46 206 46q78 0 135 -22.5t87.5 -64t30.5 -98.5q0 -55 -30.5 -96.5t-85.5 -63.5q62 -21 96.5 -65t34.5 -107z" />
    <glyph glyph-name="four" unicode="4" 
d="M21 251q77 113 156.5 222t170.5 226h154v-449h75v-116h-75v-134h-142v134h-339v117zM360 250v283q-53 -72 -104 -142.5t-99 -140.5h203z" />
    <glyph glyph-name="five" unicode="5" 
d="M547 214q0 -71 -34.5 -122t-99.5 -78t-157 -27q-56 0 -107.5 9.5t-100.5 30.5v126q96 -44 200 -44q72 0 109.5 27.5t37.5 78.5q0 104 -160 104q-39 0 -77.5 -3.5t-87.5 -11.5l34 395h409v-128h-283l-12 -144q23 4 44.5 5.5t39.5 1.5q76 0 131 -26t84.5 -75.5t29.5 -118.5
z" />
    <glyph glyph-name="six" unicode="6" 
d="M568 219q0 -53 -18 -95.5t-51.5 -73t-79.5 -47t-102 -16.5q-91 0 -154.5 39t-97 113t-33.5 180q0 91 23.5 164t68 124t108.5 78t144 27q43 0 80 -8t77 -25v-123q-39 16 -73.5 24t-74.5 8q-180 0 -203 -203q71 57 161 57q69 0 119.5 -27t78 -77t27.5 -119zM307 331
q-36 0 -68 -12t-59 -34q6 -90 39.5 -136t93.5 -46q33 0 57 14.5t37 41t13 61.5q0 52 -30 81.5t-83 29.5z" />
    <glyph glyph-name="seven" unicode="7" 
d="M547 590q-61 -152 -124.5 -298t-131.5 -292h-161q69 140 134.5 282t128.5 287h-350v130h504v-109z" />
    <glyph glyph-name="eight" unicode="8" 
d="M570 190q0 -62 -33.5 -107.5t-95 -70.5t-143.5 -25q-84 0 -145 24t-94 68.5t-33 106.5q0 56 32.5 99.5t92.5 67.5q-106 51 -106 164q0 59 31.5 103t88.5 68t133 24q78 0 135 -24t87.5 -67.5t30.5 -103.5q0 -48 -27 -86t-76 -60q62 -29 92 -73.5t30 -107.5zM289 417l46 -6
q33 13 52 37.5t19 57.5q0 42 -28.5 65.5t-79.5 23.5t-79.5 -23.5t-28.5 -65.5q0 -38 26 -60t73 -29zM175 204q0 -46 33.5 -73t89.5 -27q57 0 90 26.5t33 74.5q0 43 -28.5 68t-83.5 33l-41 6q-44 -14 -68.5 -41.5t-24.5 -66.5z" />
    <glyph glyph-name="nine" unicode="9" 
d="M563 377q0 -91 -23 -163.5t-67.5 -123t-107.5 -77t-143 -26.5q-42 0 -79 8t-77 25v123q39 -17 74 -24.5t74 -7.5q178 0 199 201q-35 -28 -75 -41.5t-84 -13.5q-69 0 -119.5 27t-78 77t-27.5 119q0 52 18 94.5t51 73.5t79 47.5t103 16.5q90 0 153.5 -39t96.5 -114t33 -182
zM177 478q0 -51 30.5 -80.5t82.5 -29.5q35 0 66.5 11.5t58.5 33.5q-6 93 -38 138t-93 45q-50 0 -78.5 -32t-28.5 -86z" />
    <glyph glyph-name="zero.pnum" horiz-adv-x="626" 
d="M313 712q86 0 146.5 -42.5t92 -124t31.5 -197.5q0 -115 -31.5 -195.5t-92 -123t-146.5 -42.5t-146.5 42.5t-92 123t-31.5 195.5q0 116 31.5 197.5t92 124t146.5 42.5zM313 113q58 0 87 59.5t29 175.5q0 117 -29 177.5t-87 60.5t-87 -60.5t-29 -177.5q0 -116 29 -175.5
t87 -59.5z" />
    <glyph glyph-name="one.pnum" horiz-adv-x="403" 
d="M330 699v-699h-150v547q-41 -21 -82.5 -43t-78.5 -43v138q40 23 89 48.5t103 51.5h119z" />
    <glyph glyph-name="two.pnum" horiz-adv-x="555" 
d="M517 130v-130h-490v28q0 54 9 96.5t30.5 79t58 71t90.5 70.5q49 33 77.5 57t40 45.5t11.5 46.5q0 91 -117 91q-49 0 -94.5 -15.5t-89.5 -48.5v133q51 30 103 44t113 14q73 0 127 -24t84 -68t30 -104q0 -39 -8 -71t-27 -59.5t-52 -55.5t-82 -59q-43 -27 -71.5 -50
t-46.5 -45t-27 -46h331z" />
    <glyph glyph-name="three.pnum" horiz-adv-x="562" 
d="M520 195q0 -65 -34.5 -111.5t-98 -71.5t-151.5 -25q-56 0 -106.5 9.5t-99.5 32.5v127q47 -22 93.5 -34t103.5 -12q68 0 103.5 24.5t35.5 70.5q0 47 -35 71t-102 24h-106v118h101q64 0 97.5 24t33.5 67q0 38 -32 59t-91 21q-36 0 -67 -5.5t-60 -15.5t-59 -26v124
q93 46 206 46q78 0 135 -22.5t87.5 -64t30.5 -98.5q0 -55 -30.5 -96.5t-85.5 -63.5q62 -21 96.5 -65t34.5 -107z" />
    <glyph glyph-name="four.pnum" horiz-adv-x="609" 
d="M24 251q77 113 156.5 222t170.5 226h154v-449h75v-116h-75v-134h-142v134h-339v117zM363 250v283q-53 -72 -104 -142.5t-99 -140.5h203z" />
    <glyph glyph-name="five.pnum" horiz-adv-x="577" 
d="M537 214q0 -71 -34.5 -122t-99.5 -78t-157 -27q-56 0 -107.5 9.5t-100.5 30.5v126q96 -44 200 -44q72 0 109.5 27.5t37.5 78.5q0 104 -160 104q-39 0 -77.5 -3.5t-87.5 -11.5l34 395h409v-128h-283l-12 -144q23 4 44.5 5.5t39.5 1.5q76 0 131 -26t84.5 -75.5t29.5 -118.5
z" />
    <glyph glyph-name="six.pnum" horiz-adv-x="613" 
d="M579 219q0 -53 -18 -95.5t-51.5 -73t-79.5 -47t-102 -16.5q-91 0 -154.5 39t-97 113t-33.5 180q0 91 23.5 164t68 124t108.5 78t144 27q43 0 80 -8t77 -25v-123q-39 16 -73.5 24t-74.5 8q-180 0 -203 -203q71 57 161 57q69 0 119.5 -27t78 -77t27.5 -119zM318 331
q-36 0 -68 -12t-59 -34q6 -90 39.5 -136t93.5 -46q33 0 57 14.5t37 41t13 61.5q0 52 -30 81.5t-83 29.5z" />
    <glyph glyph-name="seven.pnum" horiz-adv-x="540" 
d="M519 590q-61 -152 -124.5 -298t-131.5 -292h-161q69 140 134.5 282t128.5 287h-350v130h504v-109z" />
    <glyph glyph-name="eight.pnum" horiz-adv-x="626" 
d="M585 190q0 -62 -33.5 -107.5t-95 -70.5t-143.5 -25q-84 0 -145 24t-94 68.5t-33 106.5q0 56 32.5 99.5t92.5 67.5q-106 51 -106 164q0 59 31.5 103t88.5 68t133 24q78 0 135 -24t87.5 -67.5t30.5 -103.5q0 -48 -27 -86t-76 -60q62 -29 92 -73.5t30 -107.5zM304 417l46 -6
q33 13 52 37.5t19 57.5q0 42 -28.5 65.5t-79.5 23.5t-79.5 -23.5t-28.5 -65.5q0 -38 26 -60t73 -29zM190 204q0 -46 33.5 -73t89.5 -27q57 0 90 26.5t33 74.5q0 43 -28.5 68t-83.5 33l-41 6q-44 -14 -68.5 -41.5t-24.5 -66.5z" />
    <glyph glyph-name="nine.pnum" horiz-adv-x="611" 
d="M568 377q0 -91 -23 -163.5t-67.5 -123t-107.5 -77t-143 -26.5q-42 0 -79 8t-77 25v123q39 -17 74 -24.5t74 -7.5q178 0 199 201q-35 -28 -75 -41.5t-84 -13.5q-69 0 -119.5 27t-78 77t-27.5 119q0 52 18 94.5t51 73.5t79 47.5t103 16.5q90 0 153.5 -39t96.5 -114t33 -182
zM182 478q0 -51 30.5 -80.5t82.5 -29.5q35 0 66.5 11.5t58.5 33.5q-6 93 -38 138t-93 45q-50 0 -78.5 -32t-28.5 -86z" />
    <glyph glyph-name="zero.dnom" horiz-adv-x="414" 
d="M207 407q86 0 132.5 -54.5t46.5 -154.5t-47 -154t-132 -54t-132 54t-47 154t46.5 154.5t132.5 54.5zM207 77q72 0 72 121q0 122 -72 122t-72 -122q0 -121 72 -121z" />
    <glyph glyph-name="one.dnom" horiz-adv-x="414" 
d="M279 397v-397h-105v292q-27 -14 -53 -27.5t-51 -27.5v96q26 14 59 30.5t68 33.5h82z" />
    <glyph glyph-name="two.dnom" horiz-adv-x="414" 
d="M366 90v-90h-327v29q0 43 11.5 74.5t38.5 56t72 46.5q35 17 52.5 28t23.5 20.5t6 22.5q0 41 -73 41q-32 0 -61.5 -9.5t-59.5 -29.5v92q34 19 67.5 27.5t73.5 8.5q50 0 86 -15t56 -41.5t20 -63.5q0 -31 -9.5 -53.5t-33 -41.5t-64.5 -39q-43 -21 -64 -35t-29 -28h214z" />
    <glyph glyph-name="three.dnom" horiz-adv-x="414" 
d="M364 111q0 -37 -22.5 -64.5t-65 -42t-100.5 -14.5q-73 0 -135 25v87q32 -14 63 -20.5t66 -6.5q42 0 64.5 11t22.5 33q0 41 -81 41h-69v82h65q40 0 59 11t19 31q0 18 -19 28t-58 10q-33 0 -62 -7t-60 -21v84q29 14 65.5 21.5t74.5 7.5q51 0 87.5 -13.5t56.5 -38t20 -58.5
q0 -31 -18 -54t-52 -35q38 -11 58.5 -36t20.5 -61z" />
    <glyph glyph-name="four.dnom" horiz-adv-x="414" 
d="M26 150q50 62 101 122t108 125h108v-248h47v-79h-47v-70h-98v70h-219v80zM245 149v145q-32 -37 -62 -73t-59 -72h121z" />
    <glyph glyph-name="five.dnom" horiz-adv-x="414" 
d="M368 123q0 -62 -49 -97.5t-138 -35.5q-38 0 -73.5 6t-63.5 16v86q34 -13 65 -18.5t63 -5.5q46 0 68 13t22 37q0 23 -23 35t-72 12q-25 0 -50 -2.5t-56 -8.5l21 237h267v-89h-186l-6 -65q17 3 32 4t29 1q70 0 110 -33t40 -92z" />
    <glyph glyph-name="six.dnom" horiz-adv-x="414" 
d="M383 126q0 -41 -20.5 -71.5t-57.5 -47.5t-87 -17q-87 0 -134.5 50t-47.5 140q0 70 26.5 121t76 78.5t117.5 27.5q29 0 54 -5t51 -16v-85q-25 11 -47.5 16t-50.5 5q-108 0 -123 -103q23 19 48 28t53 9q66 0 104 -34.5t38 -95.5zM215 181q-43 0 -76 -23q9 -89 78 -89
q29 0 46 15.5t17 41.5t-17 40.5t-48 14.5z" />
    <glyph glyph-name="seven.dnom" horiz-adv-x="414" 
d="M363 320q-35 -78 -72 -156.5t-81 -163.5h-113q42 79 80.5 154.5t74.5 151.5h-206v91h317v-77z" />
    <glyph glyph-name="eight.dnom" horiz-adv-x="414" 
d="M384 110q0 -36 -22 -63t-62 -42t-94 -15q-55 0 -94.5 13.5t-61.5 39t-22 60.5q0 33 19.5 57.5t56.5 36.5q-63 30 -63 94q0 35 20 61t57 40.5t88 14.5t88 -14t57.5 -39.5t20.5 -61.5q0 -28 -16 -49t-45 -33q73 -28 73 -100zM204 239l30 -4q38 16 38 49q0 21 -17.5 32.5
t-48.5 11.5t-48 -11.5t-17 -32.5q0 -38 63 -45zM131 118q0 -23 20 -36t55 -13t55 13t20 36q0 21 -16.5 32t-51.5 16l-33 4q-22 -6 -35.5 -19.5t-13.5 -32.5z" />
    <glyph glyph-name="nine.dnom" horiz-adv-x="414" 
d="M378 217q0 -71 -26.5 -121.5t-75 -78t-116.5 -27.5q-30 0 -55 5t-51 16v85q26 -11 48 -16t50 -5q107 0 122 103q-23 -19 -48 -28t-53 -9q-43 0 -75 16t-49 45.5t-17 69.5t20.5 70.5t58 47.5t86.5 17q57 0 97.5 -22.5t62 -65t21.5 -102.5zM135 271q0 -25 17 -40t48 -15
q41 0 75 24q-9 88 -77 88q-30 0 -46.5 -15.5t-16.5 -41.5z" />
    <glyph glyph-name="zero.numr" horiz-adv-x="414" 
d="M207 709q86 0 132.5 -54.5t46.5 -154.5t-47 -154t-132 -54t-132 54t-47 154t46.5 154.5t132.5 54.5zM207 379q72 0 72 121q0 122 -72 122t-72 -122q0 -121 72 -121z" />
    <glyph glyph-name="one.numr" horiz-adv-x="414" 
d="M279 699v-397h-105v292q-27 -14 -53 -27.5t-51 -27.5v96q26 14 59 30.5t68 33.5h82z" />
    <glyph glyph-name="two.numr" horiz-adv-x="414" 
d="M366 392v-90h-327v29q0 43 11.5 74.5t38.5 56t72 46.5q35 17 52.5 28t23.5 20.5t6 22.5q0 41 -73 41q-32 0 -61.5 -9.5t-59.5 -29.5v92q34 19 67.5 27.5t73.5 8.5q50 0 86 -15t56 -41.5t20 -63.5q0 -31 -9.5 -53.5t-33 -41.5t-64.5 -39q-43 -21 -64 -35t-29 -28h214z" />
    <glyph glyph-name="three.numr" horiz-adv-x="414" 
d="M364 413q0 -37 -22.5 -64.5t-65 -42t-100.5 -14.5q-73 0 -135 25v87q32 -14 63 -20.5t66 -6.5q42 0 64.5 11t22.5 33q0 41 -81 41h-69v82h65q40 0 59 11t19 31q0 18 -19 28t-58 10q-33 0 -62 -7t-60 -21v84q29 14 65.5 21.5t74.5 7.5q51 0 87.5 -13.5t56.5 -38t20 -58.5
q0 -31 -18 -54t-52 -35q38 -11 58.5 -36t20.5 -61z" />
    <glyph glyph-name="four.numr" horiz-adv-x="414" 
d="M26 452q50 62 101 122t108 125h108v-248h47v-79h-47v-70h-98v70h-219v80zM245 451v145q-32 -37 -62 -73t-59 -72h121z" />
    <glyph glyph-name="five.numr" horiz-adv-x="414" 
d="M368 425q0 -62 -49 -97.5t-138 -35.5q-38 0 -73.5 6t-63.5 16v86q34 -13 65 -18.5t63 -5.5q46 0 68 13t22 37q0 23 -23 35t-72 12q-25 0 -50 -2.5t-56 -8.5l21 237h267v-89h-186l-6 -65q17 3 32 4t29 1q70 0 110 -33t40 -92z" />
    <glyph glyph-name="six.numr" horiz-adv-x="414" 
d="M383 428q0 -41 -20.5 -71.5t-57.5 -47.5t-87 -17q-87 0 -134.5 50t-47.5 140q0 70 26.5 121t76 78.5t117.5 27.5q29 0 54 -5t51 -16v-85q-25 11 -47.5 16t-50.5 5q-108 0 -123 -103q23 19 48 28t53 9q66 0 104 -34.5t38 -95.5zM215 483q-43 0 -76 -23q9 -89 78 -89
q29 0 46 15.5t17 41.5t-17 40.5t-48 14.5z" />
    <glyph glyph-name="seven.numr" horiz-adv-x="414" 
d="M363 622q-35 -78 -72 -156.5t-81 -163.5h-113q42 79 80.5 154.5t74.5 151.5h-206v91h317v-77z" />
    <glyph glyph-name="eight.numr" horiz-adv-x="414" 
d="M384 412q0 -36 -22 -63t-62 -42t-94 -15q-55 0 -94.5 13.5t-61.5 39t-22 60.5q0 33 19.5 57.5t56.5 36.5q-63 30 -63 94q0 35 20 61t57 40.5t88 14.5t88 -14t57.5 -39.5t20.5 -61.5q0 -28 -16 -49t-45 -33q73 -28 73 -100zM204 541l30 -4q38 16 38 49q0 21 -17.5 32.5
t-48.5 11.5t-48 -11.5t-17 -32.5q0 -38 63 -45zM131 420q0 -23 20 -36t55 -13t55 13t20 36q0 21 -16.5 32t-51.5 16l-33 4q-22 -6 -35.5 -19.5t-13.5 -32.5z" />
    <glyph glyph-name="nine.numr" horiz-adv-x="414" 
d="M378 519q0 -71 -26.5 -121.5t-75 -78t-116.5 -27.5q-30 0 -55 5t-51 16v85q26 -11 48 -16t50 -5q107 0 122 103q-23 -19 -48 -28t-53 -9q-43 0 -75 16t-49 45.5t-17 69.5t20.5 70.5t58 47.5t86.5 17q57 0 97.5 -22.5t62 -65t21.5 -102.5zM135 573q0 -25 17 -40t48 -15
q41 0 75 24q-9 88 -77 88q-30 0 -46.5 -15.5t-16.5 -41.5z" />
    <glyph glyph-name="fraction" unicode="&#x2044;" horiz-adv-x="136" 
d="M-162 0l348 699h112l-348 -699h-112z" />
    <glyph glyph-name="percent" unicode="%" horiz-adv-x="964" 
d="M252 0l348 699h112l-348 -699h-112zM757 407q86 0 132.5 -54.5t46.5 -154.5t-47 -154t-132 -54t-132 54t-47 154t46.5 154.5t132.5 54.5zM757 77q72 0 72 121q0 122 -72 122t-72 -122q0 -121 72 -121zM207 709q86 0 132.5 -54.5t46.5 -154.5t-47 -154t-132 -54t-132 54
t-47 154t46.5 154.5t132.5 54.5zM207 379q72 0 72 121q0 122 -72 122t-72 -122q0 -121 72 -121z" />
    <glyph glyph-name="perthousand" unicode="&#x2030;" horiz-adv-x="1378" 
d="M252 0l348 699h112l-348 -699h-112zM757 407q86 0 132.5 -54.5t46.5 -154.5t-47 -154t-132 -54t-132 54t-47 154t46.5 154.5t132.5 54.5zM757 77q72 0 72 121q0 122 -72 122t-72 -122q0 -121 72 -121zM1171 407q86 0 132.5 -54.5t46.5 -154.5t-47 -154t-132 -54t-132 54
t-47 154t46.5 154.5t132.5 54.5zM1171 77q72 0 72 121q0 122 -72 122t-72 -122q0 -121 72 -121zM207 709q86 0 132.5 -54.5t46.5 -154.5t-47 -154t-132 -54t-132 54t-47 154t46.5 154.5t132.5 54.5zM207 379q72 0 72 121q0 122 -72 122t-72 -122q0 -121 72 -121z" />
    <glyph glyph-name="onehalf" unicode="&#xbd;" horiz-adv-x="964" 
d="M232 0l348 699h112l-348 -699h-112zM916 90v-90h-327v29q0 43 11.5 74.5t38.5 56t72 46.5q35 17 52.5 28t23.5 20.5t6 22.5q0 41 -73 41q-32 0 -61.5 -9.5t-59.5 -29.5v92q34 19 67.5 27.5t73.5 8.5q50 0 86 -15t56 -41.5t20 -63.5q0 -31 -9.5 -53.5t-33 -41.5t-64.5 -39
q-43 -21 -64 -35t-29 -28h214zM279 699v-397h-105v292q-27 -14 -53 -27.5t-51 -27.5v96q26 14 59 30.5t68 33.5h82z" />
    <glyph glyph-name="onethird" unicode="&#x2153;" horiz-adv-x="964" 
d="M237 0l348 699h112l-348 -699h-112zM914 111q0 -37 -22.5 -64.5t-65 -42t-100.5 -14.5q-73 0 -135 25v87q32 -14 63 -20.5t66 -6.5q42 0 64.5 11t22.5 33q0 41 -81 41h-69v82h65q40 0 59 11t19 31q0 18 -19 28t-58 10q-33 0 -62 -7t-60 -21v84q29 14 65.5 21.5t74.5 7.5
q51 0 87.5 -13.5t56.5 -38t20 -58.5q0 -31 -18 -54t-52 -35q38 -11 58.5 -36t20.5 -61zM279 699v-397h-105v292q-27 -14 -53 -27.5t-51 -27.5v96q26 14 59 30.5t68 33.5h82z" />
    <glyph glyph-name="twothirds" unicode="&#x2154;" horiz-adv-x="964" 
d="M257 0l348 699h112l-348 -699h-112zM914 111q0 -37 -22.5 -64.5t-65 -42t-100.5 -14.5q-73 0 -135 25v87q32 -14 63 -20.5t66 -6.5q42 0 64.5 11t22.5 33q0 41 -81 41h-69v82h65q40 0 59 11t19 31q0 18 -19 28t-58 10q-33 0 -62 -7t-60 -21v84q29 14 65.5 21.5t74.5 7.5
q51 0 87.5 -13.5t56.5 -38t20 -58.5q0 -31 -18 -54t-52 -35q38 -11 58.5 -36t20.5 -61zM366 392v-90h-327v29q0 43 11.5 74.5t38.5 56t72 46.5q35 17 52.5 28t23.5 20.5t6 22.5q0 41 -73 41q-32 0 -61.5 -9.5t-59.5 -29.5v92q34 19 67.5 27.5t73.5 8.5q50 0 86 -15t56 -41.5
t20 -63.5q0 -31 -9.5 -53.5t-33 -41.5t-64.5 -39q-43 -21 -64 -35t-29 -28h214z" />
    <glyph glyph-name="onequarter" unicode="&#xbc;" horiz-adv-x="964" 
d="M262 0l348 699h112l-348 -699h-112zM576 150q50 62 101 122t108 125h108v-248h47v-79h-47v-70h-98v70h-219v80zM795 149v145q-32 -37 -62 -73t-59 -72h121zM279 699v-397h-105v292q-27 -14 -53 -27.5t-51 -27.5v96q26 14 59 30.5t68 33.5h82z" />
    <glyph glyph-name="threequarters" unicode="&#xbe;" horiz-adv-x="964" 
d="M282 0l348 699h112l-348 -699h-112zM576 150q50 62 101 122t108 125h108v-248h47v-79h-47v-70h-98v70h-219v80zM795 149v145q-32 -37 -62 -73t-59 -72h121zM364 413q0 -37 -22.5 -64.5t-65 -42t-100.5 -14.5q-73 0 -135 25v87q32 -14 63 -20.5t66 -6.5q42 0 64.5 11
t22.5 33q0 41 -81 41h-69v82h65q40 0 59 11t19 31q0 18 -19 28t-58 10q-33 0 -62 -7t-60 -21v84q29 14 65.5 21.5t74.5 7.5q51 0 87.5 -13.5t56.5 -38t20 -58.5q0 -31 -18 -54t-52 -35q38 -11 58.5 -36t20.5 -61z" />
    <glyph glyph-name="onefifth" unicode="&#x2155;" horiz-adv-x="964" 
d="M232 0l348 699h112l-348 -699h-112zM918 123q0 -62 -49 -97.5t-138 -35.5q-38 0 -73.5 6t-63.5 16v86q34 -13 65 -18.5t63 -5.5q46 0 68 13t22 37q0 23 -23 35t-72 12q-25 0 -50 -2.5t-56 -8.5l21 237h267v-89h-186l-6 -65q17 3 32 4t29 1q70 0 110 -33t40 -92zM279 699
v-397h-105v292q-27 -14 -53 -27.5t-51 -27.5v96q26 14 59 30.5t68 33.5h82z" />
    <glyph glyph-name="twofifths" unicode="&#x2156;" horiz-adv-x="964" 
d="M262 0l348 699h112l-348 -699h-112zM918 123q0 -62 -49 -97.5t-138 -35.5q-38 0 -73.5 6t-63.5 16v86q34 -13 65 -18.5t63 -5.5q46 0 68 13t22 37q0 23 -23 35t-72 12q-25 0 -50 -2.5t-56 -8.5l21 237h267v-89h-186l-6 -65q17 3 32 4t29 1q70 0 110 -33t40 -92zM366 392
v-90h-327v29q0 43 11.5 74.5t38.5 56t72 46.5q35 17 52.5 28t23.5 20.5t6 22.5q0 41 -73 41q-32 0 -61.5 -9.5t-59.5 -29.5v92q34 19 67.5 27.5t73.5 8.5q50 0 86 -15t56 -41.5t20 -63.5q0 -31 -9.5 -53.5t-33 -41.5t-64.5 -39q-43 -21 -64 -35t-29 -28h214z" />
    <glyph glyph-name="threefifths" unicode="&#x2157;" horiz-adv-x="964" 
d="M252 0l348 699h112l-348 -699h-112zM918 123q0 -62 -49 -97.5t-138 -35.5q-38 0 -73.5 6t-63.5 16v86q34 -13 65 -18.5t63 -5.5q46 0 68 13t22 37q0 23 -23 35t-72 12q-25 0 -50 -2.5t-56 -8.5l21 237h267v-89h-186l-6 -65q17 3 32 4t29 1q70 0 110 -33t40 -92zM364 413
q0 -37 -22.5 -64.5t-65 -42t-100.5 -14.5q-73 0 -135 25v87q32 -14 63 -20.5t66 -6.5q42 0 64.5 11t22.5 33q0 41 -81 41h-69v82h65q40 0 59 11t19 31q0 18 -19 28t-58 10q-33 0 -62 -7t-60 -21v84q29 14 65.5 21.5t74.5 7.5q51 0 87.5 -13.5t56.5 -38t20 -58.5
q0 -31 -18 -54t-52 -35q38 -11 58.5 -36t20.5 -61z" />
    <glyph glyph-name="fourfifths" unicode="&#x2158;" horiz-adv-x="964" 
d="M262 0l348 699h112l-348 -699h-112zM918 123q0 -62 -49 -97.5t-138 -35.5q-38 0 -73.5 6t-63.5 16v86q34 -13 65 -18.5t63 -5.5q46 0 68 13t22 37q0 23 -23 35t-72 12q-25 0 -50 -2.5t-56 -8.5l21 237h267v-89h-186l-6 -65q17 3 32 4t29 1q70 0 110 -33t40 -92zM26 452
q50 62 101 122t108 125h108v-248h47v-79h-47v-70h-98v70h-219v80zM245 451v145q-32 -37 -62 -73t-59 -72h121z" />
    <glyph glyph-name="onesixth" unicode="&#x2159;" horiz-adv-x="964" 
d="M242 0l348 699h112l-348 -699h-112zM933 126q0 -41 -20.5 -71.5t-57.5 -47.5t-87 -17q-87 0 -134.5 50t-47.5 140q0 70 26.5 121t76 78.5t117.5 27.5q29 0 54 -5t51 -16v-85q-25 11 -47.5 16t-50.5 5q-108 0 -123 -103q23 19 48 28t53 9q66 0 104 -34.5t38 -95.5z
M765 181q-43 0 -76 -23q9 -89 78 -89q29 0 46 15.5t17 41.5t-17 40.5t-48 14.5zM279 699v-397h-105v292q-27 -14 -53 -27.5t-51 -27.5v96q26 14 59 30.5t68 33.5h82z" />
    <glyph glyph-name="fivesixths" unicode="&#x215a;" horiz-adv-x="964" 
d="M262 0l348 699h112l-348 -699h-112zM933 126q0 -41 -20.5 -71.5t-57.5 -47.5t-87 -17q-87 0 -134.5 50t-47.5 140q0 70 26.5 121t76 78.5t117.5 27.5q29 0 54 -5t51 -16v-85q-25 11 -47.5 16t-50.5 5q-108 0 -123 -103q23 19 48 28t53 9q66 0 104 -34.5t38 -95.5z
M765 181q-43 0 -76 -23q9 -89 78 -89q29 0 46 15.5t17 41.5t-17 40.5t-48 14.5zM368 425q0 -62 -49 -97.5t-138 -35.5q-38 0 -73.5 6t-63.5 16v86q34 -13 65 -18.5t63 -5.5q46 0 68 13t22 37q0 23 -23 35t-72 12q-25 0 -50 -2.5t-56 -8.5l21 237h267v-89h-186l-6 -65
q17 3 32 4t29 1q70 0 110 -33t40 -92z" />
    <glyph glyph-name="oneseventh" unicode="&#x2150;" horiz-adv-x="964" 
d="M227 0l348 699h112l-348 -699h-112zM913 320q-35 -78 -72 -156.5t-81 -163.5h-113q42 79 80.5 154.5t74.5 151.5h-206v91h317v-77zM279 699v-397h-105v292q-27 -14 -53 -27.5t-51 -27.5v96q26 14 59 30.5t68 33.5h82z" />
    <glyph glyph-name="twosevenths" unicode="&#xf507;" horiz-adv-x="964" 
d="M252 0l348 699h112l-348 -699h-112zM913 320q-35 -78 -72 -156.5t-81 -163.5h-113q42 79 80.5 154.5t74.5 151.5h-206v91h317v-77zM366 392v-90h-327v29q0 43 11.5 74.5t38.5 56t72 46.5q35 17 52.5 28t23.5 20.5t6 22.5q0 41 -73 41q-32 0 -61.5 -9.5t-59.5 -29.5v92
q34 19 67.5 27.5t73.5 8.5q50 0 86 -15t56 -41.5t20 -63.5q0 -31 -9.5 -53.5t-33 -41.5t-64.5 -39q-43 -21 -64 -35t-29 -28h214z" />
    <glyph glyph-name="threesevenths" unicode="&#xf508;" horiz-adv-x="964" 
d="M232 0l348 699h112l-348 -699h-112zM913 320q-35 -78 -72 -156.5t-81 -163.5h-113q42 79 80.5 154.5t74.5 151.5h-206v91h317v-77zM364 413q0 -37 -22.5 -64.5t-65 -42t-100.5 -14.5q-73 0 -135 25v87q32 -14 63 -20.5t66 -6.5q42 0 64.5 11t22.5 33q0 41 -81 41h-69v82
h65q40 0 59 11t19 31q0 18 -19 28t-58 10q-33 0 -62 -7t-60 -21v84q29 14 65.5 21.5t74.5 7.5q51 0 87.5 -13.5t56.5 -38t20 -58.5q0 -31 -18 -54t-52 -35q38 -11 58.5 -36t20.5 -61z" />
    <glyph glyph-name="foursevenths" unicode="&#xf509;" horiz-adv-x="964" 
d="M252 0l348 699h112l-348 -699h-112zM913 320q-35 -78 -72 -156.5t-81 -163.5h-113q42 79 80.5 154.5t74.5 151.5h-206v91h317v-77zM26 452q50 62 101 122t108 125h108v-248h47v-79h-47v-70h-98v70h-219v80zM245 451v145q-32 -37 -62 -73t-59 -72h121z" />
    <glyph glyph-name="fivesevenths" unicode="&#xf50a;" horiz-adv-x="964" 
d="M237 0l348 699h112l-348 -699h-112zM913 320q-35 -78 -72 -156.5t-81 -163.5h-113q42 79 80.5 154.5t74.5 151.5h-206v91h317v-77zM368 425q0 -62 -49 -97.5t-138 -35.5q-38 0 -73.5 6t-63.5 16v86q34 -13 65 -18.5t63 -5.5q46 0 68 13t22 37q0 23 -23 35t-72 12
q-25 0 -50 -2.5t-56 -8.5l21 237h267v-89h-186l-6 -65q17 3 32 4t29 1q70 0 110 -33t40 -92z" />
    <glyph glyph-name="sixsevenths" unicode="&#xf50b;" horiz-adv-x="964" 
d="M247 0l348 699h112l-348 -699h-112zM913 320q-35 -78 -72 -156.5t-81 -163.5h-113q42 79 80.5 154.5t74.5 151.5h-206v91h317v-77zM383 428q0 -41 -20.5 -71.5t-57.5 -47.5t-87 -17q-87 0 -134.5 50t-47.5 140q0 70 26.5 121t76 78.5t117.5 27.5q29 0 54 -5t51 -16v-85
q-25 11 -47.5 16t-50.5 5q-108 0 -123 -103q23 19 48 28t53 9q66 0 104 -34.5t38 -95.5zM215 483q-43 0 -76 -23q9 -89 78 -89q29 0 46 15.5t17 41.5t-17 40.5t-48 14.5z" />
    <glyph glyph-name="oneeighth" unicode="&#x215b;" horiz-adv-x="964" 
d="M232 0l348 699h112l-348 -699h-112zM934 110q0 -36 -22 -63t-62 -42t-94 -15q-55 0 -94.5 13.5t-61.5 39t-22 60.5q0 33 19.5 57.5t56.5 36.5q-63 30 -63 94q0 35 20 61t57 40.5t88 14.5t88 -14t57.5 -39.5t20.5 -61.5q0 -28 -16 -49t-45 -33q73 -28 73 -100zM754 239
l30 -4q38 16 38 49q0 21 -17.5 32.5t-48.5 11.5t-48 -11.5t-17 -32.5q0 -38 63 -45zM681 118q0 -23 20 -36t55 -13t55 13t20 36q0 21 -16.5 32t-51.5 16l-33 4q-22 -6 -35.5 -19.5t-13.5 -32.5zM279 699v-397h-105v292q-27 -14 -53 -27.5t-51 -27.5v96q26 14 59 30.5
t68 33.5h82z" />
    <glyph glyph-name="threeeighths" unicode="&#x215c;" horiz-adv-x="964" 
d="M252 0l348 699h112l-348 -699h-112zM934 110q0 -36 -22 -63t-62 -42t-94 -15q-55 0 -94.5 13.5t-61.5 39t-22 60.5q0 33 19.5 57.5t56.5 36.5q-63 30 -63 94q0 35 20 61t57 40.5t88 14.5t88 -14t57.5 -39.5t20.5 -61.5q0 -28 -16 -49t-45 -33q73 -28 73 -100zM754 239
l30 -4q38 16 38 49q0 21 -17.5 32.5t-48.5 11.5t-48 -11.5t-17 -32.5q0 -38 63 -45zM681 118q0 -23 20 -36t55 -13t55 13t20 36q0 21 -16.5 32t-51.5 16l-33 4q-22 -6 -35.5 -19.5t-13.5 -32.5zM364 413q0 -37 -22.5 -64.5t-65 -42t-100.5 -14.5q-73 0 -135 25v87
q32 -14 63 -20.5t66 -6.5q42 0 64.5 11t22.5 33q0 41 -81 41h-69v82h65q40 0 59 11t19 31q0 18 -19 28t-58 10q-33 0 -62 -7t-60 -21v84q29 14 65.5 21.5t74.5 7.5q51 0 87.5 -13.5t56.5 -38t20 -58.5q0 -31 -18 -54t-52 -35q38 -11 58.5 -36t20.5 -61z" />
    <glyph glyph-name="fiveeighths" unicode="&#x215d;" horiz-adv-x="964" 
d="M247 0l348 699h112l-348 -699h-112zM934 110q0 -36 -22 -63t-62 -42t-94 -15q-55 0 -94.5 13.5t-61.5 39t-22 60.5q0 33 19.5 57.5t56.5 36.5q-63 30 -63 94q0 35 20 61t57 40.5t88 14.5t88 -14t57.5 -39.5t20.5 -61.5q0 -28 -16 -49t-45 -33q73 -28 73 -100zM754 239
l30 -4q38 16 38 49q0 21 -17.5 32.5t-48.5 11.5t-48 -11.5t-17 -32.5q0 -38 63 -45zM681 118q0 -23 20 -36t55 -13t55 13t20 36q0 21 -16.5 32t-51.5 16l-33 4q-22 -6 -35.5 -19.5t-13.5 -32.5zM368 425q0 -62 -49 -97.5t-138 -35.5q-38 0 -73.5 6t-63.5 16v86
q34 -13 65 -18.5t63 -5.5q46 0 68 13t22 37q0 23 -23 35t-72 12q-25 0 -50 -2.5t-56 -8.5l21 237h267v-89h-186l-6 -65q17 3 32 4t29 1q70 0 110 -33t40 -92z" />
    <glyph glyph-name="seveneighths" unicode="&#x215e;" horiz-adv-x="964" 
d="M222 0l348 699h112l-348 -699h-112zM934 110q0 -36 -22 -63t-62 -42t-94 -15q-55 0 -94.5 13.5t-61.5 39t-22 60.5q0 33 19.5 57.5t56.5 36.5q-63 30 -63 94q0 35 20 61t57 40.5t88 14.5t88 -14t57.5 -39.5t20.5 -61.5q0 -28 -16 -49t-45 -33q73 -28 73 -100zM754 239
l30 -4q38 16 38 49q0 21 -17.5 32.5t-48.5 11.5t-48 -11.5t-17 -32.5q0 -38 63 -45zM681 118q0 -23 20 -36t55 -13t55 13t20 36q0 21 -16.5 32t-51.5 16l-33 4q-22 -6 -35.5 -19.5t-13.5 -32.5zM363 622q-35 -78 -72 -156.5t-81 -163.5h-113q42 79 80.5 154.5t74.5 151.5
h-206v91h317v-77z" />
    <glyph glyph-name="oneninth" unicode="&#x2151;" horiz-adv-x="964" 
d="M222 0l348 699h112l-348 -699h-112zM928 217q0 -71 -26.5 -121.5t-75 -78t-116.5 -27.5q-30 0 -55 5t-51 16v85q26 -11 48 -16t50 -5q107 0 122 103q-23 -19 -48 -28t-53 -9q-43 0 -75 16t-49 45.5t-17 69.5t20.5 70.5t58 47.5t86.5 17q57 0 97.5 -22.5t62 -65
t21.5 -102.5zM685 271q0 -25 17 -40t48 -15q41 0 75 24q-9 88 -77 88q-30 0 -46.5 -15.5t-16.5 -41.5zM279 699v-397h-105v292q-27 -14 -53 -27.5t-51 -27.5v96q26 14 59 30.5t68 33.5h82z" />
    <glyph glyph-name="twoninths" unicode="&#xf50d;" horiz-adv-x="964" 
d="M257 0l348 699h112l-348 -699h-112zM928 217q0 -71 -26.5 -121.5t-75 -78t-116.5 -27.5q-30 0 -55 5t-51 16v85q26 -11 48 -16t50 -5q107 0 122 103q-23 -19 -48 -28t-53 -9q-43 0 -75 16t-49 45.5t-17 69.5t20.5 70.5t58 47.5t86.5 17q57 0 97.5 -22.5t62 -65
t21.5 -102.5zM685 271q0 -25 17 -40t48 -15q41 0 75 24q-9 88 -77 88q-30 0 -46.5 -15.5t-16.5 -41.5zM366 392v-90h-327v29q0 43 11.5 74.5t38.5 56t72 46.5q35 17 52.5 28t23.5 20.5t6 22.5q0 41 -73 41q-32 0 -61.5 -9.5t-59.5 -29.5v92q34 19 67.5 27.5t73.5 8.5
q50 0 86 -15t56 -41.5t20 -63.5q0 -31 -9.5 -53.5t-33 -41.5t-64.5 -39q-43 -21 -64 -35t-29 -28h214z" />
    <glyph glyph-name="fourninths" unicode="&#xf50e;" horiz-adv-x="964" 
d="M262 0l348 699h112l-348 -699h-112zM928 217q0 -71 -26.5 -121.5t-75 -78t-116.5 -27.5q-30 0 -55 5t-51 16v85q26 -11 48 -16t50 -5q107 0 122 103q-23 -19 -48 -28t-53 -9q-43 0 -75 16t-49 45.5t-17 69.5t20.5 70.5t58 47.5t86.5 17q57 0 97.5 -22.5t62 -65
t21.5 -102.5zM685 271q0 -25 17 -40t48 -15q41 0 75 24q-9 88 -77 88q-30 0 -46.5 -15.5t-16.5 -41.5zM26 452q50 62 101 122t108 125h108v-248h47v-79h-47v-70h-98v70h-219v80zM245 451v145q-32 -37 -62 -73t-59 -72h121z" />
    <glyph glyph-name="fiveninths" unicode="&#xf50f;" horiz-adv-x="964" 
d="M247 0l348 699h112l-348 -699h-112zM928 217q0 -71 -26.5 -121.5t-75 -78t-116.5 -27.5q-30 0 -55 5t-51 16v85q26 -11 48 -16t50 -5q107 0 122 103q-23 -19 -48 -28t-53 -9q-43 0 -75 16t-49 45.5t-17 69.5t20.5 70.5t58 47.5t86.5 17q57 0 97.5 -22.5t62 -65
t21.5 -102.5zM685 271q0 -25 17 -40t48 -15q41 0 75 24q-9 88 -77 88q-30 0 -46.5 -15.5t-16.5 -41.5zM368 425q0 -62 -49 -97.5t-138 -35.5q-38 0 -73.5 6t-63.5 16v86q34 -13 65 -18.5t63 -5.5q46 0 68 13t22 37q0 23 -23 35t-72 12q-25 0 -50 -2.5t-56 -8.5l21 237h267
v-89h-186l-6 -65q17 3 32 4t29 1q70 0 110 -33t40 -92z" />
    <glyph glyph-name="sevenninths" unicode="&#xf510;" horiz-adv-x="964" 
d="M222 0l348 699h112l-348 -699h-112zM928 217q0 -71 -26.5 -121.5t-75 -78t-116.5 -27.5q-30 0 -55 5t-51 16v85q26 -11 48 -16t50 -5q107 0 122 103q-23 -19 -48 -28t-53 -9q-43 0 -75 16t-49 45.5t-17 69.5t20.5 70.5t58 47.5t86.5 17q57 0 97.5 -22.5t62 -65
t21.5 -102.5zM685 271q0 -25 17 -40t48 -15q41 0 75 24q-9 88 -77 88q-30 0 -46.5 -15.5t-16.5 -41.5zM363 622q-35 -78 -72 -156.5t-81 -163.5h-113q42 79 80.5 154.5t74.5 151.5h-206v91h317v-77z" />
    <glyph glyph-name="eightninths" unicode="&#xf511;" horiz-adv-x="964" 
d="M257 0l348 699h112l-348 -699h-112zM928 217q0 -71 -26.5 -121.5t-75 -78t-116.5 -27.5q-30 0 -55 5t-51 16v85q26 -11 48 -16t50 -5q107 0 122 103q-23 -19 -48 -28t-53 -9q-43 0 -75 16t-49 45.5t-17 69.5t20.5 70.5t58 47.5t86.5 17q57 0 97.5 -22.5t62 -65
t21.5 -102.5zM685 271q0 -25 17 -40t48 -15q41 0 75 24q-9 88 -77 88q-30 0 -46.5 -15.5t-16.5 -41.5zM384 412q0 -36 -22 -63t-62 -42t-94 -15q-55 0 -94.5 13.5t-61.5 39t-22 60.5q0 33 19.5 57.5t56.5 36.5q-63 30 -63 94q0 35 20 61t57 40.5t88 14.5t88 -14t57.5 -39.5
t20.5 -61.5q0 -28 -16 -49t-45 -33q73 -28 73 -100zM204 541l30 -4q38 16 38 49q0 21 -17.5 32.5t-48.5 11.5t-48 -11.5t-17 -32.5q0 -38 63 -45zM131 420q0 -23 20 -36t55 -13t55 13t20 36q0 21 -16.5 32t-51.5 16l-33 4q-22 -6 -35.5 -19.5t-13.5 -32.5z" />
    <glyph glyph-name="percent.smcp" unicode="&#xf69e;" horiz-adv-x="829" 
d="M178 557q71 0 109.5 -42.5t38.5 -121.5q0 -78 -38.5 -120.5t-109.5 -42.5t-109.5 42.5t-38.5 120.5q0 79 38.5 121.5t109.5 42.5zM223 0l274 549h109l-274 -549h-109zM178 309q24 0 35 20.5t11 63.5q0 44 -11 64.5t-35 20.5t-35 -20.5t-11 -64.5q0 -43 11 -63.5t35 -20.5
zM651 319q71 0 109.5 -42.5t38.5 -121.5q0 -78 -38.5 -120.5t-109.5 -42.5t-109.5 42.5t-38.5 120.5q0 79 38.5 121.5t109.5 42.5zM651 71q24 0 35 20.5t11 63.5q0 44 -11 64.5t-35 20.5t-35 -20.5t-11 -64.5q0 -43 11 -63.5t35 -20.5z" />
    <glyph glyph-name="perthousand.smcp" unicode="&#xf69f;" horiz-adv-x="1185" 
d="M178 557q71 0 109.5 -42.5t38.5 -121.5q0 -78 -38.5 -120.5t-109.5 -42.5t-109.5 42.5t-38.5 120.5q0 79 38.5 121.5t109.5 42.5zM223 0l274 549h109l-274 -549h-109zM178 309q24 0 35 20.5t11 63.5q0 44 -11 64.5t-35 20.5t-35 -20.5t-11 -64.5q0 -43 11 -63.5t35 -20.5
zM651 319q71 0 109.5 -42.5t38.5 -121.5q0 -78 -38.5 -120.5t-109.5 -42.5t-109.5 42.5t-38.5 120.5q0 79 38.5 121.5t109.5 42.5zM1007 319q71 0 109.5 -42.5t38.5 -121.5q0 -78 -38.5 -120.5t-109.5 -42.5t-109.5 42.5t-38.5 120.5q0 79 38.5 121.5t109.5 42.5zM651 71
q24 0 35 20.5t11 63.5q0 44 -11 64.5t-35 20.5t-35 -20.5t-11 -64.5q0 -43 11 -63.5t35 -20.5zM1007 71q24 0 35 20.5t11 63.5q0 44 -11 64.5t-35 20.5t-35 -20.5t-11 -64.5q0 -43 11 -63.5t35 -20.5z" />
    <glyph glyph-name="dollar" unicode="$" 
d="M558 206q0 -88 -54.5 -143t-153.5 -70v-105h-92v100q-55 3 -106.5 16t-90.5 36v130q49 -30 96 -45t101 -17v189q-73 20 -117 47.5t-64.5 65.5t-20.5 91q0 85 53 138.5t149 67.5v99h92v-95q46 -2 90 -13.5t84 -32.5v-128q-38 24 -81 38t-93 16v-178q75 -20 121 -47
t66.5 -66t20.5 -94zM199 510q0 -27 12.5 -42t46.5 -27v142q-59 -18 -59 -73zM413 195q0 29 -14 45.5t-49 28.5v-151q63 19 63 77z" />
    <glyph glyph-name="cent" unicode="&#xa2;" 
d="M350 78q-18 0 -34 1l-26 -115h-97l30 134q-76 28 -117 92.5t-41 159.5q0 81 33.5 141t95.5 94t146 37l26 114h97l-27 -122q36 -8 69 -23v-126q-21 14 -45 23t-50 12l-67 -302q12 -1 26 -1q39 0 74 9t69 30v-123q-34 -17 -75.5 -26t-86.5 -9zM215 350q0 -73 39 -113
l58 258q-48 -13 -72.5 -50t-24.5 -95z" />
    <glyph glyph-name="sterling" unicode="&#xa3;" 
d="M562 128v-128h-501v107q91 37 91 138q0 16 -1.5 30.5t-4.5 28.5h-105v94h78q-6 23 -10.5 47t-4.5 52q0 67 31.5 115t90 74t139.5 26q47 0 92 -10t85 -30v-131q-34 22 -74.5 33.5t-84.5 11.5q-63 0 -97 -28t-34 -83q0 -21 3 -40t8 -37h184v-94h-159q2 -10 3 -21t1 -22
q0 -43 -17 -77t-51 -56h338z" />
    <glyph glyph-name="yen" unicode="&#xa5;" 
d="M540 109h-168v-109h-147v109h-168v88h168v74h-168v88h112q-34 56 -68.5 115t-67.5 116t-62 109h163q23 -46 50.5 -99t57 -108.5t59.5 -108.5q29 53 58 108.5t56.5 108t50.5 99.5h159q-29 -51 -61.5 -108.5t-66.5 -116.5t-68 -115h111v-88h-168v-74h168v-88z" />
    <glyph glyph-name="Euro" unicode="&#x20ac;" 
d="M574 28q-38 -21 -83 -31t-94 -10q-80 0 -141 28t-102 81t-59 129h-87v88h74q-1 18 -1 37t1 37h-74v88h88q20 74 62 127t104 81.5t140 28.5q91 0 164 -38v-128q-35 22 -71 32t-77 10q-61 0 -103 -29t-62 -84h247v-88h-266q-1 -18 -1 -37t1 -37h204v-88h-187q20 -56 61 -85
t102 -29q45 0 83.5 10.5t76.5 32.5v-126z" />
    <glyph glyph-name="liraturkish" unicode="&#x20ba;" 
d="M576 314q0 -98 -41 -168t-117.5 -108t-182.5 -38h-161v210l-73 -35v98l73 35v82l-73 -35v98l73 35v211h147v-140l173 84v-98l-173 -84v-82l173 84v-98l-173 -84v-156h25q58 0 99 22.5t62.5 65t21.5 101.5h147z" />
    <glyph glyph-name="ruble" unicode="&#x20bd;" 
d="M399 107h-172v-107h-147v107h-73v88h73v74h-73v94h73v336h234q128 0 196 -55.5t68 -160.5q0 -103 -68.5 -158.5t-195.5 -55.5h-87v-74h172v-88zM227 584v-221h79q62 0 92 27.5t30 82.5t-30 83t-92 28h-79z" />
    <glyph glyph-name="currency" unicode="&#xa4;" 
d="M589 93l-77 -63l-92 103q-27 -13 -57.5 -20t-64.5 -7t-64.5 7t-57.5 20l-92 -103l-77 63l94 101q-24 30 -37 69.5t-13 86.5t13 86t36 69l-93 100l77 63l92 -102q54 26 122 26t122 -26l92 102l77 -63l-93 -101q24 -30 36.5 -69t12.5 -85q0 -47 -13 -86t-37 -70zM298 225
q36 0 62 15.5t40.5 43.5t14.5 66t-14.5 65.5t-40.5 42.5t-62 15t-62 -15t-40.5 -42.5t-14.5 -65.5t14.5 -66t40.5 -43.5t62 -15.5z" />
    <glyph glyph-name="dollar.smcp" unicode="&#xf639;" horiz-adv-x="550" 
d="M504 165q0 -70 -48.5 -115t-136.5 -57v-94h-81v89q-99 2 -176 43v121q43 -26 85.5 -38.5t90.5 -13.5v121q-65 15 -104.5 37.5t-57.5 54t-18 75.5q0 70 47.5 115t132.5 56v85h81v-83q88 -5 156 -39v-119q-70 44 -156 47v-120q67 -16 107.5 -37.5t59 -53t18.5 -74.5z
M200 397q0 -16 9 -26.5t29 -18.5v90q-38 -13 -38 -45zM358 154q0 17 -8.5 28t-30.5 18v-91q39 13 39 45z" />
    <glyph glyph-name="cent.smcp" unicode="&#xf63a;" horiz-adv-x="550" 
d="M322 53q-12 0 -24 1l-23 -97h-87l26 111q-70 22 -108 74t-38 130q0 66 30 114.5t85.5 76t130.5 30.5l23 96h87l-24 -103q30 -6 58 -18v-113q-19 11 -39.5 18.5t-42.5 10.5l-53 -224h14q35 0 65.5 7.5t61.5 24.5v-110q-61 -29 -142 -29zM206 272q0 -54 36 -84l46 191
q-40 -11 -61 -38.5t-21 -68.5z" />
    <glyph glyph-name="sterling.smcp" unicode="&#xf63b;" horiz-adv-x="550" 
d="M516 113v-113h-457v95q77 26 77 98q0 12 -1 22.5t-4 20.5h-89v78h67q-5 17 -8.5 35t-3.5 39q0 54 27.5 93t79.5 60t124 21q45 0 88.5 -9t81.5 -26v-118q-33 19 -70 29t-75 10q-59 0 -87.5 -21t-28.5 -61q0 -14 2 -27t5 -25h166v-78h-146q1 -7 1.5 -14t0.5 -14
q0 -31 -12.5 -55t-37.5 -40h300z" />
    <glyph glyph-name="yen.smcp" unicode="&#xf63c;" horiz-adv-x="550" 
d="M476 71h-131v-71h-140v71h-131v74h131v54h-131v74h89q-43 67 -85 135.5t-83 140.5h151q18 -34 39.5 -73.5t45 -81t46.5 -80.5q23 39 46.5 80.5t45 81t38.5 73.5h148q-41 -70 -82.5 -139t-86.5 -137h90v-74h-131v-54h131v-74z" />
    <glyph glyph-name="Euro.smcp" horiz-adv-x="550" 
d="M530 21q-69 -34 -160 -34q-107 0 -176.5 48.5t-93.5 138.5h-75v74h63q-1 13 -1 26q0 14 1 28h-63v74h76q18 58 56 99.5t93 64t125 22.5q83 0 147 -32v-117q-32 19 -63 28t-67 9q-52 0 -87.5 -19t-54.5 -55h207v-74h-227q-1 -13 -1 -28q0 -14 1 -26h178v-74h-160
q37 -75 140 -75q39 0 73.5 8.5t68.5 28.5v-115z" />
    <glyph glyph-name="liraturkish.smcp" horiz-adv-x="550" 
d="M530 256q0 -80 -36.5 -137t-104 -88t-160.5 -31h-150v162l-63 -30v82l63 30v64l-63 -30v82l63 30v159h141v-93l146 68v-82l-146 -68v-64l146 68v-82l-146 -68v-110h21q71 0 109.5 36t38.5 102h141z" />
    <glyph glyph-name="ruble.smcp" horiz-adv-x="550" 
d="M361 79h-133v-79h-141v79h-63v74h63v54h-63v87h63v255h211q112 0 172 -44.5t60 -126.5t-60 -126.5t-172 -44.5h-70v-54h133v-74zM228 441v-147h63q49 0 72 18t23 56q0 36 -23 54.5t-72 18.5h-63z" />
    <glyph glyph-name="currency.smcp" horiz-adv-x="550" 
d="M517 75l-73 -61l-76 83q-42 -18 -93 -18t-93 18l-76 -83l-73 61l74 78q-18 24 -28.5 54.5t-10.5 66.5t10 66.5t29 54.5l-74 77l73 61l76 -82q42 17 93 17t94 -17l75 82l73 -61l-74 -77q19 -24 29 -54.5t10 -66.5t-10.5 -66.5t-28.5 -54.5zM275 188q38 0 60 24t22 62
t-22 61.5t-60 23.5t-60 -23.5t-22 -61.5t22 -62t60 -24z" />
    <glyph glyph-name="asciicircum" unicode="^" 
d="M424 306l-128 257l-127 -257h-130l207 399h104l207 -399h-133z" />
    <glyph glyph-name="plus" unicode="+" 
d="M235 113v177h-169v120h169v177h126v-177h169v-120h-169v-177h-126z" />
    <glyph glyph-name="minus" unicode="&#x2212;" 
d="M66 290v120h464v-120h-464z" />
    <glyph glyph-name="plusminus" unicode="&#xb1;" 
d="M66 0v120h464v-120h-464zM235 174v177h-169v120h169v177h126v-177h169v-120h-169v-177h-126z" />
    <glyph glyph-name="equal" unicode="=" 
d="M66 174v120h464v-120h-464zM66 406v120h464v-120h-464z" />
    <glyph glyph-name="divide" unicode="&#xf7;" 
d="M298 474q-38 0 -60.5 22.5t-22.5 56.5t22.5 56.5t60.5 22.5t60.5 -22.5t22.5 -56.5t-22.5 -56.5t-60.5 -22.5zM66 290v120h464v-120h-464zM298 68q-38 0 -60.5 22.5t-22.5 56.5t22.5 56.5t60.5 22.5t60.5 -22.5t22.5 -56.5t-22.5 -56.5t-60.5 -22.5z" />
    <glyph glyph-name="less" unicode="&#x3c;" 
d="M530 225v-130l-464 203v104l464 203v-129l-308 -125z" />
    <glyph glyph-name="greater" unicode="&#x3e;" 
d="M530 298l-464 -203v130l308 126l-308 125v129l464 -203v-104z" />
    <glyph glyph-name="asciitilde" unicode="~" 
d="M318 406q24 -16 38.5 -25t25 -12.5t20.5 -3.5q25 0 36.5 20.5t12.5 67.5h97q0 -103 -35.5 -155.5t-104.5 -52.5q-20 0 -40 4.5t-41.5 15.5t-48.5 30q-24 17 -38.5 25.5t-25 12t-20.5 3.5q-25 0 -36.5 -21t-12.5 -67h-97q0 103 35.5 155.5t104.5 52.5q20 0 40 -4.5
t41.5 -15.5t48.5 -30z" />
    <glyph glyph-name="multiply" unicode="&#xd7;" 
d="M538 194l-83 -84l-157 157l-157 -157l-83 84l156 156l-156 157l83 84l157 -157l157 157l83 -84l-156 -157z" />
    <glyph glyph-name="underscore" unicode="_" horiz-adv-x="500" 
d="M0 -165v114h500v-114h-500z" />
    <glyph glyph-name="section" unicode="&#xa7;" horiz-adv-x="545" 
d="M484 -3q0 -55 -28 -93t-80 -58.5t-125 -20.5q-104 0 -188 38v116q38 -23 83.5 -35.5t91.5 -12.5q101 0 101 60q0 15 -6.5 26.5t-22.5 22t-43 23.5l-84 38q-54 25 -85.5 48t-45.5 50t-14 65q0 51 32 91t92 65q-35 21 -56 42.5t-30 46.5t-9 57q0 51 27 87.5t76.5 56.5
t116.5 20q49 0 91.5 -9.5t78.5 -27.5v-116q-31 23 -71.5 35t-82.5 12q-45 0 -69 -14.5t-24 -40.5q0 -15 6.5 -26t22 -21.5t43.5 -23.5l84 -38q54 -24 85 -47t44.5 -50t13.5 -64q0 -53 -30 -94t-85 -68q33 -19 53 -40t28.5 -45t8.5 -55zM248 206l68 -31q28 17 45 42.5
t17 54.5q0 27 -17 45.5t-61 37.5l-61 28q-32 -15 -51 -39t-19 -52q0 -19 7 -33t24 -26.5t48 -26.5z" />
    <glyph glyph-name="degree" unicode="&#xb0;" horiz-adv-x="454" 
d="M227 712q57 0 99.5 -23t66 -63.5t23.5 -94.5q0 -55 -23.5 -96.5t-66 -65t-99.5 -23.5t-99.5 23.5t-66 65t-23.5 96.5q0 54 23.5 94.5t66 63.5t99.5 23zM227 437q40 0 62.5 25.5t22.5 68.5q0 41 -22.5 65.5t-62.5 24.5t-62.5 -24.5t-22.5 -65.5q0 -43 22.5 -68.5
t62.5 -25.5z" />
    <glyph glyph-name="paragraph" unicode="&#xb6;" horiz-adv-x="707" 
d="M271 -150v446q-113 0 -174.5 54.5t-61.5 155.5t65.5 155t190.5 54h340v-865h-133v752h-94v-752h-133z" />
    <glyph glyph-name="numbersign" unicode="#" 
d="M306 0l27 170h-126l-27 -170h-108l27 170h-84v98h100l26 166h-96v98h111l27 167h108l-27 -167h126l27 167h108l-27 -167h83v-98h-98l-26 -166h94v-98h-110l-27 -170h-108zM223 268h126l26 166h-126z" />
    <glyph glyph-name="bar" unicode="|" horiz-adv-x="310" 
d="M82 -226v983h146v-983h-146z" />
    <glyph glyph-name="brokenbar" unicode="&#xa6;" horiz-adv-x="310" 
d="M82 365v392h146v-392h-146zM82 -226v411h146v-411h-146z" />
    <glyph glyph-name="dagger" unicode="&#x2020;" horiz-adv-x="502" 
d="M176 -100l11 524l-164 -5v121l164 -5l-11 210h150l-11 -210l164 5v-121l-164 5l11 -524h-150z" />
    <glyph glyph-name="daggerdbl" unicode="&#x2021;" horiz-adv-x="502" 
d="M326 322l-11 -113l163 5v-121l-163 5l11 -198h-150l11 198l-164 -5v121l164 -5l-11 113l11 114l-164 -5v121l164 -5l-11 198h150l-11 -198l164 5v-121l-164 5z" />
    <glyph glyph-name="logicalnot" unicode="&#xac;" 
d="M404 163v177h-338v120h464v-297h-126z" />
    <glyph glyph-name="ampersand" unicode="&#x26;" horiz-adv-x="758" 
d="M546 0q-22 20 -42 40q-42 -26 -93.5 -39.5t-110.5 -13.5q-80 0 -139.5 24t-91.5 69t-32 108q0 59 35 105t109 87q-25 31 -40 58t-22 53.5t-7 55.5q0 53 26 94t73 63.5t108 22.5q59 0 103.5 -21.5t69 -60t24.5 -88.5q0 -59 -37.5 -105.5t-119.5 -89.5q32 -34 69.5 -72
t80.5 -80q34 63 37 159h130q-2 -74 -22.5 -136t-56.5 -110q30 -29 62 -59.5t67 -63.5h-180zM240 546q0 -18 4 -33.5t15.5 -34t33.5 -44.5q50 24 72.5 49.5t22.5 61.5q0 35 -19.5 55t-52.5 20q-34 0 -55 -20.5t-21 -53.5zM186 201q0 -47 34 -73t94 -26q59 0 105 22
q-57 56 -98 100t-73 79q-35 -21 -48.5 -44.5t-13.5 -57.5z" />
    <glyph glyph-name="asterisk" unicode="*" horiz-adv-x="428" 
d="M369 412l-79 -55l-76 114l-75 -114l-79 55l86 103l-116 30l33 92l110 -46l-10 124h102l-9 -123l110 45l32 -92l-115 -30z" />
    <glyph glyph-name="hyphen" unicode="-" horiz-adv-x="386" 
d="M40 217v121h306v-121h-306z" />
    <glyph glyph-name="endash" unicode="&#x2013;" horiz-adv-x="500" 
d="M0 217v121h500v-121h-500z" />
    <glyph glyph-name="emdash" unicode="&#x2014;" horiz-adv-x="1000" 
d="M0 217v121h1000v-121h-1000z" />
    <glyph glyph-name="parenleft" unicode="(" horiz-adv-x="355" 
d="M203 297q0 -85 16 -166t45.5 -155.5t72.5 -138.5h-153q-44 67 -74.5 142t-47 155.5t-16.5 162.5q0 83 16.5 163t47 155.5t74.5 142.5h153q-43 -64 -72.5 -138.5t-45.5 -156t-16 -166.5z" />
    <glyph glyph-name="parenright" unicode=")" horiz-adv-x="355" 
d="M152 297q0 85 -16 166.5t-46 156t-72 138.5h153q43 -67 74 -142.5t47.5 -155.5t16.5 -163q0 -82 -16.5 -162.5t-47.5 -155.5t-74 -142h-153q42 64 72 138.5t46 155.5t16 166z" />
    <glyph glyph-name="slash" unicode="/" horiz-adv-x="516" 
d="M14 -163l339 921h149l-339 -921h-149z" />
    <glyph glyph-name="backslash" unicode="\" horiz-adv-x="516" 
d="M353 -163l-339 921h149l339 -921h-149z" />
    <glyph glyph-name="bracketleft" unicode="[" horiz-adv-x="355" 
d="M77 -163v921h260v-119h-112v-683h112v-119h-260z" />
    <glyph glyph-name="bracketright" unicode="]" horiz-adv-x="355" 
d="M18 -163v119h112v683h-112v119h260v-921h-260z" />
    <glyph glyph-name="braceleft" unicode="{" horiz-adv-x="358" 
d="M340 -44v-119h-78q-53 0 -91.5 20t-59 57.5t-20.5 88.5q0 33 3.5 58.5t7.5 48t4 46.5q0 44 -19 64.5t-63 20.5v113q44 0 63 20.5t19 64.5q0 23 -4 46t-7.5 49t-3.5 58q0 52 20.5 89t59 57t91.5 20h78v-119h-31q-39 0 -57.5 -21t-18.5 -60q0 -30 3.5 -56t7.5 -50t4 -47
q0 -41 -24 -69t-67 -38q43 -11 67 -39t24 -69q0 -24 -4 -47.5t-7.5 -49.5t-3.5 -56q0 -39 18.5 -60t57.5 -21h31z" />
    <glyph glyph-name="braceright" unicode="}" horiz-adv-x="358" 
d="M267 3q0 -51 -20.5 -88.5t-59 -57.5t-91.5 -20h-78v119h31q39 0 57.5 21t18.5 60q0 30 -3.5 56t-7.5 49.5t-4 47.5q0 41 24 68.5t67 38.5q-43 11 -67 39t-24 69q0 23 4 47t7.5 50t3.5 56q0 39 -18.5 60t-57.5 21h-31v119h78q53 0 91.5 -20t59 -57t20.5 -89
q0 -32 -3.5 -58t-7.5 -49t-4 -46q0 -44 19 -64.5t63 -20.5v-113q-44 0 -63 -20.5t-19 -64.5q0 -24 4 -46.5t7.5 -48t3.5 -58.5z" />
    <glyph glyph-name="bullet" unicode="&#x2022;" horiz-adv-x="384" 
d="M192 132q-42 0 -75 19t-52 52t-19 75q0 41 19 74t52 52t75 19t75 -19t52 -52t19 -74q0 -42 -19 -75t-52 -52t-75 -19z" />
    <glyph glyph-name="guilsinglleft" unicode="&#x2039;" horiz-adv-x="372" 
d="M328 472l-133 -210l133 -210h-150l-138 210l138 210h150z" />
    <glyph glyph-name="guilsinglright" unicode="&#x203a;" horiz-adv-x="372" 
d="M332 262l-138 -210h-150l133 210l-133 210h150z" />
    <glyph glyph-name="guillemotleft" unicode="&#xab;" horiz-adv-x="629" 
d="M328 472l-133 -210l133 -210h-150l-138 210l138 210h150zM585 472l-133 -210l133 -210h-150l-138 210l138 210h150z" />
    <glyph glyph-name="guillemotright" unicode="&#xbb;" horiz-adv-x="629" 
d="M332 262l-138 -210h-150l133 210l-133 210h150zM589 262l-138 -210h-150l133 210l-133 210h150z" />
    <glyph glyph-name="at" unicode="@" horiz-adv-x="984" 
d="M739 -171q-44 -19 -85.5 -31.5t-86 -18t-95.5 -5.5q-137 0 -234 47.5t-148 137t-51 214.5q0 93 24.5 174.5t70 147t110 112.5t144.5 72.5t172 25.5q85 0 155.5 -25.5t121.5 -72t78.5 -110.5t27.5 -142q0 -77 -18.5 -139.5t-52.5 -108.5t-81.5 -70.5t-105.5 -24.5
q-57 0 -91 26.5t-37 73.5q-30 -48 -70.5 -74t-85.5 -26q-62 0 -94 41t-32 119q0 50 14 95t39 82.5t59 65t75 42.5t87 15t89 -13t80 -37l-48 -225q-2 -11 -3.5 -21t-1.5 -20q0 -26 10 -37.5t32 -11.5q41 0 72 31t48.5 86.5t17.5 128.5q0 60 -20.5 108t-59 82t-92.5 52.5
t-122 18.5q-72 0 -135 -21t-114 -60.5t-88 -94t-56.5 -121.5t-19.5 -144q0 -98 39 -167t113.5 -105t181.5 -36q150 0 267 57v-93zM402 177q0 -63 42 -63q27 0 54 24t51 69l32 153q-18 9 -41 9q-29 0 -54 -14.5t-44 -41t-29.5 -61t-10.5 -75.5z" />
    <glyph glyph-name="hyphen.case" horiz-adv-x="386" 
d="M40 304v121h306v-121h-306z" />
    <glyph glyph-name="endash.case" horiz-adv-x="500" 
d="M0 304v121h500v-121h-500z" />
    <glyph glyph-name="emdash.case" horiz-adv-x="1000" 
d="M0 304v121h1000v-121h-1000z" />
    <glyph glyph-name="parenleft.case" horiz-adv-x="355" 
d="M203 357q0 -85 16 -166t45.5 -155.5t72.5 -138.5h-153q-44 67 -74.5 142t-47 155.5t-16.5 162.5q0 83 16.5 163t47 155.5t74.5 142.5h153q-43 -64 -72.5 -138.5t-45.5 -156t-16 -166.5z" />
    <glyph glyph-name="parenright.case" horiz-adv-x="355" 
d="M152 357q0 85 -16 166.5t-46 156t-72 138.5h153q43 -67 74 -142.5t47.5 -155.5t16.5 -163q0 -82 -16.5 -162.5t-47.5 -155.5t-74 -142h-153q42 64 72 138.5t46 155.5t16 166z" />
    <glyph glyph-name="slash.case" horiz-adv-x="516" 
d="M14 -103l339 921h149l-339 -921h-149z" />
    <glyph glyph-name="backslash.case" horiz-adv-x="516" 
d="M353 -103l-339 921h149l339 -921h-149z" />
    <glyph glyph-name="bracketleft.case" horiz-adv-x="355" 
d="M77 -103v921h260v-119h-112v-683h112v-119h-260z" />
    <glyph glyph-name="bracketright.case" horiz-adv-x="355" 
d="M18 -103v119h112v683h-112v119h260v-921h-260z" />
    <glyph glyph-name="braceleft.case" horiz-adv-x="358" 
d="M340 16v-119h-78q-53 0 -91.5 20t-59 57.5t-20.5 88.5q0 33 3.5 58.5t7.5 48t4 46.5q0 44 -19 64.5t-63 20.5v113q44 0 63 20.5t19 64.5q0 23 -4 46t-7.5 49t-3.5 58q0 52 20.5 89t59 57t91.5 20h78v-119h-31q-39 0 -57.5 -21t-18.5 -60q0 -30 3.5 -56t7.5 -50t4 -47
q0 -41 -24 -69t-67 -38q43 -11 67 -39t24 -69q0 -24 -4 -47.5t-7.5 -49.5t-3.5 -56q0 -39 18.5 -60t57.5 -21h31z" />
    <glyph glyph-name="braceright.case" horiz-adv-x="358" 
d="M267 63q0 -51 -20.5 -88.5t-59 -57.5t-91.5 -20h-78v119h31q39 0 57.5 21t18.5 60q0 30 -3.5 56t-7.5 49.5t-4 47.5q0 41 24 68.5t67 38.5q-43 11 -67 39t-24 69q0 23 4 47t7.5 50t3.5 56q0 39 -18.5 60t-57.5 21h-31v119h78q53 0 91.5 -20t59 -57t20.5 -89
q0 -32 -3.5 -58t-7.5 -49t-4 -46q0 -44 19 -64.5t63 -20.5v-113q-44 0 -63 -20.5t-19 -64.5q0 -24 4 -46.5t7.5 -48t3.5 -58.5z" />
    <glyph glyph-name="bullet.case" horiz-adv-x="384" 
d="M192 219q-42 0 -75 19t-52 52t-19 75q0 41 19 74t52 52t75 19t75 -19t52 -52t19 -74q0 -42 -19 -75t-52 -52t-75 -19z" />
    <glyph glyph-name="guilsinglleft.case" horiz-adv-x="372" 
d="M328 559l-133 -210l133 -210h-150l-138 210l138 210h150z" />
    <glyph glyph-name="guilsinglright.case" horiz-adv-x="372" 
d="M332 349l-138 -210h-150l133 210l-133 210h150z" />
    <glyph glyph-name="guillemotleft.case" horiz-adv-x="629" 
d="M328 559l-133 -210l133 -210h-150l-138 210l138 210h150zM585 559l-133 -210l133 -210h-150l-138 210l138 210h150z" />
    <glyph glyph-name="guillemotright.case" horiz-adv-x="629" 
d="M332 349l-138 -210h-150l133 210l-133 210h150zM589 349l-138 -210h-150l133 210l-133 210h150z" />
    <glyph glyph-name="at.case" horiz-adv-x="984" 
d="M739 -53q-44 -19 -85.5 -31.5t-86 -18t-95.5 -5.5q-137 0 -234 47.5t-148 137t-51 214.5q0 93 24.5 174.5t70 147t110 112.5t144.5 72.5t172 25.5q85 0 155.5 -25.5t121.5 -72t78.5 -110.5t27.5 -142q0 -77 -18.5 -139.5t-52.5 -108.5t-81.5 -70.5t-105.5 -24.5
q-57 0 -91 26.5t-37 73.5q-30 -48 -70.5 -74t-85.5 -26q-62 0 -94 41t-32 119q0 50 14 95t39 82.5t59 65t75 42.5t87 15t89 -13t80 -37l-48 -225q-2 -11 -3.5 -21t-1.5 -20q0 -26 10 -37.5t32 -11.5q41 0 72 31t48.5 86.5t17.5 128.5q0 60 -20.5 108t-59 82t-92.5 52.5
t-122 18.5q-72 0 -135 -21t-114 -60.5t-88 -94t-56.5 -121.5t-19.5 -144q0 -98 39 -167t113.5 -105t181.5 -36q150 0 267 57v-93zM402 295q0 -63 42 -63q27 0 54 24t51 69l32 153q-18 9 -41 9q-29 0 -54 -14.5t-44 -41t-29.5 -61t-10.5 -75.5z" />
    <glyph glyph-name="parenleft.smcp" unicode="&#xf6a3;" horiz-adv-x="325" 
d="M159 -80q-35 52 -61.5 111t-41 122t-14.5 126q0 65 14.5 128.5t41 122.5t61.5 111h149q-55 -77 -83.5 -170t-28.5 -192q0 -97 28.5 -189t83.5 -170h-149z" />
    <glyph glyph-name="parenright.smcp" unicode="&#xf6a4;" horiz-adv-x="325" 
d="M17 -80q55 78 83.5 170t28.5 189q0 99 -28.5 192t-83.5 170h149q36 -52 62 -111t40.5 -122.5t14.5 -128.5q0 -63 -14.5 -126t-40.5 -122t-62 -111h-149z" />
    <glyph glyph-name="slash.smcp" unicode="&#xf6a0;" horiz-adv-x="443" 
d="M13 -80l271 721h146l-271 -721h-146z" />
    <glyph glyph-name="backslash.smcp" unicode="&#xf6a1;" horiz-adv-x="443" 
d="M284 -80l-271 721h146l271 -721h-146z" />
    <glyph glyph-name="bracketleft.smcp" unicode="&#xf6a7;" horiz-adv-x="334" 
d="M71 -80v721h246v-112h-104v-497h104v-112h-246z" />
    <glyph glyph-name="bracketright.smcp" unicode="&#xf6a8;" horiz-adv-x="334" 
d="M17 -80v112h104v497h-104v112h246v-721h-246z" />
    <glyph glyph-name="braceleft.smcp" unicode="&#xf6a5;" horiz-adv-x="321" 
d="M304 32v-112h-45q-181 0 -181 129q0 23 3 43t5.5 38t2.5 39q0 31 -16.5 44.5t-50.5 13.5v107q34 0 50.5 13.5t16.5 44.5q0 20 -2.5 39t-5.5 38t-3 43q0 129 181 129h45v-112h-23q-33 0 -47 -13t-14 -43q0 -27 5 -51.5t5 -51.5q0 -34 -20 -57.5t-57 -32.5q37 -8 57 -31.5
t20 -57.5q0 -27 -5 -51.5t-5 -51.5q0 -30 14 -43t47 -13h23z" />
    <glyph glyph-name="braceright.smcp" unicode="&#xf6a6;" horiz-adv-x="321" 
d="M243 49q0 -129 -181 -129h-45v112h23q33 0 47 13t14 43q0 27 -5 51.5t-5 51.5q0 34 20 57t57 32q-37 9 -57 32.5t-20 57.5q0 27 5 51.5t5 51.5q0 30 -14 43t-47 13h-23v112h45q181 0 181 -129q0 -24 -2.5 -43t-5.5 -38t-3 -39q0 -31 16 -44.5t51 -13.5v-107
q-35 0 -51 -13.5t-16 -44.5q0 -21 3 -39t5.5 -38t2.5 -43z" />
    <glyph glyph-name="ampersand.smcp" unicode="&#xf62c;" horiz-adv-x="675" 
d="M474 0q-16 14 -30 27q-37 -20 -81.5 -30t-94.5 -10q-73 0 -125.5 19.5t-80.5 55.5t-28 87q0 49 32.5 88t92.5 64q-34 37 -47 66.5t-13 62.5q0 42 23.5 74t65.5 50t97 18q53 0 92.5 -17t62 -48t22.5 -71q0 -48 -31 -84t-99 -69q26 -24 55 -51.5t60 -55.5q25 46 28 112h126
q-2 -56 -19.5 -104t-48.5 -86q60 -53 112 -98h-171zM224 425q0 -13 3.5 -23.5t13.5 -23t29 -32.5q35 15 51 34t16 45q0 24 -14.5 38.5t-39.5 14.5q-26 0 -42.5 -15t-16.5 -38zM173 161q0 -35 28.5 -54.5t78.5 -19.5q46 0 82 14q-36 33 -70 66t-70 69q-27 -14 -38 -32
t-11 -43z" />
    <glyph glyph-name="asterisk.smcp" unicode="&#xf6a9;" horiz-adv-x="369" 
d="M317 311l-71 -53l-62 91l-61 -91l-72 53l69 79l-93 23l29 85l90 -37l-9 100h95l-9 -100l90 37l29 -85l-94 -23z" />
    <glyph glyph-name="at.smcp" unicode="&#xf6a2;" horiz-adv-x="809" 
d="M604 -44q-52 -21 -101.5 -30.5t-109.5 -9.5q-113 0 -193 37.5t-122 108t-42 168.5q0 73 20 136.5t57 115t89 88t117 56t139 19.5q70 0 127.5 -20.5t99.5 -57.5t65 -88t23 -113q0 -60 -15.5 -109t-44.5 -84.5t-69 -54.5t-89 -19q-44 0 -70 21t-29 58q-24 -38 -56 -58.5
t-67 -20.5q-50 0 -76.5 32.5t-26.5 96.5q0 49 17 92t47.5 75.5t70.5 51t86 18.5q36 0 70.5 -10t65.5 -30l-37 -174q-2 -11 -3.5 -18.5t-1.5 -13.5q0 -21 7.5 -31t23.5 -10q30 0 53 23.5t36 65t13 97.5q0 60 -28 104t-79 68t-120 24q-70 0 -128 -24.5t-101 -69t-66.5 -105
t-23.5 -132.5q0 -73 30.5 -124t89 -78t141.5 -27q59 0 112 11t99 31v-86zM335 232q0 -48 32 -48q21 0 41.5 17t38.5 50l26 122q-15 5 -30 5q-30 0 -54.5 -19.5t-39 -52.5t-14.5 -74z" />
    <glyph glyph-name="A" unicode="A" horiz-adv-x="750" 
d="M570 0q-26 79 -52 155h-290q-26 -77 -52 -155h-165q68 188 138.5 367t142.5 348h166q74 -178 144.5 -357.5t136.5 -357.5h-169zM272 283h201q-24 70 -49.5 139.5t-50.5 136.5q-52 -137 -101 -276z" />
    <glyph glyph-name="B" unicode="B" horiz-adv-x="687" 
d="M647 206q0 -64 -33.5 -110t-95.5 -71t-149 -25h-293v715h276q122 0 189 -47.5t67 -136.5q0 -51 -24 -88.5t-71 -59.5q65 -21 99.5 -66.5t34.5 -110.5zM225 421h113q58 0 88.5 24.5t30.5 68.5q0 85 -119 85h-113v-178zM225 116h130q67 0 103 24.5t36 70.5q0 98 -137 98
h-132v-193z" />
    <glyph glyph-name="C" unicode="C" horiz-adv-x="669" 
d="M411 -15q-85 0 -153 25.5t-115 73.5t-72 117.5t-25 156.5q0 85 26 153.5t75 117.5t117.5 75t153.5 26q59 0 111.5 -12.5t97.5 -36.5v-142q-41 28 -89 42.5t-101 14.5q-73 0 -124.5 -28t-79 -81t-27.5 -129t26.5 -129.5t77 -81.5t122.5 -28q110 0 203 59v-139
q-44 -25 -102 -39.5t-122 -14.5z" />
    <glyph glyph-name="D" unicode="D" horiz-adv-x="753" 
d="M76 715h273q113 0 193.5 -42t122.5 -121.5t42 -192.5t-42.5 -193.5t-122.5 -123t-194 -42.5h-272v715zM340 132q100 0 153.5 58.5t53.5 168.5q0 109 -52.5 166.5t-153.5 57.5h-111v-451h110z" />
    <glyph glyph-name="E" unicode="E" horiz-adv-x="620" 
d="M76 715h492v-128h-338v-155h300v-128h-300v-176h357v-128h-511v715z" />
    <glyph glyph-name="F" unicode="F" horiz-adv-x="581" 
d="M76 715h477v-128h-323v-176h285v-128h-285v-283h-154v715z" />
    <glyph glyph-name="G" unicode="G" horiz-adv-x="741" 
d="M681 42q-34 -18 -77 -31t-90 -19.5t-94 -6.5q-87 0 -156.5 25.5t-118 74t-74 117.5t-25.5 156q0 85 27 153.5t77 117.5t120.5 75t157.5 26q65 0 124.5 -12.5t109.5 -36.5v-142q-46 28 -100.5 42.5t-117.5 14.5q-76 0 -129 -28t-81 -81t-28 -129q0 -116 58 -178.5
t166 -62.5q27 0 54 4t53 12v144h-128v121h272v-356z" />
    <glyph glyph-name="H" unicode="H" horiz-adv-x="771" 
d="M541 0v307h-311v-307h-154v715h154v-274h311v274h154v-715h-154z" />
    <glyph glyph-name="I" unicode="I" horiz-adv-x="306" 
d="M76 715h154v-715h-154v715z" />
    <glyph glyph-name="J" unicode="J" horiz-adv-x="510" 
d="M176 -15q-46 0 -87.5 9.5t-71.5 26.5v134q57 -36 133 -36q133 0 133 138v458h154v-461q0 -130 -67.5 -199.5t-193.5 -69.5z" />
    <glyph glyph-name="K" unicode="K" horiz-adv-x="729" 
d="M267 308h-37v-308h-154v715h154v-277h40q64 72 122.5 139.5t115.5 137.5h185q-72 -85 -146 -168.5t-151 -168.5q82 -93 162.5 -186.5t162.5 -191.5h-196q-63 78 -126 153t-132 155z" />
    <glyph glyph-name="L" unicode="L" horiz-adv-x="585" 
d="M76 715h154v-581h339v-134h-493v715z" />
    <glyph glyph-name="M" unicode="M" horiz-adv-x="907" 
d="M392 133q-44 88 -86 176.5t-83 176.5v-486h-147v715h185q47 -110 96 -219.5t100 -216.5q50 107 99 215.5t95 220.5h180v-715h-147v488q-41 -90 -83.5 -178.5t-85.5 -176.5h-123z" />
    <glyph glyph-name="N" unicode="N" horiz-adv-x="772" 
d="M540 0q-78 125 -158 250.5t-158 243.5v-494h-148v715h156q81 -121 159.5 -242.5t156.5 -246.5v489h148v-715h-156z" />
    <glyph glyph-name="O" unicode="O" horiz-adv-x="802" 
d="M401 730q81 0 146.5 -26t112 -74.5t71.5 -117t25 -154.5q0 -85 -25 -154t-71.5 -118t-112 -75t-146.5 -26t-146.5 26t-112 75t-71.5 118t-25 154q0 86 25 154.5t71.5 117t112 74.5t146.5 26zM401 119q61 0 105 28.5t67 81.5t23 129t-23 129t-67 81t-105 28t-105 -28
t-67 -81t-23 -129t23 -129t67 -81.5t105 -28.5z" />
    <glyph glyph-name="P" unicode="P" horiz-adv-x="657" 
d="M76 0v715h257q138 0 212 -61t74 -175q0 -75 -33.5 -127.5t-97.5 -80t-156 -27.5h-104v-244h-152zM228 365h96q68 0 103.5 27.5t35.5 86.5t-35.5 87t-102.5 28h-97v-229z" />
    <glyph glyph-name="Q" unicode="Q" horiz-adv-x="814" 
d="M583 0q-29 0 -58.5 -4t-60 -7.5t-63.5 -3.5q-81 0 -146.5 26t-112 75t-71.5 118t-25 154q0 86 25 154.5t71.5 117t112 74.5t146.5 26t146.5 -26t112 -74.5t71.5 -117t25 -154.5q0 -84 -29.5 -148t-82.5 -102l168 26v-134h-229zM401 119q61 0 105 28.5t67 81.5t23 129
t-23 129t-67 81t-105 28t-105 -28t-67 -81t-23 -129t23 -129t67 -81.5t105 -28.5z" />
    <glyph glyph-name="R" unicode="R" horiz-adv-x="689" 
d="M228 260v-260h-152v715h261q141 0 216.5 -59t75.5 -169q0 -71 -33.5 -121t-95.5 -77q45 -71 89 -142.5t88 -146.5h-177q-72 132 -149 260h-15h-108zM228 381h100q71 0 108 25.5t37 80.5t-36.5 81t-107.5 26h-101v-213z" />
    <glyph glyph-name="S" unicode="S" horiz-adv-x="615" 
d="M278 -15q-59 0 -116.5 13t-110.5 41v138q107 -65 227 -65q68 0 103.5 23t35.5 64q0 31 -17.5 48.5t-46.5 28t-65 19.5q-59 14 -104 32t-76 42.5t-47 59t-16 82.5q0 68 34.5 117t97.5 75.5t150 26.5q57 0 112 -13t99 -35v-136q-44 27 -99.5 42t-111.5 15q-61 0 -94.5 -21
t-33.5 -60q0 -28 16 -44.5t45.5 -27t69.5 -20.5q51 -13 95 -28.5t77.5 -39.5t52 -61t18.5 -91q0 -71 -35 -121.5t-101 -77t-159 -26.5z" />
    <glyph glyph-name="T" unicode="T" horiz-adv-x="636" 
d="M16 715h604v-134h-225v-581h-154v581h-225v134z" />
    <glyph glyph-name="U" unicode="U" horiz-adv-x="758" 
d="M379 -15q-96 0 -164.5 36.5t-105 105.5t-36.5 166v422h154v-439q0 -76 39.5 -116.5t112.5 -40.5t112.5 40.5t39.5 116.5v439h154v-422q0 -97 -36.5 -166t-105.5 -105.5t-164 -36.5z" />
    <glyph glyph-name="V" unicode="V" horiz-adv-x="734" 
d="M723 715q-65 -179 -133.5 -358t-139.5 -357h-166q-71 178 -139.5 357t-133.5 358h169q46 -140 93 -279t96 -278q49 139 96 278t93 279h165z" />
    <glyph glyph-name="W" unicode="W" horiz-adv-x="990" 
d="M624 0q-34 121 -66.5 242t-63.5 242q-30 -121 -62 -242t-66 -242h-163q-51 175 -98 354t-89 361h168q25 -139 53 -278t59 -273q67 261 127 521h150q30 -128 61.5 -255.5t64.5 -254.5q30 132 58 268t52 272h165q-42 -182 -89 -361t-98 -354h-163z" />
    <glyph glyph-name="X" unicode="X" horiz-adv-x="698" 
d="M505 0q-37 67 -77 133t-82 131q-43 -66 -83 -132t-76 -132h-179q60 93 121 185t127 185q-60 85 -117 172t-111 173h183q33 -59 67.5 -117.5t71.5 -115.5q36 56 71 114.5t68 118.5h179q-55 -86 -111.5 -172t-115.5 -171q64 -92 126 -185t121 -187h-183z" />
    <glyph glyph-name="Y" unicode="Y" horiz-adv-x="719" 
d="M436 271v-271h-154v271q-70 110 -137 221t-131 223h175q41 -79 84.5 -158t87.5 -156q45 78 88 156.5t85 157.5h171q-65 -112 -132 -223t-137 -221z" />
    <glyph glyph-name="Z" unicode="Z" horiz-adv-x="651" 
d="M615 130v-130h-579v110q91 122 182 240.5t182 234.5h-347v130h549v-110q-92 -117 -184 -236t-182 -239h379z" />
    <glyph glyph-name="a" unicode="a" horiz-adv-x="552" 
d="M460 -10q-86 0 -107 57q-32 -30 -69 -45t-82 -15q-78 0 -122 40.5t-44 112.5q0 79 60.5 121.5t174.5 42.5q16 0 34.5 -1.5t36.5 -4.5v23q0 47 -26 70t-80 23q-45 0 -84.5 -12t-76.5 -38v124q43 21 89 32t93 11q109 0 168 -54.5t59 -155.5v-194q0 -18 6 -26.5t22 -8.5
q8 0 15 1.5t14 5.5v-91q-16 -8 -37.5 -13t-43.5 -5zM180 153q0 -61 70 -61q53 0 92 43v79q-14 3 -29.5 4.5t-30.5 1.5q-52 0 -77 -16t-25 -51z" />
    <glyph glyph-name="b" unicode="b" horiz-adv-x="605" 
d="M564 269q0 -89 -34 -152t-99 -96.5t-156 -33.5q-50 0 -101 11.5t-107 35.5v711h148v-274q27 30 60.5 45t74.5 15q66 0 114 -32t74 -91t26 -139zM309 411q-56 0 -94 -46v-245q18 -7 35 -10t37 -3q61 0 93.5 40.5t32.5 114.5q0 72 -26.5 110.5t-77.5 38.5z" />
    <glyph glyph-name="c" unicode="c" horiz-adv-x="493" 
d="M313 -13q-86 0 -147 32t-93 92.5t-32 147.5q0 62 19.5 112.5t55.5 86t87.5 54.5t114.5 19q40 0 74 -8t64 -23v-127q-26 19 -57 28.5t-64 9.5q-68 0 -105.5 -40t-37.5 -112t37 -112t103 -40q36 0 68 9t63 30v-124q-31 -17 -69.5 -26t-80.5 -9z" />
    <glyph glyph-name="d" unicode="d" horiz-adv-x="605" 
d="M411 0l-7 57q-30 -36 -67 -53t-81 -17q-66 0 -114 32t-74.5 91t-26.5 139q0 87 31 150t87.5 97.5t134.5 34.5q51 0 96 -21v235h148v-745h-127zM192 255q0 -72 26.5 -110t78.5 -38q27 0 50 10.5t43 33.5v241q-19 10 -36.5 14.5t-37.5 4.5q-59 0 -91.5 -41t-32.5 -115z" />
    <glyph glyph-name="e" unicode="e" horiz-adv-x="554" 
d="M495 26q-77 -39 -182 -39q-85 0 -146 32t-93.5 92.5t-32.5 145.5q0 63 17.5 113.5t50.5 86.5t79 55t103 19q109 0 167 -67.5t58 -193.5v-43h-330q8 -63 44.5 -93t105.5 -30q46 0 83.5 10t75.5 32v-120zM289 424q-42 0 -68 -28.5t-34 -81.5h192q-4 57 -26 83.5t-64 26.5z
" />
    <glyph glyph-name="f" unicode="f" horiz-adv-x="389" 
d="M372 403h-127v-403h-148v403h-84v115h84v16q0 70 24.5 120.5t71 77t111.5 26.5q58 0 106 -20v-116q-17 9 -36.5 13t-38.5 4q-90 0 -90 -100v-21h127v-115z" />
    <glyph glyph-name="g" unicode="g" horiz-adv-x="605" 
d="M538 10q0 -122 -69 -185.5t-202 -63.5q-54 0 -100.5 10t-85.5 31v124q34 -22 78 -34t90 -12q141 0 141 123v61q-28 -30 -61 -44t-73 -14q-66 0 -114 31t-74.5 88t-26.5 134q0 86 34 147t98.5 93t156.5 32q50 0 100 -11.5t108 -36.5v-473zM192 265q0 -67 27 -103t78 -36
q55 0 93 43v229q-18 7 -35 10t-37 3q-61 0 -93.5 -37.5t-32.5 -108.5z" />
    <glyph glyph-name="h" unicode="h" horiz-adv-x="601" 
d="M313 410q-58 0 -98 -49v-361h-148v745h148v-276q60 62 144 62q85 0 132 -52.5t47 -149.5v-329h-148v323q0 43 -20 65t-57 22z" />
    <glyph glyph-name="i" unicode="i" horiz-adv-x="282" 
d="M141 748q40 0 63 -20.5t23 -56.5q0 -35 -23 -55.5t-63 -20.5t-63 20.5t-23 55.5q0 36 23 56.5t63 20.5zM67 518h148v-518h-148v518z" />
    <glyph glyph-name="j" unicode="j" horiz-adv-x="282" 
d="M141 595q-40 0 -63 20.5t-23 55.5q0 36 23 56.5t63 20.5t63 -20.5t23 -56.5q0 -35 -23 -55.5t-63 -20.5zM19 -239q-47 0 -89 17v116q13 -8 28.5 -11t34.5 -3q38 0 56 22t18 65v551h148v-546q0 -104 -49.5 -157.5t-146.5 -53.5z" />
    <glyph glyph-name="k" unicode="k" horiz-adv-x="589" 
d="M245 218h-30v-218h-148v745h148v-414h31q40 48 76.5 94t71.5 93h165q-48 -61 -97 -120t-98 -116q56 -71 110 -140t107 -142h-175q-42 61 -81 114t-80 104z" />
    <glyph glyph-name="l" unicode="l" horiz-adv-x="326" 
d="M202 -9q-137 0 -137 149v605h148v-592q0 -25 9.5 -35.5t32.5 -10.5q11 0 22 2.5t22 7.5v-109q-39 -17 -97 -17z" />
    <glyph glyph-name="m" unicode="m" horiz-adv-x="896" 
d="M306 410q-54 0 -91 -48v-362h-148v518h127l8 -62q61 75 150 75q53 0 90.5 -21.5t57.5 -62.5q33 42 72.5 63t88.5 21q83 0 127.5 -52.5t44.5 -149.5v-329h-148v323q0 42 -17.5 64.5t-52.5 22.5q-55 0 -92 -49q1 -15 1 -32v-329h-148v323q0 42 -17.5 64.5t-52.5 22.5z" />
    <glyph glyph-name="n" unicode="n" horiz-adv-x="601" 
d="M313 410q-58 0 -98 -49v-361h-148v518h127l8 -63q64 76 157 76q85 0 132 -52.5t47 -149.5v-329h-148v323q0 43 -20 65t-57 22z" />
    <glyph glyph-name="o" unicode="o" horiz-adv-x="600" 
d="M300 531q80 0 138 -33.5t89.5 -94.5t31.5 -144q0 -62 -18 -112t-52 -86t-82 -55t-107 -19t-107 19t-82 55t-52 86t-18 112q0 83 31.5 144t89.5 94.5t138 33.5zM300 106q52 0 80 40.5t28 112.5q0 73 -28.5 113t-79.5 40t-79.5 -40t-28.5 -113q0 -72 28 -112.5t80 -40.5z
" />
    <glyph glyph-name="p" unicode="p" horiz-adv-x="605" 
d="M313 -13q-26 0 -50.5 5t-47.5 16v-234h-148v744h127l8 -58q58 71 147 71q66 0 114.5 -32t74.5 -90.5t26 -139.5q0 -87 -30.5 -150t-87 -97.5t-133.5 -34.5zM309 411q-56 0 -94 -45v-240q19 -10 37 -14.5t39 -4.5q59 0 90.5 41t31.5 115q0 72 -26 110t-78 38z" />
    <glyph glyph-name="q" unicode="q" horiz-adv-x="605" 
d="M538 483v-709h-148v271q-55 -58 -134 -58q-66 0 -114 32t-74.5 90.5t-26.5 139.5q0 89 34 152t98.5 96.5t155.5 33.5q51 0 102 -12t107 -36zM192 255q0 -72 26.5 -110t78.5 -38q27 0 50.5 11t42.5 34v246q-19 7 -35.5 10t-36.5 3q-61 0 -93.5 -40.5t-32.5 -115.5z" />
    <glyph glyph-name="r" unicode="r" horiz-adv-x="416" 
d="M338 399q-74 0 -123 -63v-336h-148v518h127l10 -80q55 89 138 89q20 0 35 -3t29 -10v-133q-28 18 -68 18z" />
    <glyph glyph-name="s" unicode="s" horiz-adv-x="478" 
d="M217 -13q-47 0 -91 9.5t-83 28.5v121q35 -23 77.5 -36t83.5 -13q92 0 92 51q0 22 -17.5 33t-60.5 22q-66 16 -105.5 37t-57 51.5t-17.5 74.5q0 51 26.5 88t75 57t116.5 20q46 0 89 -9.5t77 -28.5v-120q-30 23 -69.5 35.5t-79.5 12.5q-42 0 -66 -12t-24 -36q0 -15 7 -24
t24.5 -16t49.5 -15q64 -16 103 -37t57 -51.5t18 -74.5q0 -53 -27 -91t-77 -57.5t-121 -19.5z" />
    <glyph glyph-name="t" unicode="t" horiz-adv-x="413" 
d="M393 11q-54 -24 -118 -24q-86 0 -131 44.5t-45 129.5v242h-87v115h87v125l148 33v-158h135v-115h-135v-226q0 -71 71 -71q18 0 37 4.5t38 14.5v-114z" />
    <glyph glyph-name="u" unicode="u" 
d="M402 0l-8 62q-63 -75 -154 -75q-85 0 -131 52t-46 147v332h148v-326q0 -41 19 -62.5t56 -21.5q28 0 52.5 12.5t42.5 35.5v362h148v-518h-127z" />
    <glyph glyph-name="v" unicode="v" horiz-adv-x="558" 
d="M550 518q-46 -136 -94 -264t-100 -254h-154q-50 122 -99 252t-95 266h159q26 -97 55 -191.5t58 -186.5q31 93 60 187t55 191h155z" />
    <glyph glyph-name="w" unicode="w" horiz-adv-x="792" 
d="M491 0q-25 83 -48.5 166.5t-45.5 167.5q-23 -84 -47 -167.5t-49 -166.5h-148q-39 128 -75 258t-69 260h156q17 -96 35.5 -189t38.5 -185q24 88 46.5 176t43.5 178h138q21 -88 43 -175t46 -173q21 92 39.5 183t35.5 185h152q-33 -130 -69 -259.5t-75 -258.5h-148z" />
    <glyph glyph-name="x" unicode="x" horiz-adv-x="552" 
d="M379 0q-50 87 -107 176q-26 -42 -53 -86.5t-52 -89.5h-160q44 67 89.5 133t91.5 129q-43 64 -84.5 128t-81.5 128h164q21 -42 43.5 -83t46.5 -82q50 83 92 165h160q-39 -64 -81 -128t-85 -127q46 -64 91.5 -130t89.5 -133h-164z" />
    <glyph glyph-name="y" unicode="y" horiz-adv-x="558" 
d="M324 -59q-21 -49 -42 -83.5t-45.5 -56t-54.5 -31t-69 -9.5q-31 0 -55.5 4t-44.5 13v116q13 -7 34 -11.5t41 -4.5q26 0 43.5 7t30.5 23t24 42q6 14 11 27.5t11 26.5q-53 129 -103 257.5t-97 256.5h159q26 -92 54.5 -182t59.5 -179q31 90 59.5 180t54.5 181h155
q-16 -46 -36.5 -99.5t-42 -110t-43.5 -111.5t-41.5 -104.5t-36 -88.5t-26.5 -63z" />
    <glyph glyph-name="z" unicode="z" horiz-adv-x="494" 
d="M462 114v-114h-432v100q62 78 125 153.5t127 150.5h-240v114h412v-100q-66 -77 -129.5 -152.5t-124.5 -151.5h262z" />
    <glyph glyph-name="a.smcp" unicode="&#xf605;" horiz-adv-x="645" 
d="M471 0q-9 28 -18.5 56.5t-19.5 56.5h-224q-20 -57 -39 -113h-161q58 149 116 290t115 271h165q58 -132 116 -273t115 -288h-165zM249 227h144q-17 50 -35.5 100t-36.5 99q-37 -100 -72 -199z" />
    <glyph glyph-name="b.smcp" unicode="&#xf606;" horiz-adv-x="598" 
d="M561 165q0 -51 -28.5 -88t-82 -57t-128.5 -20h-252v561h241q106 0 163 -38.5t57 -108.5q0 -80 -78 -113q52 -15 80 -50t28 -86zM213 335h83q42 0 64.5 16.5t22.5 45.5q0 57 -87 57h-83v-119zM213 107h96q48 0 74.5 16t26.5 47q0 64 -100 64h-97v-127z" />
    <glyph glyph-name="c.smcp" unicode="&#xf607;" horiz-adv-x="553" 
d="M347 -13q-95 0 -163.5 35t-105 100.5t-36.5 157.5q0 67 21.5 121t62.5 92.5t98 59.5t128 21q92 0 164 -35v-131q-64 41 -145 41q-84 0 -129.5 -44.5t-45.5 -124.5t44.5 -124.5t126.5 -44.5t155 43v-128q-35 -19 -80.5 -29t-94.5 -10z" />
    <glyph glyph-name="d.smcp" unicode="&#xf608;" horiz-adv-x="647" 
d="M70 0v561h238q94 0 160 -33t101.5 -95.5t35.5 -150.5q0 -89 -35.5 -152t-102 -96.5t-160.5 -33.5h-237zM220 122h80q74 0 112.5 41t38.5 119q0 77 -38.5 117t-111.5 40h-81v-317z" />
    <glyph glyph-name="e.smcp" unicode="&#xf609;" horiz-adv-x="537" 
d="M70 561h423v-119h-277v-100h248v-113h-248v-110h291v-119h-437v561z" />
    <glyph glyph-name="f.smcp" unicode="&#xf60a;" horiz-adv-x="507" 
d="M70 561h411v-121h-264v-119h235v-118h-235v-203h-147v561z" />
    <glyph glyph-name="g.smcp" unicode="&#xf60b;" horiz-adv-x="621" 
d="M566 30q-29 -14 -65 -23.5t-75.5 -14.5t-79.5 -5q-95 0 -163 35.5t-104.5 101t-36.5 156.5q0 67 22.5 121t65 92.5t101.5 59.5t132 21q104 0 185 -35v-131q-36 20 -77.5 30.5t-90.5 10.5q-88 0 -136 -44t-48 -125q0 -82 41 -126.5t118 -44.5q37 0 75 8v95h-94v110h230
v-292z" />
    <glyph glyph-name="h.smcp" unicode="&#xf60c;" horiz-adv-x="665" 
d="M445 0v223h-225v-223h-150v561h150v-208h225v208h150v-561h-150z" />
    <glyph glyph-name="i.smcp" unicode="&#xf60d;" horiz-adv-x="290" 
d="M70 0v561h150v-561h-150z" />
    <glyph glyph-name="j.smcp" unicode="&#xf60e;" horiz-adv-x="460" 
d="M154 -13q-39 0 -75 7.5t-64 20.5v126q24 -14 53.5 -22t60.5 -8q57 0 85.5 27.5t28.5 79.5v343h150v-346q0 -109 -61.5 -168.5t-177.5 -59.5z" />
    <glyph glyph-name="k.smcp" unicode="&#xf60f;" horiz-adv-x="634" 
d="M247 234h-27v-234h-150v561h150v-210h31q47 53 90.5 104.5t86.5 105.5h175q-55 -66 -113 -133t-116 -131q63 -72 125.5 -146t126.5 -151h-186q-46 58 -93.5 116t-99.5 118z" />
    <glyph glyph-name="l.smcp" unicode="&#xf610;" horiz-adv-x="504" 
d="M70 561h150v-436h270v-125h-420v561z" />
    <glyph glyph-name="m.smcp" unicode="&#xf611;" horiz-adv-x="776" 
d="M335 103q-31 65 -62.5 134t-61.5 138v-375h-141v561h183q33 -79 67.5 -159.5t71.5 -160.5q34 77 68.5 159t66.5 161h179v-561h-141v377q-30 -70 -60.5 -139.5t-60.5 -134.5h-109z" />
    <glyph glyph-name="n.smcp" unicode="&#xf612;" horiz-adv-x="669" 
d="M450 0q-56 86 -117 178t-121 180v-358h-142v561h149q61 -88 121.5 -178t116.5 -177v355h142v-561h-149z" />
    <glyph glyph-name="o.smcp" unicode="&#xf613;" horiz-adv-x="668" 
d="M334 574q67 0 120.5 -20.5t92 -59t59 -92.5t20.5 -121t-20.5 -121.5t-59 -93t-92.5 -59t-120 -20.5t-120 20.5t-92.5 59t-59 93t-20.5 121.5t20.5 121t59 92.5t92 59t120.5 20.5zM334 111q65 0 101.5 45t36.5 125q0 79 -36.5 123.5t-101.5 44.5t-101.5 -44.5
t-36.5 -123.5q0 -80 36.5 -125t101.5 -45z" />
    <glyph glyph-name="p.smcp" unicode="&#xf614;" horiz-adv-x="576" 
d="M70 0v561h226q119 0 182 -50t63 -142q0 -91 -63.5 -141.5t-181.5 -50.5h-80v-177h-146zM216 289h73q102 0 102 80t-102 80h-73v-160z" />
    <glyph glyph-name="q.smcp" unicode="&#xf615;" horiz-adv-x="678" 
d="M491 0q-27 0 -52.5 -3t-51 -6.5t-53.5 -3.5q-66 0 -120 20.5t-92.5 59t-59 93t-20.5 121.5t20.5 121t59 92.5t92 59t120.5 20.5t120.5 -20.5t92 -59t59 -92.5t20.5 -121q0 -59 -20 -104.5t-56 -73.5l126 21v-124h-185zM334 111q65 0 101.5 45t36.5 125q0 79 -36.5 123.5
t-101.5 44.5t-101.5 -44.5t-36.5 -123.5q0 -80 36.5 -125t101.5 -45z" />
    <glyph glyph-name="r.smcp" unicode="&#xf616;" horiz-adv-x="602" 
d="M216 191v-191h-146v561h227q122 0 187 -47.5t65 -137.5q0 -54 -26 -94t-75 -63q37 -54 74 -110.5t69 -108.5h-169q-26 45 -55.5 94t-59.5 97h-10h-81zM216 303h74q56 0 82.5 18t26.5 55t-26.5 55t-82.5 18h-74v-146z" />
    <glyph glyph-name="s.smcp" unicode="&#xf617;" horiz-adv-x="535" 
d="M48 156q88 -51 189 -51q51 0 79 13.5t28 37.5q0 16 -9 27.5t-31 20t-62 16.5q-72 16 -116.5 38.5t-64.5 56t-20 81.5q0 55 30.5 95t87.5 61.5t135 21.5q45 0 90.5 -10t80.5 -29v-125q-37 23 -82.5 34.5t-88.5 11.5q-49 0 -76.5 -12t-27.5 -38q0 -15 8.5 -24.5t31.5 -17.5
t66 -17q72 -15 116 -38t63.5 -57.5t19.5 -83.5q0 -57 -30 -97.5t-87.5 -62t-137.5 -21.5q-106 0 -192 42v127z" />
    <glyph glyph-name="t.smcp" unicode="&#xf618;" horiz-adv-x="539" 
d="M14 561h511v-125h-181v-436h-150v436h-180v125z" />
    <glyph glyph-name="u.smcp" unicode="&#xf619;" horiz-adv-x="654" 
d="M327 -13q-81 0 -139.5 30t-89.5 86t-31 134v324h150v-338q0 -54 28.5 -83t81.5 -29t81.5 29t28.5 83v338h150v-324q0 -78 -31 -134t-89.5 -86t-139.5 -30z" />
    <glyph glyph-name="v.smcp" unicode="&#xf61a;" horiz-adv-x="629" 
d="M620 561q-52 -138 -109 -280.5t-116 -280.5h-161q-58 136 -115 279t-110 282h165q34 -104 69.5 -207.5t72.5 -204.5q37 102 73 206.5t70 205.5h161z" />
    <glyph glyph-name="w.smcp" unicode="&#xf61b;" horiz-adv-x="828" 
d="M507 0q-25 90 -49 178t-44 172q-22 -88 -45.5 -175.5t-48.5 -174.5h-159q-39 134 -76 275.5t-71 285.5h164q17 -105 36.5 -210t39.5 -203q26 100 50 198t43 190h140q19 -88 42.5 -183.5t48.5 -196.5q20 97 39 199.5t36 205.5h161q-34 -144 -71 -285.5t-76 -275.5h-160z
" />
    <glyph glyph-name="x.smcp" unicode="&#xf61c;" horiz-adv-x="603" 
d="M419 0q-27 46 -58 94.5t-63 96.5q-71 -105 -121 -191h-169q46 71 95 142.5t106 148.5q-46 65 -91.5 132t-92.5 138h174q23 -40 49.5 -83t54.5 -86q61 93 104 169h169q-43 -67 -88.5 -133t-95.5 -136q50 -69 100 -141.5t101 -150.5h-174z" />
    <glyph glyph-name="y.smcp" unicode="&#xf61d;" horiz-adv-x="632" 
d="M391 208v-208h-150v208q-60 87 -117.5 176.5t-110.5 176.5h171q30 -55 64 -113.5t70 -117.5q35 57 69 115.5t65 115.5h167q-53 -88 -110.5 -177t-117.5 -176z" />
    <glyph glyph-name="z.smcp" unicode="&#xf61e;" horiz-adv-x="558" 
d="M524 122v-122h-492v102q65 78 138 163.5t152 173.5h-277v122h469v-102q-77 -85 -151.5 -171.5t-140.5 -165.5h302z" />
    <glyph glyph-name="a.alt" horiz-adv-x="597" 
d="M403 0l-8 59q-56 -72 -143 -72q-64 0 -111.5 32t-73.5 90.5t-26 139.5q0 89 33.5 152t96.5 96.5t152 33.5q99 0 207 -48v-483h-127zM192 255q0 -72 26 -110t75 -38q26 0 48 10t41 32v250q-17 7 -33 9.5t-35 2.5q-58 0 -90 -40.5t-32 -115.5z" />
    <glyph glyph-name="ordfeminine" unicode="&#xaa;" horiz-adv-x="425" 
d="M358 298q-64 0 -79 46q-50 -48 -117 -48q-60 0 -94 30.5t-34 85.5q0 58 46.5 89.5t132.5 31.5q13 0 27.5 -1t29.5 -3v12q0 70 -83 70q-35 0 -66 -9t-60 -28v95q34 16 69.5 23.5t69.5 7.5q84 0 129 -41t45 -118v-141q0 -14 4.5 -20t16.5 -6q5 0 10.5 1t10.5 4v-68
q-11 -6 -26.5 -9.5t-31.5 -3.5zM140 421q0 -45 56 -45q42 0 74 30v60q-24 4 -48 4q-41 0 -61.5 -12t-20.5 -37z" />
    <glyph glyph-name="ordmasculine" unicode="&#xba;" horiz-adv-x="472" 
d="M236 700q60 0 104.5 -24.5t69 -70t24.5 -107.5t-24.5 -107t-69 -70t-104.5 -25t-104.5 25t-69 70t-24.5 107t24.5 107.5t69 70t104.5 24.5zM236 384q42 0 65 29.5t23 84.5t-23 84.5t-65 29.5t-65 -29.5t-23 -84.5t23 -84.5t65 -29.5z" />
    <glyph glyph-name="copyright" unicode="&#xa9;" horiz-adv-x="872" 
d="M436 -15q-89 0 -161 26t-123 75t-78.5 117.5t-27.5 153.5q0 84 27.5 153t79 118t123.5 75.5t160 26.5t160 -26.5t123.5 -75.5t79 -118t27.5 -153q0 -85 -27.5 -153.5t-78.5 -117.5t-123 -75t-161 -26zM436 68q68 0 123 20t94 57.5t60 91t21 120.5q0 89 -36 154
t-103 100.5t-159 35.5t-159 -35.5t-103 -100.5t-36 -154q0 -67 21 -120.5t60 -91t94 -57.5t123 -20zM458 141q-70 0 -119.5 25.5t-75.5 74t-26 116.5q0 66 27.5 114.5t78 75t118.5 26.5q34 0 63.5 -7t55.5 -23v-106q-21 17 -46.5 25t-53.5 8q-56 0 -86.5 -30t-30.5 -83
q0 -54 31 -83.5t85 -29.5q29 0 55 8t52 26v-104q-27 -16 -60 -24.5t-68 -8.5z" />
    <glyph glyph-name="registered" unicode="&#xae;" horiz-adv-x="530" 
d="M265 292q-69 0 -119.5 27t-78 76t-27.5 115t28 115.5t78.5 77t118.5 27.5t118.5 -27.5t78.5 -77t28 -115.5t-27.5 -115t-78 -76t-119.5 -27zM265 342q53 0 90.5 20t58 58t20.5 90q0 54 -20.5 92t-58.5 57.5t-90 19.5t-90 -19.5t-58.5 -57.5t-20.5 -92q0 -52 20.5 -90
t58 -58t90.5 -20zM234 473v-73h-65v222h98q49 0 74.5 -19.5t25.5 -55.5q0 -42 -38 -61q13 -21 27 -43t26 -43h-74q-10 19 -20 37l-20 36h-1h-33zM234 522h28q38 0 38 25q0 26 -38 26h-28v-51z" />
    <glyph glyph-name="trademark" unicode="&#x2122;" horiz-adv-x="951" 
d="M11 715h367v-94h-128v-315h-111v315h-128v94zM620 379q-22 48 -43.5 96.5t-42.5 97.5v-267h-105v409h138q24 -59 48 -116t49 -115q25 57 48.5 114.5t47.5 116.5h134v-409h-105v267q-21 -49 -42.5 -97.5t-43.5 -96.5h-83z" />
    <glyph glyph-name="ordfeminine.smcp" unicode="&#xf640;" horiz-adv-x="494" 
d="M361 306q-13 41 -27 81h-176q-14 -40 -28 -81h-121q43 111 86.5 215.5t85.5 199.5h132q43 -97 86 -201t86 -214h-124zM188 473h116q-14 39 -28.5 78.5t-29.5 79.5q-15 -40 -29.5 -79t-28.5 -79z" />
    <glyph glyph-name="ordmasculine.smcp" unicode="&#xf641;" horiz-adv-x="504" 
d="M252 731q65 0 113 -26.5t74 -75.5t26 -115t-26.5 -115t-74.5 -76t-112 -27t-112 27t-74.5 76t-26.5 115t26 115t74 75.5t113 26.5zM252 387q48 0 74 33.5t26 93.5q0 59 -26 92.5t-74 33.5t-74 -33.5t-26 -92.5q0 -60 26 -93.5t74 -33.5z" />
    <glyph glyph-name="quoteleft" unicode="&#x2018;" horiz-adv-x="276" 
d="M219 507q0 -35 -21 -56.5t-58 -21.5q-42 0 -62.5 26.5t-20.5 75.5q0 31 10.5 64t29.5 64t44 56h106q-68 -69 -84 -138q26 -5 41 -24t15 -46z" />
    <glyph glyph-name="quoteright" unicode="&#x2019;" horiz-adv-x="276" 
d="M219 620q0 -30 -10.5 -63.5t-29.5 -65t-44 -55.5h-106q68 69 84 138q-26 5 -41 24t-15 46q0 35 21 56.5t58 21.5q42 0 62.5 -26t20.5 -76z" />
    <glyph glyph-name="quotesinglbase" unicode="&#x201a;" horiz-adv-x="276" 
d="M219 49q0 -30 -10.5 -63.5t-29.5 -65t-44 -55.5h-106q68 69 84 138q-26 5 -41 24t-15 46q0 35 21 56.5t58 21.5q42 0 62.5 -26t20.5 -76z" />
    <glyph glyph-name="quotedblleft" unicode="&#x201c;" horiz-adv-x="498" 
d="M219 507q0 -35 -21 -56.5t-58 -21.5q-42 0 -62.5 26.5t-20.5 75.5q0 31 10.5 64t29.5 64t44 56h106q-68 -69 -84 -138q26 -5 41 -24t15 -46zM441 507q0 -35 -21 -56.5t-58 -21.5q-42 0 -62.5 26.5t-20.5 75.5q0 31 10.5 64t29.5 64t44 56h106q-68 -69 -84 -138
q26 -5 41 -24t15 -46z" />
    <glyph glyph-name="quotedblright" unicode="&#x201d;" horiz-adv-x="498" 
d="M219 620q0 -30 -10.5 -63.5t-29.5 -65t-44 -55.5h-106q68 69 84 138q-26 5 -41 24t-15 46q0 35 21 56.5t58 21.5q42 0 62.5 -26t20.5 -76zM441 620q0 -30 -10.5 -63.5t-29.5 -65t-44 -55.5h-106q68 69 84 138q-26 5 -41 24t-15 46q0 35 21 56.5t58 21.5q42 0 62.5 -26
t20.5 -76z" />
    <glyph glyph-name="quotedblbase" unicode="&#x201e;" horiz-adv-x="498" 
d="M219 49q0 -30 -10.5 -63.5t-29.5 -65t-44 -55.5h-106q68 69 84 138q-26 5 -41 24t-15 46q0 35 21 56.5t58 21.5q42 0 62.5 -26t20.5 -76zM441 49q0 -30 -10.5 -63.5t-29.5 -65t-44 -55.5h-106q68 69 84 138q-26 5 -41 24t-15 46q0 35 21 56.5t58 21.5q42 0 62.5 -26
t20.5 -76z" />
    <glyph glyph-name="ordfeminine.alt" horiz-adv-x="464" 
d="M310 306l-6 43q-43 -53 -108 -53q-48 0 -83.5 24t-55 67.5t-19.5 103.5q0 65 25 112t72 72t114 25q37 0 75 -8.5t78 -26.5v-359h-92zM148 495q0 -53 20 -82t58 -29q40 0 68 30v191q-23 7 -51 7q-46 0 -70.5 -31t-24.5 -86z" />
    <glyph glyph-name="quoteleft.smcp" unicode="&#xf6aa;" horiz-adv-x="276" 
d="M219 359q0 -34 -21 -54t-58 -20q-83 0 -83 97q0 30 10.5 62t29.5 62.5t44 54.5h106q-66 -65 -84 -133q26 -6 41 -24t15 -45z" />
    <glyph glyph-name="quoteright.smcp" unicode="&#xf6ab;" horiz-adv-x="276" 
d="M219 471q0 -29 -10.5 -61.5t-29.5 -63t-44 -54.5h-106q66 65 84 133q-26 6 -41 24t-15 45q0 34 21 54t58 20q83 0 83 -97z" />
    <glyph glyph-name="quotedblleft.smcp" unicode="&#xf6ac;" horiz-adv-x="498" 
d="M219 359q0 -34 -21 -54t-58 -20q-83 0 -83 97q0 30 10.5 62t29.5 62.5t44 54.5h106q-66 -65 -84 -133q26 -6 41 -24t15 -45zM441 359q0 -34 -21 -54t-58 -20q-83 0 -83 97q0 30 10.5 62t29.5 62.5t44 54.5h106q-66 -65 -84 -133q26 -6 41 -24t15 -45z" />
    <glyph glyph-name="quotedblright.smcp" unicode="&#xf6ad;" horiz-adv-x="498" 
d="M219 471q0 -29 -10.5 -61.5t-29.5 -63t-44 -54.5h-106q66 65 84 133q-26 6 -41 24t-15 45q0 34 21 54t58 20q83 0 83 -97zM441 471q0 -29 -10.5 -61.5t-29.5 -63t-44 -54.5h-106q66 65 84 133q-26 6 -41 24t-15 45q0 34 21 54t58 20q83 0 83 -97z" />
    <glyph glyph-name="minute" unicode="&#x2032;" horiz-adv-x="328" 
d="M156 438h-113l95 277h147z" />
    <glyph glyph-name="second" unicode="&#x2033;" horiz-adv-x="545" 
d="M156 438h-113l95 277h147zM373 438h-113l95 277h147z" />
    <glyph glyph-name="periodcentered.loclCAT" horiz-adv-x="276" 
d="M138 310q-39 0 -61.5 23t-22.5 58t22.5 58t61.5 23t61.5 -23t22.5 -58t-22.5 -58t-61.5 -23z" />
    <glyph glyph-name="periodcentered.loclCAT.cap" horiz-adv-x="276" 
d="M138 329q-26 0 -45 11t-29.5 29.5t-10.5 41.5t10.5 41.5t29.5 29.5t45 11t45 -11t29.5 -29.5t10.5 -41.5t-10.5 -41.5t-29.5 -29.5t-45 -11z" />
    <glyph glyph-name="periodcentered.loclCAT.smcp" horiz-adv-x="276" 
d="M138 255q-39 0 -61.5 23.5t-22.5 57.5t22.5 57.5t61.5 23.5t61.5 -23.5t22.5 -57.5t-22.5 -57.5t-61.5 -23.5z" />
    <glyph glyph-name="dotlessi" unicode="&#x131;" horiz-adv-x="282" 
d="M67 518h148v-518h-148v518z" />
    <glyph glyph-name="dotlessj" unicode="&#x237;" horiz-adv-x="282" 
d="M19 -239q-47 0 -89 17v116q13 -8 28.5 -11t34.5 -3q38 0 56 22t18 65v551h148v-546q0 -104 -49.5 -157.5t-146.5 -53.5z" />
    <glyph glyph-name="dotlessi.smcp" unicode="&#xf626;" horiz-adv-x="290" 
d="M70 0v561h150v-561h-150z" />
    <glyph glyph-name="dotlessj.smcp" horiz-adv-x="460" 
d="M154 -13q-39 0 -75 7.5t-64 20.5v126q24 -14 53.5 -22t60.5 -8q57 0 85.5 27.5t28.5 79.5v343h150v-346q0 -109 -61.5 -168.5t-177.5 -59.5z" />
    <glyph glyph-name="IJ" unicode="&#x132;" horiz-adv-x="816" 
d="M76 715h154v-715h-154v715zM482 -15q-46 0 -87.5 9.5t-71.5 26.5v134q57 -36 133 -36q133 0 133 138v458h154v-461q0 -130 -67.5 -199.5t-193.5 -69.5z" />
    <glyph glyph-name="IJacute" horiz-adv-x="816" 
d="M76 715h154v-715h-154v715zM482 -15q-46 0 -87.5 9.5t-71.5 26.5v134q57 -36 133 -36q133 0 133 138v458h154v-461q0 -130 -67.5 -199.5t-193.5 -69.5zM362 915q-48 -35 -91.5 -68t-77.5 -61h-144q34 33 71 66.5t72 62.5h170zM875 915q-48 -35 -91.5 -68t-77.5 -61h-144
q34 33 71 66.5t72 62.5h170z" />
    <glyph glyph-name="Ldot" unicode="&#x13f;" horiz-adv-x="585" 
d="M76 715h154v-581h339v-134h-493v715zM445 329q-26 0 -45 11t-29.5 29.5t-10.5 41.5t10.5 41.5t29.5 29.5t45 11t45 -11t29.5 -29.5t10.5 -41.5t-10.5 -41.5t-29.5 -29.5t-45 -11z" />
    <glyph glyph-name="ij" unicode="&#x133;" horiz-adv-x="564" 
d="M141 748q40 0 63 -20.5t23 -56.5q0 -35 -23 -55.5t-63 -20.5t-63 20.5t-23 55.5q0 36 23 56.5t63 20.5zM67 518h148v-518h-148v518zM423 595q-40 0 -63 20.5t-23 55.5q0 36 23 56.5t63 20.5t63 -20.5t23 -56.5q0 -35 -23 -55.5t-63 -20.5zM301 -239q-47 0 -89 17v116
q13 -8 28.5 -11t34.5 -3q38 0 56 22t18 65v551h148v-546q0 -104 -49.5 -157.5t-146.5 -53.5z" />
    <glyph glyph-name="ijacute" horiz-adv-x="564" 
d="M67 518h148v-518h-148v518zM301 -239q-47 0 -89 17v116q13 -8 28.5 -11t34.5 -3q38 0 56 22t18 65v551h148v-546q0 -104 -49.5 -157.5t-146.5 -53.5zM328 762q-95 -96 -153 -162h-128q31 44 62.5 85t59.5 77h159zM610 762q-95 -96 -153 -162h-128q31 44 62.5 85t59.5 77
h159z" />
    <glyph glyph-name="ldot" unicode="&#x140;" horiz-adv-x="449" 
d="M201 -9q-137 0 -137 149v605h148v-592q0 -25 9.5 -35.5t32.5 -10.5q11 0 22 2.5t22 7.5v-109q-39 -17 -97 -17zM364 310q-39 0 -61.5 23t-22.5 58t22.5 58t61.5 23t61.5 -23t22.5 -58t-22.5 -58t-61.5 -23z" />
    <glyph glyph-name="ij.smcp" unicode="&#xf624;" horiz-adv-x="750" 
d="M70 0v561h150v-561h-150zM444 -13q-39 0 -75 7.5t-64 20.5v126q24 -14 53.5 -22t60.5 -8q57 0 85.5 27.5t28.5 79.5v343h150v-346q0 -109 -61.5 -168.5t-177.5 -59.5z" />
    <glyph glyph-name="ijacute.smcp" horiz-adv-x="750" 
d="M70 0v561h150v-561h-150zM444 -13q-39 0 -75 7.5t-64 20.5v126q24 -14 53.5 -22t60.5 -8q57 0 85.5 27.5t28.5 79.5v343h150v-346q0 -109 -61.5 -168.5t-177.5 -59.5zM332 805q-95 -96 -153 -162h-128q31 44 62.5 85t59.5 77h159zM795 805q-95 -96 -153 -162h-128
q31 44 62.5 85t59.5 77h159z" />
    <glyph glyph-name="ldot.smcp" unicode="&#xf66f;" horiz-adv-x="504" 
d="M70 561h150v-436h270v-125h-420v561zM398 255q-39 0 -61.5 23.5t-22.5 57.5t22.5 57.5t61.5 23.5t61.5 -23.5t22.5 -57.5t-22.5 -57.5t-61.5 -23.5z" />
    <glyph glyph-name="Thorn" unicode="&#xde;" horiz-adv-x="657" 
d="M332 128h-104v-128h-152v715h152v-116h105q138 0 212 -61t74 -175q0 -75 -33.5 -127.5t-97.5 -80t-156 -27.5zM325 478h-97v-229h96q68 0 103.5 27.5t35.5 86.5t-35.5 87t-102.5 28z" />
    <glyph glyph-name="AE" unicode="&#xc6;" horiz-adv-x="1080" 
d="M6 0q99 170 207.5 350t224.5 365h590v-128h-326v-155h288v-128h-288v-176h345v-128h-496v155h-287q-22 -40 -44 -78.5t-43 -76.5h-171zM338 283h213v304h-34q-48 -81 -93 -156.5t-86 -147.5z" />
    <glyph glyph-name="OE" unicode="&#x152;" horiz-adv-x="1073" 
d="M1040 0h-456q-68 -15 -143 -15q-91 0 -164 26t-124.5 74.5t-79 117.5t-27.5 155t27.5 154.5t79 117t124.5 74.5t164 26q75 0 143 -15h437v-128h-326v-155h288v-128h-288v-176h345v-128zM206 358q0 -76 29 -129.5t83 -82.5t129 -29q51 0 97 11v459q-45 11 -97 11
q-75 0 -129 -29t-83 -83t-29 -128z" />
    <glyph glyph-name="Germandbls" unicode="&#x1e9e;" horiz-adv-x="777" 
d="M739 206q0 -69 -31.5 -118.5t-90.5 -76t-143 -26.5q-50 0 -90.5 7.5t-78.5 24.5v134q33 -20 69 -29.5t82 -9.5q61 0 93 25.5t32 71.5q0 51 -40 75t-131 28l-25 1v105l155 157q-29 12 -62.5 18t-69.5 6q-88 0 -135 -44t-47 -129v-426h-154v414q0 99 40 169.5t115 108.5
t181 38q70 0 141.5 -18t134.5 -52v-113l-140 -143q98 -18 146.5 -67t48.5 -131z" />
    <glyph glyph-name="thorn" unicode="&#xfe;" horiz-adv-x="605" 
d="M313 -13q-26 0 -50.5 5t-47.5 16v-234h-148v971h148v-271q55 57 134 57q66 0 114.5 -32t74.5 -90.5t26 -139.5q0 -87 -30.5 -150t-87 -97.5t-133.5 -34.5zM309 411q-56 0 -94 -45v-240q19 -10 37 -14.5t39 -4.5q59 0 90.5 41t31.5 115q0 72 -26 110t-78 38z" />
    <glyph glyph-name="ae" unicode="&#xe6;" horiz-adv-x="848" 
d="M789 26q-75 -39 -180 -39q-72 0 -126.5 23.5t-89.5 68.5q-39 -46 -86 -69t-106 -23q-51 0 -88 18.5t-57 53.5t-20 84q0 81 60.5 124.5t173.5 43.5h70v10q0 93 -105 93q-45 0 -84 -12t-76 -38v124q43 21 88.5 32t92.5 11q118 0 169 -73q59 73 162 73q108 0 165.5 -68.5
t57.5 -195.5v-43h-325q9 -62 44.5 -91t102.5 -29q46 0 83.5 10t73.5 32v-120zM585 424q-43 0 -67.5 -30t-31.5 -83h187q-4 59 -25 86t-63 27zM249 92q63 0 106 61q-11 33 -14 71h-60q-53 0 -77 -16.5t-24 -51.5q0 -64 69 -64z" />
    <glyph glyph-name="oe" unicode="&#x153;" horiz-adv-x="920" 
d="M861 26q-75 -39 -180 -39q-68 0 -119 23t-84 67q-32 -44 -79.5 -67t-109.5 -23q-57 0 -102.5 19t-78 55t-50 86t-17.5 112q0 83 30.5 144t86 94.5t131.5 33.5q63 0 111 -22.5t80 -64.5q30 42 76 64.5t103 22.5q108 0 165.5 -67.5t57.5 -193.5v-43h-325q8 -63 43.5 -93
t103.5 -30q45 0 82.5 10t74.5 32v-120zM657 424q-41 0 -66 -28t-33 -82h187q-4 57 -25 83.5t-63 26.5zM298 106q52 0 79.5 40.5t27.5 112.5q0 73 -28 113t-79 40q-50 0 -78 -40t-28 -113q0 -72 27.5 -112.5t78.5 -40.5z" />
    <glyph glyph-name="germandbls" unicode="&#xdf;" horiz-adv-x="639" 
d="M603 199q0 -64 -28.5 -111.5t-81 -74t-124.5 -26.5q-26 0 -51.5 4t-49.5 14v118q18 -9 37.5 -13t40.5 -4q50 0 78 27t28 75q0 49 -33 75.5t-97 26.5h-33v118h16q49 0 76.5 28t27.5 81q0 49 -24.5 75.5t-69.5 26.5q-49 0 -75.5 -31t-26.5 -89v-519h-148v504q0 78 30.5 135
t87.5 88t136 31q71 0 124.5 -25.5t83 -72t29.5 -109.5q0 -62 -28 -105.5t-76 -62.5q71 -18 111 -66t40 -118z" />
    <glyph glyph-name="kgreenlandic" unicode="&#x138;" horiz-adv-x="589" 
d="M247 208h-32v-208h-148v518h148v-197h28q39 48 78 98.5t73 98.5h165q-47 -61 -97 -124t-98 -121q38 -46 74 -90.5t71 -89t72 -93.5h-175q-28 40 -54 74.5t-51.5 67t-53.5 66.5z" />
    <glyph glyph-name="thorn.smcp" unicode="&#xf628;" horiz-adv-x="576" 
d="M296 91h-80v-91h-146v561h146v-86h80q119 0 182 -50t63 -142q0 -91 -63.5 -141.5t-181.5 -50.5zM289 363h-73v-160h73q102 0 102 80t-102 80z" />
    <glyph glyph-name="Eng" unicode="&#x14a;" horiz-adv-x="767" 
d="M695 30q0 -130 -64 -199.5t-183 -69.5q-41 0 -78.5 7.5t-67.5 23.5v134q26 -16 57 -23.5t63 -7.5q119 0 119 138v412q0 73 -35 112t-101 39q-52 0 -96.5 -22t-78.5 -65v-509h-154v715h127l12 -96q92 111 231 111q80 0 135.5 -32.5t84.5 -94.5t29 -151v-422z" />
    <glyph glyph-name="ae.smcp" unicode="&#xf61f;" horiz-adv-x="892" 
d="M5 0q78 142 159.5 283.5t162.5 277.5h521v-119h-267v-100h238v-113h-238v-110h281v-119h-424v113h-211q-31 -57 -60 -113h-162zM288 227h150v215h-30q-30 -54 -60 -107.5t-60 -107.5z" />
    <glyph glyph-name="oe.smcp" unicode="&#xf621;" horiz-adv-x="902" 
d="M872 0h-378q-60 -13 -125 -13q-76 0 -136.5 20t-103 58.5t-65 92.5t-22.5 122t22.5 122t65 92.5t103 59t136.5 20.5q64 0 124 -13h365v-119h-267v-100h238v-113h-238v-110h281v-119zM195 280q0 -54 21.5 -92t61.5 -58.5t96 -20.5q40 0 74 8v327q-34 7 -74 7
q-56 0 -96 -20.5t-61.5 -58.5t-21.5 -92z" />
    <glyph glyph-name="Germandbls.smcp" horiz-adv-x="662" 
d="M627 160q0 -54 -25.5 -93t-74 -59.5t-116.5 -20.5q-41 0 -74 5.5t-61 18.5v123q26 -16 52.5 -22.5t59.5 -6.5q43 0 65.5 16.5t22.5 46.5q0 22 -12 35.5t-39 21.5t-73 11l-22 1v87l122 113q-22 8 -46.5 12t-51.5 4q-67 0 -102 -32.5t-35 -94.5v-326h-150v315
q0 81 34.5 139t98.5 89t154 31q58 0 117.5 -15.5t111.5 -43.5v-99l-109 -102q78 -14 115.5 -52t37.5 -102z" />
    <glyph glyph-name="kgreenlandic.smcp" unicode="&#xf62a;" horiz-adv-x="634" 
d="M247 234h-27v-234h-150v561h150v-210h31q47 53 90.5 104.5t86.5 105.5h175q-55 -66 -113 -133t-116 -131q63 -72 125.5 -146t126.5 -151h-186q-46 58 -93.5 116t-99.5 118z" />
    <glyph glyph-name="eng" unicode="&#x14b;" horiz-adv-x="601" 
d="M538 -28q0 -104 -49 -157.5t-147 -53.5q-47 0 -89 17v116q13 -8 28 -11t35 -3q38 0 56 22t18 65v356q0 43 -20 65t-57 22q-58 0 -98 -49v-361h-148v518h127l8 -63q64 76 157 76q85 0 132 -52.5t47 -149.5v-357z" />
    <glyph glyph-name="ae.alt" horiz-adv-x="869" 
d="M810 26q-75 -39 -180 -39q-70 0 -123.5 22t-88.5 64q-33 -43 -73.5 -64.5t-92.5 -21.5q-64 0 -111.5 32t-73.5 90.5t-26 139.5q0 89 33.5 152t96.5 96.5t152 33.5q81 0 166 -34q51 34 119 34q108 0 165.5 -68.5t57.5 -195.5v-43h-325q9 -62 44.5 -91t102.5 -29
q46 0 83.5 10t73.5 32v-120zM606 424q-43 0 -67.5 -30t-31.5 -83h187q-4 59 -25 86t-63 27zM192 255q0 -72 26 -110t75 -38q24 0 45.5 9.5t40.5 28.5q-18 50 -18 112q0 80 28 139q-19 8 -36.5 11.5t-38.5 3.5q-58 0 -90 -40.5t-32 -115.5z" />
    <glyph glyph-name="eng.smcp" unicode="&#xf620;" horiz-adv-x="660" 
d="M594 -19q0 -106 -54.5 -163t-155.5 -57q-34 0 -65.5 6t-55.5 18v123q38 -23 90 -23q91 0 91 88v367q0 53 -25.5 81t-73.5 28q-74 0 -125 -62v-387h-150v561h127l10 -76q75 89 186 89q96 0 148.5 -59t52.5 -168v-366z" />
    <glyph glyph-name="Eth" unicode="&#xd0;" horiz-adv-x="753" 
d="M707 359q0 -113 -42.5 -193.5t-122.5 -123t-194 -42.5h-272v319h-78v110h78v286h273q113 0 193.5 -42t122.5 -121.5t42 -192.5zM230 132h110q100 0 153.5 58.5t53.5 168.5q0 109 -52.5 166.5t-153.5 57.5h-111v-154h148v-110h-148v-187z" />
    <glyph glyph-name="Dcroat" unicode="&#x110;" horiz-adv-x="753" 
d="M707 359q0 -113 -42.5 -193.5t-122.5 -123t-194 -42.5h-272v319h-78v110h78v286h273q113 0 193.5 -42t122.5 -121.5t42 -192.5zM230 132h110q100 0 153.5 58.5t53.5 168.5q0 109 -52.5 166.5t-153.5 57.5h-111v-154h148v-110h-148v-187z" />
    <glyph glyph-name="Hbar" unicode="&#x126;" horiz-adv-x="771" 
d="M541 0v287h-311v-287h-154v514h-78v106h78v95h154v-95h311v95h154v-95h78v-106h-78v-514h-154zM230 421h311v93h-311v-93z" />
    <glyph glyph-name="Tbar" unicode="&#x166;" horiz-adv-x="636" 
d="M523 264h-128v-264h-154v264h-128v110h128v207h-225v134h604v-134h-225v-207h128v-110z" />
    <glyph glyph-name="Lslash" unicode="&#x141;" horiz-adv-x="585" 
d="M569 134v-134h-493v230l-78 -42v119l78 42v366h154v-284l215 115v-119l-215 -115v-178h339z" />
    <glyph glyph-name="Oslash" unicode="&#xd8;" horiz-adv-x="802" 
d="M401 -15q-50 0 -94 10.5t-82 29.5l-58 -78l-86 63l59 80q-45 49 -69.5 117t-24.5 151q0 86 25 154.5t71.5 117t112 74.5t146.5 26q50 0 94.5 -10t82.5 -30l57 78l86 -63l-58 -79q45 -49 69 -116.5t24 -151.5q0 -85 -25 -154t-71.5 -118t-112 -75t-146.5 -26zM206 358
q0 -87 29 -143l256 362q-38 19 -90 19q-61 0 -105 -28t-67 -81t-23 -129zM596 358q0 87 -29 144l-257 -364q39 -19 91 -19q61 0 105 28.5t67 81.5t23 129z" />
    <glyph glyph-name="eth" unicode="&#xf0;" horiz-adv-x="600" 
d="M559 268q0 -64 -18.5 -116t-52.5 -89t-81.5 -56.5t-106.5 -19.5q-79 0 -137 31t-90 87.5t-32 134.5q0 55 16.5 100t47 77.5t72.5 50t94 17.5q56 0 99 -30q-25 63 -67 119l-138 -53l-34 82l110 43q-56 55 -129 99h183q34 -25 64 -54l127 49l34 -82l-96 -37
q64 -79 99.5 -170t35.5 -183zM192 240q0 -63 28 -99t80 -36q51 0 79.5 39.5t28.5 110.5q0 46 -7 91q-42 28 -96 28q-53 0 -83 -35t-30 -99z" />
    <glyph glyph-name="dcroat" unicode="&#x111;" horiz-adv-x="605" 
d="M411 0l-7 57q-30 -36 -67 -53t-81 -17q-66 0 -114 31.5t-74.5 89t-26.5 135.5q0 85 31 146.5t87.5 95.5t134.5 34q51 0 96 -21v87h-168v90h168v70h148v-70h68v-90h-68v-585h-127zM192 249q0 -69 26.5 -105.5t78.5 -36.5q27 0 50 10.5t43 33.5v229q-19 10 -36.5 14.5
t-37.5 4.5q-59 0 -91.5 -39.5t-32.5 -110.5z" />
    <glyph glyph-name="hbar" unicode="&#x127;" horiz-adv-x="601" 
d="M313 398q-58 0 -98 -49v-349h-148v585h-68v90h68v70h148v-70h168v-90h-168v-128q60 62 144 62q85 0 132 -52.5t47 -149.5v-317h-148v311q0 43 -20 65t-57 22z" />
    <glyph glyph-name="tbar" unicode="&#x167;" horiz-adv-x="413" 
d="M393 11q-54 -24 -118 -24q-86 0 -131 44.5t-45 129.5v59h-87v90h87v93h-87v115h87v125l148 33v-158h135v-115h-135v-93h135v-90h-135v-43q0 -71 71 -71q18 0 37 4.5t38 14.5v-114z" />
    <glyph glyph-name="lslash" unicode="&#x142;" horiz-adv-x="326" 
d="M299 8q-39 -17 -97 -17q-137 0 -137 149v165l-68 -29v100l68 29v340h148v-276l86 37v-100l-86 -37v-216q0 -25 9.5 -35.5t32.5 -10.5q11 0 22 2.5t22 7.5v-109z" />
    <glyph glyph-name="oslash" unicode="&#xf8;" horiz-adv-x="600" 
d="M300 -13q-37 0 -69.5 7.5t-59.5 22.5l-41 -55l-66 49l42 56q-31 36 -48 84.5t-17 107.5q0 83 31.5 144t89.5 94.5t138 33.5q37 0 69.5 -7.5t59.5 -21.5l41 54l66 -48l-43 -56q32 -36 49 -84.5t17 -108.5q0 -62 -18 -112t-52 -86t-82 -55t-107 -19zM192 259q0 -41 8 -71
l154 210q-23 14 -54 14q-51 0 -79.5 -40t-28.5 -113zM408 259q0 41 -8 71l-154 -210q23 -14 54 -14q52 0 80 40.5t28 112.5z" />
    <glyph glyph-name="eth.smcp" unicode="&#xf622;" horiz-adv-x="647" 
d="M605 282q0 -89 -35.5 -152t-102 -96.5t-160.5 -33.5h-237v244h-66v92h66v225h238q94 0 160 -33t101.5 -95.5t35.5 -150.5zM220 122h80q74 0 112.5 41t38.5 119q0 77 -38.5 117t-111.5 40h-81v-103h113v-92h-113v-122z" />
    <glyph glyph-name="dcroat.smcp" unicode="&#xf653;" horiz-adv-x="647" 
d="M605 282q0 -89 -35.5 -152t-102 -96.5t-160.5 -33.5h-237v244h-66v92h66v225h238q94 0 160 -33t101.5 -95.5t35.5 -150.5zM220 122h80q74 0 112.5 41t38.5 119q0 77 -38.5 117t-111.5 40h-81v-103h113v-92h-113v-122z" />
    <glyph glyph-name="hbar.smcp" unicode="&#xf623;" horiz-adv-x="665" 
d="M445 0v203h-225v-203h-150v406h-66v88h66v67h150v-67h225v67h150v-67h66v-88h-66v-406h-150zM220 333h225v73h-225v-73z" />
    <glyph glyph-name="tbar.smcp" unicode="&#xf629;" horiz-adv-x="539" 
d="M454 200h-110v-200h-150v200h-110v92h110v144h-180v125h511v-125h-181v-144h110v-92z" />
    <glyph glyph-name="lslash.smcp" unicode="&#xf62b;" horiz-adv-x="504" 
d="M490 125v-125h-420v185l-66 -34v97l66 35v278h150v-200l170 89v-98l-170 -89v-138h270z" />
    <glyph glyph-name="oslash.smcp" unicode="&#xf627;" horiz-adv-x="668" 
d="M334 -13q-43 0 -81 9t-70 26l-55 -70l-64 51l54 68q-36 39 -56 92t-20 118q0 67 20.5 121t59 92.5t92 59t120.5 20.5q43 0 81 -9t70 -26l55 70l64 -50l-54 -69q37 -38 56.5 -91t19.5 -118q0 -67 -20.5 -121.5t-59 -93t-92.5 -59t-120 -20.5zM196 281q0 -55 16 -93
l189 246q-28 15 -67 15q-65 0 -101.5 -44.5t-36.5 -123.5zM472 281q0 55 -16 93l-191 -248q29 -15 69 -15q65 0 101.5 45t36.5 125z" />
    <glyph glyph-name="cedillacomb" unicode="&#x327;" horiz-adv-x="0" 
d="M127 -142q0 -46 -34.5 -71.5t-95.5 -25.5q-48 0 -87 13v73q17 -7 36.5 -11t37.5 -4q51 0 51 29q0 30 -50 30q-13 0 -26.5 -1.5t-24.5 -3.5l33 129h74l-18 -69h1q50 0 76.5 -24t26.5 -64z" />
    <glyph glyph-name="cedillacomb.cap" horiz-adv-x="0" 
d="M134 -142q0 -46 -36 -71.5t-99 -25.5q-24 0 -47 3t-43 10v76q18 -8 38.5 -12t39.5 -4q53 0 53 27q0 29 -52 29q-14 0 -29 -1.5t-26 -3.5l33 130h76l-18 -68h3q51 0 79 -24t28 -65z" />
    <glyph glyph-name="cedilla" unicode="&#xb8;" horiz-adv-x="500" 
d="M359 -142q0 -46 -34.5 -71.5t-95.5 -25.5q-48 0 -87 13v73q17 -7 36.5 -11t37.5 -4q51 0 51 29q0 30 -50 30q-13 0 -26.5 -1.5t-24.5 -3.5l33 129h74l-18 -69h1q50 0 76.5 -24t26.5 -64z" />
    <glyph glyph-name="commabelowcomb" unicode="&#x326;" horiz-adv-x="0" 
d="M66 -136q0 -32 -15 -66t-41 -61h-89q43 47 54 91q-19 4 -30 17.5t-11 33.5q0 26 18.5 41t47.5 15q32 0 49 -18t17 -53z" />
    <glyph glyph-name="commabelowcomb.cap" horiz-adv-x="0" 
d="M67 -136q0 -32 -15.5 -66t-40.5 -61h-91q42 46 54 89q-19 4 -30 18t-11 34q0 27 18.5 42t48.5 15q32 0 49.5 -18t17.5 -53z" />
    <glyph glyph-name="commaturnedabovecomb" unicode="&#x312;" horiz-adv-x="0" 
d="M69 661q0 -29 -19 -45t-49 -16q-70 0 -70 77q0 23 8 48t22.5 49t33.5 43h91q-25 -26 -40 -51t-21 -50q21 -5 32.5 -19.5t11.5 -35.5z" />
    <glyph glyph-name="ogonekcomb" unicode="&#x328;" horiz-adv-x="0" 
d="M-20 -239q-59 0 -91.5 25.5t-32.5 71.5q0 102 155 172l35 -30q-48 -27 -73 -56.5t-25 -60.5q0 -22 14 -34t41 -12q26 0 56 14v-75q-36 -15 -79 -15z" />
    <glyph glyph-name="ogonekcomb.cap" horiz-adv-x="0" 
d="M50 0q-52 -27 -78.5 -56.5t-26.5 -59.5q0 -22 15 -33.5t43 -11.5q14 0 29 3.5t31 10.5v-77q-19 -8 -40 -11.5t-42 -3.5q-62 0 -96 25.5t-34 72.5q0 102 159 172z" />
    <glyph glyph-name="ogonekcomb.round" horiz-adv-x="0" 
d="M82 20q-124 -64 -124 -135q0 -23 14 -35.5t41 -12.5q13 0 27 3.5t29 10.5v-75q-36 -15 -79 -15q-59 0 -91.5 26t-32.5 73q0 113 180 190z" />
    <glyph glyph-name="ogonekcomb.round.cap" horiz-adv-x="0" 
d="M87 20q-65 -32 -97 -66t-32 -68q0 -22 15 -34.5t43 -12.5q14 0 30 3.5t30 10.5v-77q-18 -8 -39.5 -11.5t-42.5 -3.5q-62 0 -96 26t-34 73q0 115 184 191z" />
    <glyph glyph-name="ogonek" unicode="&#x2db;" horiz-adv-x="500" 
d="M273 -239q-59 0 -91.5 25.5t-32.5 71.5q0 102 155 172l35 -30q-48 -27 -73 -56.5t-25 -60.5q0 -22 14 -34t41 -12q26 0 56 14v-75q-36 -15 -79 -15z" />
    <glyph glyph-name="Ccedilla" unicode="&#xc7;" horiz-adv-x="669" 
d="M411 -15q-85 0 -153 25.5t-115 73.5t-72 117.5t-25 156.5q0 85 26 153.5t75 117.5t117.5 75t153.5 26q59 0 111.5 -12.5t97.5 -36.5v-142q-41 28 -89 42.5t-101 14.5q-73 0 -124.5 -28t-79 -81t-27.5 -129t26.5 -129.5t77 -81.5t122.5 -28q110 0 203 59v-139
q-44 -25 -102 -39.5t-122 -14.5zM549 -142q0 -46 -36 -71.5t-99 -25.5q-24 0 -47 3t-43 10v76q18 -8 38.5 -12t39.5 -4q53 0 53 27q0 29 -52 29q-14 0 -29 -1.5t-26 -3.5l33 130h76l-18 -68h3q51 0 79 -24t28 -65z" />
    <glyph glyph-name="Scedilla" unicode="&#x15e;" horiz-adv-x="615" 
d="M278 -15q-59 0 -116.5 13t-110.5 41v138q107 -65 227 -65q68 0 103.5 23t35.5 64q0 31 -17.5 48.5t-46.5 28t-65 19.5q-59 14 -104 32t-76 42.5t-47 59t-16 82.5q0 68 34.5 117t97.5 75.5t150 26.5q57 0 112 -13t99 -35v-136q-44 27 -99.5 42t-111.5 15q-61 0 -94.5 -21
t-33.5 -60q0 -28 16 -44.5t45.5 -27t69.5 -20.5q51 -13 95 -28.5t77.5 -39.5t52 -61t18.5 -91q0 -71 -35 -121.5t-101 -77t-159 -26.5zM425 -142q0 -46 -36 -71.5t-99 -25.5q-24 0 -47 3t-43 10v76q18 -8 38.5 -12t39.5 -4q53 0 53 27q0 29 -52 29q-14 0 -29 -1.5t-26 -3.5
l33 130h76l-18 -68h3q51 0 79 -24t28 -65z" />
    <glyph glyph-name="Tcedilla" unicode="&#x162;" horiz-adv-x="636" 
d="M16 715h604v-134h-225v-581h-154v581h-225v134zM452 -142q0 -46 -36 -71.5t-99 -25.5q-24 0 -47 3t-43 10v76q18 -8 38.5 -12t39.5 -4q53 0 53 27q0 29 -52 29q-14 0 -29 -1.5t-26 -3.5l33 130h76l-18 -68h3q51 0 79 -24t28 -65z" />
    <glyph glyph-name="Gcommabelow" unicode="&#x122;" horiz-adv-x="741" 
d="M681 42q-34 -18 -77 -31t-90 -19.5t-94 -6.5q-87 0 -156.5 25.5t-118 74t-74 117.5t-25.5 156q0 85 27 153.5t77 117.5t120.5 75t157.5 26q65 0 124.5 -12.5t109.5 -36.5v-142q-46 28 -100.5 42.5t-117.5 14.5q-76 0 -129 -28t-81 -81t-28 -129q0 -116 58 -178.5
t166 -62.5q27 0 54 4t53 12v144h-128v121h272v-356zM492 -136q0 -32 -15.5 -66t-40.5 -61h-91q42 46 54 89q-19 4 -30 18t-11 34q0 27 18.5 42t48.5 15q32 0 49.5 -18t17.5 -53z" />
    <glyph glyph-name="Kcommabelow" unicode="&#x136;" horiz-adv-x="729" 
d="M267 308h-37v-308h-154v715h154v-277h40q64 72 122.5 139.5t115.5 137.5h185q-72 -85 -146 -168.5t-151 -168.5q82 -93 162.5 -186.5t162.5 -191.5h-196q-63 78 -126 153t-132 155zM442 -136q0 -32 -15.5 -66t-40.5 -61h-91q42 46 54 89q-19 4 -30 18t-11 34
q0 27 18.5 42t48.5 15q32 0 49.5 -18t17.5 -53z" />
    <glyph glyph-name="Lcommabelow" unicode="&#x13b;" horiz-adv-x="585" 
d="M76 715h154v-581h339v-134h-493v715zM403 -136q0 -32 -15.5 -66t-40.5 -61h-91q42 46 54 89q-19 4 -30 18t-11 34q0 27 18.5 42t48.5 15q32 0 49.5 -18t17.5 -53z" />
    <glyph glyph-name="Ncommabelow" unicode="&#x145;" horiz-adv-x="772" 
d="M540 0q-78 125 -158 250.5t-158 243.5v-494h-148v715h156q81 -121 159.5 -242.5t156.5 -246.5v489h148v-715h-156zM453 -136q0 -32 -15.5 -66t-40.5 -61h-91q42 46 54 89q-19 4 -30 18t-11 34q0 27 18.5 42t48.5 15q32 0 49.5 -18t17.5 -53z" />
    <glyph glyph-name="Scommabelow" unicode="&#x218;" horiz-adv-x="615" 
d="M278 -15q-59 0 -116.5 13t-110.5 41v138q107 -65 227 -65q68 0 103.5 23t35.5 64q0 31 -17.5 48.5t-46.5 28t-65 19.5q-59 14 -104 32t-76 42.5t-47 59t-16 82.5q0 68 34.5 117t97.5 75.5t150 26.5q57 0 112 -13t99 -35v-136q-44 27 -99.5 42t-111.5 15q-61 0 -94.5 -21
t-33.5 -60q0 -28 16 -44.5t45.5 -27t69.5 -20.5q51 -13 95 -28.5t77.5 -39.5t52 -61t18.5 -91q0 -71 -35 -121.5t-101 -77t-159 -26.5zM358 -136q0 -32 -15.5 -66t-40.5 -61h-91q42 46 54 89q-19 4 -30 18t-11 34q0 27 18.5 42t48.5 15q32 0 49.5 -18t17.5 -53z" />
    <glyph glyph-name="Tcommabelow" unicode="&#x21a;" horiz-adv-x="636" 
d="M16 715h604v-134h-225v-581h-154v581h-225v134zM385 -136q0 -32 -15.5 -66t-40.5 -61h-91q42 46 54 89q-19 4 -30 18t-11 34q0 27 18.5 42t48.5 15q32 0 49.5 -18t17.5 -53z" />
    <glyph glyph-name="Aogonek" unicode="&#x104;" horiz-adv-x="750" 
d="M570 0q-26 79 -52 155h-290q-26 -77 -52 -155h-165q68 188 138.5 367t142.5 348h166q74 -178 144.5 -357.5t136.5 -357.5h-169zM272 283h201q-24 70 -49.5 139.5t-50.5 136.5q-52 -137 -101 -276zM704 0q-52 -27 -78.5 -56.5t-26.5 -59.5q0 -22 15 -33.5t43 -11.5
q14 0 29 3.5t31 10.5v-77q-19 -8 -40 -11.5t-42 -3.5q-62 0 -96 25.5t-34 72.5q0 102 159 172z" />
    <glyph glyph-name="Eogonek" unicode="&#x118;" horiz-adv-x="620" 
d="M76 715h492v-128h-338v-155h300v-128h-300v-176h357v-128h-511v715zM557 0q-52 -27 -78.5 -56.5t-26.5 -59.5q0 -22 15 -33.5t43 -11.5q14 0 29 3.5t31 10.5v-77q-19 -8 -40 -11.5t-42 -3.5q-62 0 -96 25.5t-34 72.5q0 102 159 172z" />
    <glyph glyph-name="Iogonek" unicode="&#x12e;" horiz-adv-x="306" 
d="M76 715h154v-715h-154v715zM203 0q-52 -27 -78.5 -56.5t-26.5 -59.5q0 -22 15 -33.5t43 -11.5q14 0 29 3.5t31 10.5v-77q-19 -8 -40 -11.5t-42 -3.5q-62 0 -96 25.5t-34 72.5q0 102 159 172z" />
    <glyph glyph-name="Uogonek" unicode="&#x172;" horiz-adv-x="758" 
d="M379 -15q-96 0 -164.5 36.5t-105 105.5t-36.5 166v422h154v-439q0 -76 39.5 -116.5t112.5 -40.5t112.5 40.5t39.5 116.5v439h154v-422q0 -97 -36.5 -166t-105.5 -105.5t-164 -36.5zM540 20q-65 -32 -97 -66t-32 -68q0 -22 15 -34.5t43 -12.5q14 0 30 3.5t30 10.5v-77
q-18 -8 -39.5 -11.5t-42.5 -3.5q-62 0 -96 26t-34 73q0 115 184 191z" />
    <glyph glyph-name="ccedilla" unicode="&#xe7;" horiz-adv-x="493" 
d="M313 -13q-86 0 -147 32t-93 92.5t-32 147.5q0 62 19.5 112.5t55.5 86t87.5 54.5t114.5 19q40 0 74 -8t64 -23v-127q-26 19 -57 28.5t-64 9.5q-68 0 -105.5 -40t-37.5 -112t37 -112t103 -40q36 0 68 9t63 30v-124q-31 -17 -69.5 -26t-80.5 -9zM430 -142q0 -46 -34.5 -71.5
t-95.5 -25.5q-48 0 -87 13v73q17 -7 36.5 -11t37.5 -4q51 0 51 29q0 30 -50 30q-13 0 -26.5 -1.5t-24.5 -3.5l33 129h74l-18 -69h1q50 0 76.5 -24t26.5 -64z" />
    <glyph glyph-name="scedilla" unicode="&#x15f;" horiz-adv-x="478" 
d="M217 -13q-47 0 -91 9.5t-83 28.5v121q35 -23 77.5 -36t83.5 -13q92 0 92 51q0 22 -17.5 33t-60.5 22q-66 16 -105.5 37t-57 51.5t-17.5 74.5q0 51 26.5 88t75 57t116.5 20q46 0 89 -9.5t77 -28.5v-120q-30 23 -69.5 35.5t-79.5 12.5q-42 0 -66 -12t-24 -36q0 -15 7 -24
t24.5 -16t49.5 -15q64 -16 103 -37t57 -51.5t18 -74.5q0 -53 -27 -91t-77 -57.5t-121 -19.5zM356 -142q0 -46 -34.5 -71.5t-95.5 -25.5q-48 0 -87 13v73q17 -7 36.5 -11t37.5 -4q51 0 51 29q0 30 -50 30q-13 0 -26.5 -1.5t-24.5 -3.5l33 129h74l-18 -69h1q50 0 76.5 -24
t26.5 -64z" />
    <glyph glyph-name="tcedilla" unicode="&#x163;" horiz-adv-x="413" 
d="M393 11q-54 -24 -118 -24q-86 0 -131 44.5t-45 129.5v242h-87v115h87v125l148 33v-158h135v-115h-135v-226q0 -71 71 -71q18 0 37 4.5t38 14.5v-114zM389 -142q0 -46 -34.5 -71.5t-95.5 -25.5q-48 0 -87 13v73q17 -7 36.5 -11t37.5 -4q51 0 51 29q0 30 -50 30
q-13 0 -26.5 -1.5t-24.5 -3.5l33 129h74l-18 -69h1q50 0 76.5 -24t26.5 -64z" />
    <glyph glyph-name="gcommaabove" unicode="&#x123;" horiz-adv-x="605" 
d="M538 10q0 -122 -69 -185.5t-202 -63.5q-54 0 -100.5 10t-85.5 31v124q34 -22 78 -34t90 -12q141 0 141 123v61q-28 -30 -61 -44t-73 -14q-66 0 -114 31t-74.5 88t-26.5 134q0 86 34 147t98.5 93t156.5 32q50 0 100 -11.5t108 -36.5v-473zM192 265q0 -67 27 -103t78 -36
q55 0 93 43v229q-18 7 -35 10t-37 3q-61 0 -93.5 -37.5t-32.5 -108.5zM387 661q0 -29 -19 -45t-49 -16q-70 0 -70 77q0 23 8 48t22.5 49t33.5 43h91q-25 -26 -40 -51t-21 -50q21 -5 32.5 -19.5t11.5 -35.5z" />
    <glyph glyph-name="kcommabelow" unicode="&#x137;" horiz-adv-x="589" 
d="M245 218h-30v-218h-148v745h148v-414h31q40 48 76.5 94t71.5 93h165q-48 -61 -97 -120t-98 -116q56 -71 110 -140t107 -142h-175q-42 61 -81 114t-80 104zM376 -136q0 -32 -15 -66t-41 -61h-89q43 47 54 91q-19 4 -30 17.5t-11 33.5q0 26 18.5 41t47.5 15q32 0 49 -18
t17 -53z" />
    <glyph glyph-name="lcommabelow" unicode="&#x13c;" horiz-adv-x="326" 
d="M202 -9q-137 0 -137 149v605h148v-592q0 -25 9.5 -35.5t32.5 -10.5q11 0 22 2.5t22 7.5v-109q-39 -17 -97 -17zM260 -136q0 -32 -15 -66t-41 -61h-89q43 47 54 91q-19 4 -30 17.5t-11 33.5q0 26 18.5 41t47.5 15q32 0 49 -18t17 -53z" />
    <glyph glyph-name="ncommabelow" unicode="&#x146;" horiz-adv-x="601" 
d="M313 410q-58 0 -98 -49v-361h-148v518h127l8 -63q64 76 157 76q85 0 132 -52.5t47 -149.5v-329h-148v323q0 43 -20 65t-57 22zM368 -136q0 -32 -15 -66t-41 -61h-89q43 47 54 91q-19 4 -30 17.5t-11 33.5q0 26 18.5 41t47.5 15q32 0 49 -18t17 -53z" />
    <glyph glyph-name="scommabelow" unicode="&#x219;" horiz-adv-x="478" 
d="M217 -13q-47 0 -91 9.5t-83 28.5v121q35 -23 77.5 -36t83.5 -13q92 0 92 51q0 22 -17.5 33t-60.5 22q-66 16 -105.5 37t-57 51.5t-17.5 74.5q0 51 26.5 88t75 57t116.5 20q46 0 89 -9.5t77 -28.5v-120q-30 23 -69.5 35.5t-79.5 12.5q-42 0 -66 -12t-24 -36q0 -15 7 -24
t24.5 -16t49.5 -15q64 -16 103 -37t57 -51.5t18 -74.5q0 -53 -27 -91t-77 -57.5t-121 -19.5zM295 -136q0 -32 -15 -66t-41 -61h-89q43 47 54 91q-19 4 -30 17.5t-11 33.5q0 26 18.5 41t47.5 15q32 0 49 -18t17 -53z" />
    <glyph glyph-name="tcommabelow" unicode="&#x21b;" horiz-adv-x="413" 
d="M393 11q-54 -24 -118 -24q-86 0 -131 44.5t-45 129.5v242h-87v115h87v125l148 33v-158h135v-115h-135v-226q0 -71 71 -71q18 0 37 4.5t38 14.5v-114zM328 -136q0 -32 -15 -66t-41 -61h-89q43 47 54 91q-19 4 -30 17.5t-11 33.5q0 26 18.5 41t47.5 15q32 0 49 -18t17 -53z
" />
    <glyph glyph-name="aogonek" unicode="&#x105;" horiz-adv-x="552" 
d="M460 -10q-86 0 -107 57q-32 -30 -69 -45t-82 -15q-78 0 -122 40.5t-44 112.5q0 79 60.5 121.5t174.5 42.5q16 0 34.5 -1.5t36.5 -4.5v23q0 47 -26 70t-80 23q-45 0 -84.5 -12t-76.5 -38v124q43 21 89 32t93 11q109 0 168 -54.5t59 -155.5v-194q0 -18 6 -26.5t22 -8.5
q8 0 15 1.5t14 5.5v-91q-16 -8 -37.5 -13t-43.5 -5zM180 153q0 -61 70 -61q53 0 92 43v79q-14 3 -29.5 4.5t-30.5 1.5q-52 0 -77 -16t-25 -51zM456 -239q-59 0 -91.5 25.5t-32.5 71.5q0 102 155 172l35 -30q-48 -27 -73 -56.5t-25 -60.5q0 -22 14 -34t41 -12q26 0 56 14v-75
q-36 -15 -79 -15z" />
    <glyph glyph-name="eogonek" unicode="&#x119;" horiz-adv-x="554" 
d="M495 26q-77 -39 -182 -39q-85 0 -146 32t-93.5 92.5t-32.5 145.5q0 63 17.5 113.5t50.5 86.5t79 55t103 19q109 0 167 -67.5t58 -193.5v-43h-330q8 -63 44.5 -93t105.5 -30q46 0 83.5 10t75.5 32v-120zM289 424q-42 0 -68 -28.5t-34 -81.5h192q-4 57 -26 83.5t-64 26.5z
M482 20q-124 -64 -124 -135q0 -23 14 -35.5t41 -12.5q13 0 27 3.5t29 10.5v-75q-36 -15 -79 -15q-59 0 -91.5 26t-32.5 73q0 113 180 190z" />
    <glyph glyph-name="iogonek" unicode="&#x12f;" horiz-adv-x="282" 
d="M141 748q40 0 63 -20.5t23 -56.5q0 -35 -23 -55.5t-63 -20.5t-63 20.5t-23 55.5q0 36 23 56.5t63 20.5zM67 518h148v-518h-148v518zM121 -239q-59 0 -91.5 25.5t-32.5 71.5q0 102 155 172l35 -30q-48 -27 -73 -56.5t-25 -60.5q0 -22 14 -34t41 -12q26 0 56 14v-75
q-36 -15 -79 -15z" />
    <glyph glyph-name="uogonek" unicode="&#x173;" 
d="M402 0l-8 62q-63 -75 -154 -75q-85 0 -131 52t-46 147v332h148v-326q0 -41 19 -62.5t56 -21.5q28 0 52.5 12.5t42.5 35.5v362h148v-518h-127zM435 -239q-59 0 -91.5 25.5t-32.5 71.5q0 102 155 172l35 -30q-48 -27 -73 -56.5t-25 -60.5q0 -22 14 -34t41 -12q26 0 56 14
v-75q-36 -15 -79 -15z" />
    <glyph glyph-name="ccedilla.smcp" unicode="&#xf651;" horiz-adv-x="553" 
d="M347 -13q-95 0 -163.5 35t-105 100.5t-36.5 157.5q0 67 21.5 121t62.5 92.5t98 59.5t128 21q92 0 164 -35v-131q-64 41 -145 41q-84 0 -129.5 -44.5t-45.5 -124.5t44.5 -124.5t126.5 -44.5t155 43v-128q-35 -19 -80.5 -29t-94.5 -10zM472 -142q0 -46 -34.5 -71.5
t-95.5 -25.5q-48 0 -87 13v73q17 -7 36.5 -11t37.5 -4q51 0 51 29q0 30 -50 30q-13 0 -26.5 -1.5t-24.5 -3.5l33 129h74l-18 -69h1q50 0 76.5 -24t26.5 -64z" />
    <glyph glyph-name="scedilla.smcp" unicode="&#xf682;" horiz-adv-x="535" 
d="M48 156q88 -51 189 -51q51 0 79 13.5t28 37.5q0 16 -9 27.5t-31 20t-62 16.5q-72 16 -116.5 38.5t-64.5 56t-20 81.5q0 55 30.5 95t87.5 61.5t135 21.5q45 0 90.5 -10t80.5 -29v-125q-37 23 -82.5 34.5t-88.5 11.5q-49 0 -76.5 -12t-27.5 -38q0 -15 8.5 -24.5t31.5 -17.5
t66 -17q72 -15 116 -38t63.5 -57.5t19.5 -83.5q0 -57 -30 -97.5t-87.5 -62t-137.5 -21.5q-106 0 -192 42v127zM383 -142q0 -46 -34.5 -71.5t-95.5 -25.5q-48 0 -87 13v73q17 -7 36.5 -11t37.5 -4q51 0 51 29q0 30 -50 30q-13 0 -26.5 -1.5t-24.5 -3.5l33 129h74l-18 -69h1
q50 0 76.5 -24t26.5 -64z" />
    <glyph glyph-name="tcedilla.smcp" unicode="&#xf687;" horiz-adv-x="539" 
d="M14 561h511v-125h-181v-436h-150v436h-180v125zM396 -142q0 -46 -34.5 -71.5t-95.5 -25.5q-48 0 -87 13v73q17 -7 36.5 -11t37.5 -4q51 0 51 29q0 30 -50 30q-13 0 -26.5 -1.5t-24.5 -3.5l33 129h74l-18 -69h1q50 0 76.5 -24t26.5 -64z" />
    <glyph glyph-name="gcommaabove.smcp" horiz-adv-x="621" 
d="M566 30q-29 -14 -65 -23.5t-75.5 -14.5t-79.5 -5q-95 0 -163 35.5t-104.5 101t-36.5 156.5q0 67 22.5 121t65 92.5t101.5 59.5t132 21q104 0 185 -35v-131q-36 20 -77.5 30.5t-90.5 10.5q-88 0 -136 -44t-48 -125q0 -82 41 -126.5t118 -44.5q37 0 75 8v95h-94v110h230
v-292zM420 -136q0 -32 -15 -66t-41 -61h-89q43 47 54 91q-19 4 -30 17.5t-11 33.5q0 26 18.5 41t47.5 15q32 0 49 -18t17 -53z" />
    <glyph glyph-name="kcommabelow.smcp" horiz-adv-x="634" 
d="M247 234h-27v-234h-150v561h150v-210h31q47 53 90.5 104.5t86.5 105.5h175q-55 -66 -113 -133t-116 -131q63 -72 125.5 -146t126.5 -151h-186q-46 58 -93.5 116t-99.5 118zM393 -136q0 -32 -15 -66t-41 -61h-89q43 47 54 91q-19 4 -30 17.5t-11 33.5q0 26 18.5 41
t47.5 15q32 0 49 -18t17 -53z" />
    <glyph glyph-name="lcommabelow.smcp" horiz-adv-x="504" 
d="M70 561h150v-436h270v-125h-420v561zM361 -136q0 -32 -15 -66t-41 -61h-89q43 47 54 91q-19 4 -30 17.5t-11 33.5q0 26 18.5 41t47.5 15q32 0 49 -18t17 -53z" />
    <glyph glyph-name="ncommabelow.smcp" horiz-adv-x="669" 
d="M450 0q-56 86 -117 178t-121 180v-358h-142v561h149q61 -88 121.5 -178t116.5 -177v355h142v-561h-149zM400 -136q0 -32 -15 -66t-41 -61h-89q43 47 54 91q-19 4 -30 17.5t-11 33.5q0 26 18.5 41t47.5 15q32 0 49 -18t17 -53z" />
    <glyph glyph-name="scommabelow.smcp" horiz-adv-x="535" 
d="M48 156q88 -51 189 -51q51 0 79 13.5t28 37.5q0 16 -9 27.5t-31 20t-62 16.5q-72 16 -116.5 38.5t-64.5 56t-20 81.5q0 55 30.5 95t87.5 61.5t135 21.5q45 0 90.5 -10t80.5 -29v-125q-37 23 -82.5 34.5t-88.5 11.5q-49 0 -76.5 -12t-27.5 -38q0 -15 8.5 -24.5t31.5 -17.5
t66 -17q72 -15 116 -38t63.5 -57.5t19.5 -83.5q0 -57 -30 -97.5t-87.5 -62t-137.5 -21.5q-106 0 -192 42v127zM322 -136q0 -32 -15 -66t-41 -61h-89q43 47 54 91q-19 4 -30 17.5t-11 33.5q0 26 18.5 41t47.5 15q32 0 49 -18t17 -53z" />
    <glyph glyph-name="tcommabelow.smcp" unicode="&#xf686;" horiz-adv-x="539" 
d="M14 561h511v-125h-181v-436h-150v436h-180v125zM335 -136q0 -32 -15 -66t-41 -61h-89q43 47 54 91q-19 4 -30 17.5t-11 33.5q0 26 18.5 41t47.5 15q32 0 49 -18t17 -53z" />
    <glyph glyph-name="aogonek.smcp" unicode="&#xf646;" horiz-adv-x="645" 
d="M471 0q-9 28 -18.5 56.5t-19.5 56.5h-224q-20 -57 -39 -113h-161q58 149 116 290t115 271h165q58 -132 116 -273t115 -288h-165zM249 227h144q-17 50 -35.5 100t-36.5 99q-37 -100 -72 -199zM533 -239q-59 0 -91.5 25.5t-32.5 71.5q0 102 155 172l35 -30
q-48 -27 -73 -56.5t-25 -60.5q0 -22 14 -34t41 -12q26 0 56 14v-75q-36 -15 -79 -15z" />
    <glyph glyph-name="eogonek.smcp" unicode="&#xf65b;" horiz-adv-x="537" 
d="M70 561h423v-119h-277v-100h248v-113h-248v-110h291v-119h-437v561zM407 -239q-59 0 -91.5 25.5t-32.5 71.5q0 102 155 172l35 -30q-48 -27 -73 -56.5t-25 -60.5q0 -22 14 -34t41 -12q26 0 56 14v-75q-36 -15 -79 -15z" />
    <glyph glyph-name="iogonek.smcp" unicode="&#xf667;" horiz-adv-x="290" 
d="M70 0v561h150v-561h-150zM125 -239q-59 0 -91.5 25.5t-32.5 71.5q0 102 155 172l35 -30q-48 -27 -73 -56.5t-25 -60.5q0 -22 14 -34t41 -12q26 0 56 14v-75q-36 -15 -79 -15z" />
    <glyph glyph-name="uogonek.smcp" unicode="&#xf68e;" horiz-adv-x="654" 
d="M327 -13q-81 0 -139.5 30t-89.5 86t-31 134v324h150v-338q0 -54 28.5 -83t81.5 -29t81.5 29t28.5 83v338h150v-324q0 -78 -31 -134t-89.5 -86t-139.5 -30zM349 -239q-59 0 -91.5 25.5t-32.5 71.5q0 102 155 172l35 -30q-48 -27 -73 -56.5t-25 -60.5q0 -22 14 -34t41 -12
q26 0 56 14v-75q-36 -15 -79 -15z" />
    <glyph glyph-name="aogonek.alt" horiz-adv-x="597" 
d="M403 0l-8 59q-56 -72 -143 -72q-64 0 -111.5 32t-73.5 90.5t-26 139.5q0 89 33.5 152t96.5 96.5t152 33.5q99 0 207 -48v-483h-127zM192 255q0 -72 26 -110t75 -38q26 0 48 10t41 32v250q-17 7 -33 9.5t-35 2.5q-58 0 -90 -40.5t-32 -115.5zM436 -239q-59 0 -91.5 25.5
t-32.5 71.5q0 102 155 172l35 -30q-48 -27 -73 -56.5t-25 -60.5q0 -22 14 -34t41 -12q26 0 56 14v-75q-36 -15 -79 -15z" />
    <glyph glyph-name="acutecomb" unicode="&#x301;" horiz-adv-x="0" 
d="M187 762q-95 -96 -153 -162h-128q31 44 62.5 85t59.5 77h159z" />
    <glyph glyph-name="acutecomb.cap" horiz-adv-x="0" 
d="M209 915q-48 -35 -91.5 -68t-77.5 -61h-144q34 33 71 66.5t72 62.5h170z" />
    <glyph glyph-name="acute" unicode="&#xb4;" horiz-adv-x="500" 
d="M391 762q-95 -96 -153 -162h-128q31 44 62.5 85t59.5 77h159z" />
    <glyph glyph-name="hungarumlautcomb" unicode="&#x30b;" horiz-adv-x="0" 
d="M108 762q-94 -96 -153 -162h-116q31 44 62 85t60 77h147zM319 762q-95 -96 -153 -162h-116q31 44 62.5 85t59.5 77h147z" />
    <glyph glyph-name="hungarumlautcomb.cap" horiz-adv-x="0" 
d="M125 915q-48 -35 -91.5 -68t-77.5 -61h-133q35 33 72 66.5t72 62.5h158zM351 915q-48 -35 -91 -68t-77 -61h-133q34 33 71 66.5t72 62.5h158z" />
    <glyph glyph-name="hungarumlaut" unicode="&#x2dd;" horiz-adv-x="500" 
d="M279 762q-94 -96 -153 -162h-116q31 44 62 85t60 77h147zM490 762q-95 -96 -153 -162h-116q31 44 62.5 85t59.5 77h147z" />
    <glyph glyph-name="Aacute" unicode="&#xc1;" horiz-adv-x="750" 
d="M570 0q-26 79 -52 155h-290q-26 -77 -52 -155h-165q68 188 138.5 367t142.5 348h166q74 -178 144.5 -357.5t136.5 -357.5h-169zM272 283h201q-24 70 -49.5 139.5t-50.5 136.5q-52 -137 -101 -276zM584 915q-48 -35 -91.5 -68t-77.5 -61h-144q34 33 71 66.5t72 62.5h170z
" />
    <glyph glyph-name="Cacute" unicode="&#x106;" horiz-adv-x="669" 
d="M411 -15q-85 0 -153 25.5t-115 73.5t-72 117.5t-25 156.5q0 85 26 153.5t75 117.5t117.5 75t153.5 26q59 0 111.5 -12.5t97.5 -36.5v-142q-41 28 -89 42.5t-101 14.5q-73 0 -124.5 -28t-79 -81t-27.5 -129t26.5 -129.5t77 -81.5t122.5 -28q110 0 203 59v-139
q-44 -25 -102 -39.5t-122 -14.5zM624 915q-48 -35 -91.5 -68t-77.5 -61h-144q34 33 71 66.5t72 62.5h170z" />
    <glyph glyph-name="Eacute" unicode="&#xc9;" horiz-adv-x="620" 
d="M76 715h492v-128h-338v-155h300v-128h-300v-176h357v-128h-511v715zM540 915q-48 -35 -91.5 -68t-77.5 -61h-144q34 33 71 66.5t72 62.5h170z" />
    <glyph glyph-name="Iacute" unicode="&#xcd;" horiz-adv-x="306" 
d="M76 715h154v-715h-154v715zM362 915q-48 -35 -91.5 -68t-77.5 -61h-144q34 33 71 66.5t72 62.5h170z" />
    <glyph glyph-name="Lacute" unicode="&#x139;" horiz-adv-x="585" 
d="M76 715h154v-581h339v-134h-493v715zM362 915q-48 -35 -91.5 -68t-77.5 -61h-144q34 33 71 66.5t72 62.5h170z" />
    <glyph glyph-name="Nacute" unicode="&#x143;" horiz-adv-x="772" 
d="M540 0q-78 125 -158 250.5t-158 243.5v-494h-148v715h156q81 -121 159.5 -242.5t156.5 -246.5v489h148v-715h-156zM605 915q-48 -35 -91.5 -68t-77.5 -61h-144q34 33 71 66.5t72 62.5h170z" />
    <glyph glyph-name="Oacute" unicode="&#xd3;" horiz-adv-x="802" 
d="M401 730q81 0 146.5 -26t112 -74.5t71.5 -117t25 -154.5q0 -85 -25 -154t-71.5 -118t-112 -75t-146.5 -26t-146.5 26t-112 75t-71.5 118t-25 154q0 86 25 154.5t71.5 117t112 74.5t146.5 26zM401 119q61 0 105 28.5t67 81.5t23 129t-23 129t-67 81t-105 28t-105 -28
t-67 -81t-23 -129t23 -129t67 -81.5t105 -28.5zM610 915q-48 -35 -91.5 -68t-77.5 -61h-144q34 33 71 66.5t72 62.5h170z" />
    <glyph glyph-name="Racute" unicode="&#x154;" horiz-adv-x="689" 
d="M228 260v-260h-152v715h261q141 0 216.5 -59t75.5 -169q0 -71 -33.5 -121t-95.5 -77q45 -71 89 -142.5t88 -146.5h-177q-72 132 -149 260h-15h-108zM228 381h100q71 0 108 25.5t37 80.5t-36.5 81t-107.5 26h-101v-213zM549 915q-48 -35 -91.5 -68t-77.5 -61h-144
q34 33 71 66.5t72 62.5h170z" />
    <glyph glyph-name="Sacute" unicode="&#x15a;" horiz-adv-x="615" 
d="M278 -15q-59 0 -116.5 13t-110.5 41v138q107 -65 227 -65q68 0 103.5 23t35.5 64q0 31 -17.5 48.5t-46.5 28t-65 19.5q-59 14 -104 32t-76 42.5t-47 59t-16 82.5q0 68 34.5 117t97.5 75.5t150 26.5q57 0 112 -13t99 -35v-136q-44 27 -99.5 42t-111.5 15q-61 0 -94.5 -21
t-33.5 -60q0 -28 16 -44.5t45.5 -27t69.5 -20.5q51 -13 95 -28.5t77.5 -39.5t52 -61t18.5 -91q0 -71 -35 -121.5t-101 -77t-159 -26.5zM539 915q-48 -35 -91.5 -68t-77.5 -61h-144q34 33 71 66.5t72 62.5h170z" />
    <glyph glyph-name="Uacute" unicode="&#xda;" horiz-adv-x="758" 
d="M379 -15q-96 0 -164.5 36.5t-105 105.5t-36.5 166v422h154v-439q0 -76 39.5 -116.5t112.5 -40.5t112.5 40.5t39.5 116.5v439h154v-422q0 -97 -36.5 -166t-105.5 -105.5t-164 -36.5zM588 915q-48 -35 -91.5 -68t-77.5 -61h-144q34 33 71 66.5t72 62.5h170z" />
    <glyph glyph-name="Wacute" unicode="&#x1e82;" horiz-adv-x="990" 
d="M624 0q-34 121 -66.5 242t-63.5 242q-30 -121 -62 -242t-66 -242h-163q-51 175 -98 354t-89 361h168q25 -139 53 -278t59 -273q67 261 127 521h150q30 -128 61.5 -255.5t64.5 -254.5q30 132 58 268t52 272h165q-42 -182 -89 -361t-98 -354h-163zM707 915
q-48 -35 -91.5 -68t-77.5 -61h-144q34 33 71 66.5t72 62.5h170z" />
    <glyph glyph-name="Yacute" unicode="&#xdd;" horiz-adv-x="719" 
d="M436 271v-271h-154v271q-70 110 -137 221t-131 223h175q41 -79 84.5 -158t87.5 -156q45 78 88 156.5t85 157.5h171q-65 -112 -132 -223t-137 -221zM568 915q-48 -35 -91.5 -68t-77.5 -61h-144q34 33 71 66.5t72 62.5h170z" />
    <glyph glyph-name="Zacute" unicode="&#x179;" horiz-adv-x="651" 
d="M615 130v-130h-579v110q91 122 182 240.5t182 234.5h-347v130h549v-110q-92 -117 -184 -236t-182 -239h379zM536 915q-48 -35 -91.5 -68t-77.5 -61h-144q34 33 71 66.5t72 62.5h170z" />
    <glyph glyph-name="Ohungarumlaut" unicode="&#x150;" horiz-adv-x="802" 
d="M401 730q81 0 146.5 -26t112 -74.5t71.5 -117t25 -154.5q0 -85 -25 -154t-71.5 -118t-112 -75t-146.5 -26t-146.5 26t-112 75t-71.5 118t-25 154q0 86 25 154.5t71.5 117t112 74.5t146.5 26zM401 119q61 0 105 28.5t67 81.5t23 129t-23 129t-67 81t-105 28t-105 -28
t-67 -81t-23 -129t23 -129t67 -81.5t105 -28.5zM526 915q-48 -35 -91.5 -68t-77.5 -61h-133q35 33 72 66.5t72 62.5h158zM752 915q-48 -35 -91 -68t-77 -61h-133q34 33 71 66.5t72 62.5h158z" />
    <glyph glyph-name="Uhungarumlaut" unicode="&#x170;" horiz-adv-x="758" 
d="M379 -15q-96 0 -164.5 36.5t-105 105.5t-36.5 166v422h154v-439q0 -76 39.5 -116.5t112.5 -40.5t112.5 40.5t39.5 116.5v439h154v-422q0 -97 -36.5 -166t-105.5 -105.5t-164 -36.5zM504 915q-48 -35 -91.5 -68t-77.5 -61h-133q35 33 72 66.5t72 62.5h158zM730 915
q-48 -35 -91 -68t-77 -61h-133q34 33 71 66.5t72 62.5h158z" />
    <glyph glyph-name="aacute" unicode="&#xe1;" horiz-adv-x="552" 
d="M460 -10q-86 0 -107 57q-32 -30 -69 -45t-82 -15q-78 0 -122 40.5t-44 112.5q0 79 60.5 121.5t174.5 42.5q16 0 34.5 -1.5t36.5 -4.5v23q0 47 -26 70t-80 23q-45 0 -84.5 -12t-76.5 -38v124q43 21 89 32t93 11q109 0 168 -54.5t59 -155.5v-194q0 -18 6 -26.5t22 -8.5
q8 0 15 1.5t14 5.5v-91q-16 -8 -37.5 -13t-43.5 -5zM180 153q0 -61 70 -61q53 0 92 43v79q-14 3 -29.5 4.5t-30.5 1.5q-52 0 -77 -16t-25 -51zM451 762q-95 -96 -153 -162h-128q31 44 62.5 85t59.5 77h159z" />
    <glyph glyph-name="cacute" unicode="&#x107;" horiz-adv-x="493" 
d="M313 -13q-86 0 -147 32t-93 92.5t-32 147.5q0 62 19.5 112.5t55.5 86t87.5 54.5t114.5 19q40 0 74 -8t64 -23v-127q-26 19 -57 28.5t-64 9.5q-68 0 -105.5 -40t-37.5 -112t37 -112t103 -40q36 0 68 9t63 30v-124q-31 -17 -69.5 -26t-80.5 -9zM487 762q-95 -96 -153 -162
h-128q31 44 62.5 85t59.5 77h159z" />
    <glyph glyph-name="eacute" unicode="&#xe9;" horiz-adv-x="554" 
d="M495 26q-77 -39 -182 -39q-85 0 -146 32t-93.5 92.5t-32.5 145.5q0 63 17.5 113.5t50.5 86.5t79 55t103 19q109 0 167 -67.5t58 -193.5v-43h-330q8 -63 44.5 -93t105.5 -30q46 0 83.5 10t75.5 32v-120zM289 424q-42 0 -68 -28.5t-34 -81.5h192q-4 57 -26 83.5t-64 26.5z
M482 762q-95 -96 -153 -162h-128q31 44 62.5 85t59.5 77h159z" />
    <glyph glyph-name="iacute" unicode="&#xed;" horiz-adv-x="282" 
d="M67 518h148v-518h-148v518zM328 762q-95 -96 -153 -162h-128q31 44 62.5 85t59.5 77h159z" />
    <glyph glyph-name="lacute" unicode="&#x13a;" horiz-adv-x="326" 
d="M202 -9q-137 0 -137 149v605h148v-592q0 -25 9.5 -35.5t32.5 -10.5q11 0 22 2.5t22 7.5v-109q-39 -17 -97 -17zM348 952q-48 -35 -91.5 -68t-77.5 -61h-144q34 33 71 66.5t72 62.5h170z" />
    <glyph glyph-name="nacute" unicode="&#x144;" horiz-adv-x="601" 
d="M313 410q-58 0 -98 -49v-361h-148v518h127l8 -63q64 76 157 76q85 0 132 -52.5t47 -149.5v-329h-148v323q0 43 -20 65t-57 22zM500 762q-95 -96 -153 -162h-128q31 44 62.5 85t59.5 77h159z" />
    <glyph glyph-name="oacute" unicode="&#xf3;" horiz-adv-x="600" 
d="M300 531q80 0 138 -33.5t89.5 -94.5t31.5 -144q0 -62 -18 -112t-52 -86t-82 -55t-107 -19t-107 19t-82 55t-52 86t-18 112q0 83 31.5 144t89.5 94.5t138 33.5zM300 106q52 0 80 40.5t28 112.5q0 73 -28.5 113t-79.5 40t-79.5 -40t-28.5 -113q0 -72 28 -112.5t80 -40.5z
M487 762q-95 -96 -153 -162h-128q31 44 62.5 85t59.5 77h159z" />
    <glyph glyph-name="racute" unicode="&#x155;" horiz-adv-x="416" 
d="M338 399q-74 0 -123 -63v-336h-148v518h127l10 -80q55 89 138 89q20 0 35 -3t29 -10v-133q-28 18 -68 18zM433 762q-95 -96 -153 -162h-128q31 44 62.5 85t59.5 77h159z" />
    <glyph glyph-name="sacute" unicode="&#x15b;" horiz-adv-x="478" 
d="M217 -13q-47 0 -91 9.5t-83 28.5v121q35 -23 77.5 -36t83.5 -13q92 0 92 51q0 22 -17.5 33t-60.5 22q-66 16 -105.5 37t-57 51.5t-17.5 74.5q0 51 26.5 88t75 57t116.5 20q46 0 89 -9.5t77 -28.5v-120q-30 23 -69.5 35.5t-79.5 12.5q-42 0 -66 -12t-24 -36q0 -15 7 -24
t24.5 -16t49.5 -15q64 -16 103 -37t57 -51.5t18 -74.5q0 -53 -27 -91t-77 -57.5t-121 -19.5zM443 762q-95 -96 -153 -162h-128q31 44 62.5 85t59.5 77h159z" />
    <glyph glyph-name="uacute" unicode="&#xfa;" 
d="M402 0l-8 62q-63 -75 -154 -75q-85 0 -131 52t-46 147v332h148v-326q0 -41 19 -62.5t56 -21.5q28 0 52.5 12.5t42.5 35.5v362h148v-518h-127zM483 762q-95 -96 -153 -162h-128q31 44 62.5 85t59.5 77h159z" />
    <glyph glyph-name="wacute" unicode="&#x1e83;" horiz-adv-x="792" 
d="M491 0q-25 83 -48.5 166.5t-45.5 167.5q-23 -84 -47 -167.5t-49 -166.5h-148q-39 128 -75 258t-69 260h156q17 -96 35.5 -189t38.5 -185q24 88 46.5 176t43.5 178h138q21 -88 43 -175t46 -173q21 92 39.5 183t35.5 185h152q-33 -130 -69 -259.5t-75 -258.5h-148zM585 762
q-95 -96 -153 -162h-128q31 44 62.5 85t59.5 77h159z" />
    <glyph glyph-name="yacute" unicode="&#xfd;" horiz-adv-x="558" 
d="M324 -59q-21 -49 -42 -83.5t-45.5 -56t-54.5 -31t-69 -9.5q-31 0 -55.5 4t-44.5 13v116q13 -7 34 -11.5t41 -4.5q26 0 43.5 7t30.5 23t24 42q6 14 11 27.5t11 26.5q-53 129 -103 257.5t-97 256.5h159q26 -92 54.5 -182t59.5 -179q31 90 59.5 180t54.5 181h155
q-16 -46 -36.5 -99.5t-42 -110t-43.5 -111.5t-41.5 -104.5t-36 -88.5t-26.5 -63zM466 762q-95 -96 -153 -162h-128q31 44 62.5 85t59.5 77h159z" />
    <glyph glyph-name="zacute" unicode="&#x17a;" horiz-adv-x="494" 
d="M462 114v-114h-432v100q62 78 125 153.5t127 150.5h-240v114h412v-100q-66 -77 -129.5 -152.5t-124.5 -151.5h262zM437 762q-95 -96 -153 -162h-128q31 44 62.5 85t59.5 77h159z" />
    <glyph glyph-name="ohungarumlaut" unicode="&#x151;" horiz-adv-x="600" 
d="M300 531q80 0 138 -33.5t89.5 -94.5t31.5 -144q0 -62 -18 -112t-52 -86t-82 -55t-107 -19t-107 19t-82 55t-52 86t-18 112q0 83 31.5 144t89.5 94.5t138 33.5zM300 106q52 0 80 40.5t28 112.5q0 73 -28.5 113t-79.5 40t-79.5 -40t-28.5 -113q0 -72 28 -112.5t80 -40.5z
M408 762q-94 -96 -153 -162h-116q31 44 62 85t60 77h147zM619 762q-95 -96 -153 -162h-116q31 44 62.5 85t59.5 77h147z" />
    <glyph glyph-name="uhungarumlaut" unicode="&#x171;" 
d="M402 0l-8 62q-63 -75 -154 -75q-85 0 -131 52t-46 147v332h148v-326q0 -41 19 -62.5t56 -21.5q28 0 52.5 12.5t42.5 35.5v362h148v-518h-127zM404 762q-94 -96 -153 -162h-116q31 44 62 85t60 77h147zM615 762q-95 -96 -153 -162h-116q31 44 62.5 85t59.5 77h147z" />
    <glyph glyph-name="aacute.smcp" unicode="&#xf648;" horiz-adv-x="645" 
d="M471 0q-9 28 -18.5 56.5t-19.5 56.5h-224q-20 -57 -39 -113h-161q58 149 116 290t115 271h165q58 -132 116 -273t115 -288h-165zM249 227h144q-17 50 -35.5 100t-36.5 99q-37 -100 -72 -199zM509 805q-95 -96 -153 -162h-128q31 44 62.5 85t59.5 77h159z" />
    <glyph glyph-name="cacute.smcp" unicode="&#xf64d;" horiz-adv-x="553" 
d="M347 -13q-95 0 -163.5 35t-105 100.5t-36.5 157.5q0 67 21.5 121t62.5 92.5t98 59.5t128 21q92 0 164 -35v-131q-64 41 -145 41q-84 0 -129.5 -44.5t-45.5 -124.5t44.5 -124.5t126.5 -44.5t155 43v-128q-35 -19 -80.5 -29t-94.5 -10zM532 805q-95 -96 -153 -162h-128
q31 44 62.5 85t59.5 77h159z" />
    <glyph glyph-name="eacute.smcp" unicode="&#xf655;" horiz-adv-x="537" 
d="M70 561h423v-119h-277v-100h248v-113h-248v-110h291v-119h-437v561zM475 805q-95 -96 -153 -162h-128q31 44 62.5 85t59.5 77h159z" />
    <glyph glyph-name="iacute.smcp" unicode="&#xf663;" horiz-adv-x="290" 
d="M70 0v561h150v-561h-150zM332 805q-95 -96 -153 -162h-128q31 44 62.5 85t59.5 77h159z" />
    <glyph glyph-name="lacute.smcp" unicode="&#xf66c;" horiz-adv-x="504" 
d="M70 561h150v-436h270v-125h-420v561zM332 805q-95 -96 -153 -162h-128q31 44 62.5 85t59.5 77h159z" />
    <glyph glyph-name="nacute.smcp" unicode="&#xf670;" horiz-adv-x="669" 
d="M450 0q-56 86 -117 178t-121 180v-358h-142v561h149q61 -88 121.5 -178t116.5 -177v355h142v-561h-149zM532 805q-95 -96 -153 -162h-128q31 44 62.5 85t59.5 77h159z" />
    <glyph glyph-name="oacute.smcp" unicode="&#xf676;" horiz-adv-x="668" 
d="M334 574q67 0 120.5 -20.5t92 -59t59 -92.5t20.5 -121t-20.5 -121.5t-59 -93t-92.5 -59t-120 -20.5t-120 20.5t-92.5 59t-59 93t-20.5 121.5t20.5 121t59 92.5t92 59t120.5 20.5zM334 111q65 0 101.5 45t36.5 125q0 79 -36.5 123.5t-101.5 44.5t-101.5 -44.5
t-36.5 -123.5q0 -80 36.5 -125t101.5 -45zM521 805q-95 -96 -153 -162h-128q31 44 62.5 85t59.5 77h159z" />
    <glyph glyph-name="racute.smcp" unicode="&#xf67d;" horiz-adv-x="602" 
d="M216 191v-191h-146v561h227q122 0 187 -47.5t65 -137.5q0 -54 -26 -94t-75 -63q37 -54 74 -110.5t69 -108.5h-169q-26 45 -55.5 94t-59.5 97h-10h-81zM216 303h74q56 0 82.5 18t26.5 55t-26.5 55t-82.5 18h-74v-146zM470 805q-95 -96 -153 -162h-128q31 44 62.5 85
t59.5 77h159z" />
    <glyph glyph-name="sacute.smcp" unicode="&#xf680;" horiz-adv-x="535" 
d="M48 156q88 -51 189 -51q51 0 79 13.5t28 37.5q0 16 -9 27.5t-31 20t-62 16.5q-72 16 -116.5 38.5t-64.5 56t-20 81.5q0 55 30.5 95t87.5 61.5t135 21.5q45 0 90.5 -10t80.5 -29v-125q-37 23 -82.5 34.5t-88.5 11.5q-49 0 -76.5 -12t-27.5 -38q0 -15 8.5 -24.5t31.5 -17.5
t66 -17q72 -15 116 -38t63.5 -57.5t19.5 -83.5q0 -57 -30 -97.5t-87.5 -62t-137.5 -21.5q-106 0 -192 42v127zM471 805q-95 -96 -153 -162h-128q31 44 62.5 85t59.5 77h159z" />
    <glyph glyph-name="uacute.smcp" unicode="&#xf68a;" horiz-adv-x="654" 
d="M327 -13q-81 0 -139.5 30t-89.5 86t-31 134v324h150v-338q0 -54 28.5 -83t81.5 -29t81.5 29t28.5 83v338h150v-324q0 -78 -31 -134t-89.5 -86t-139.5 -30zM514 805q-95 -96 -153 -162h-128q31 44 62.5 85t59.5 77h159z" />
    <glyph glyph-name="wacute.smcp" unicode="&#xf693;" horiz-adv-x="828" 
d="M507 0q-25 90 -49 178t-44 172q-22 -88 -45.5 -175.5t-48.5 -174.5h-159q-39 134 -76 275.5t-71 285.5h164q17 -105 36.5 -210t39.5 -203q26 100 50 198t43 190h140q19 -88 42.5 -183.5t48.5 -196.5q20 97 39 199.5t36 205.5h161q-34 -144 -71 -285.5t-76 -275.5h-160z
M604 805q-95 -96 -153 -162h-128q31 44 62.5 85t59.5 77h159z" />
    <glyph glyph-name="yacute.smcp" unicode="&#xf697;" horiz-adv-x="632" 
d="M391 208v-208h-150v208q-60 87 -117.5 176.5t-110.5 176.5h171q30 -55 64 -113.5t70 -117.5q35 57 69 115.5t65 115.5h167q-53 -88 -110.5 -177t-117.5 -176zM503 805q-95 -96 -153 -162h-128q31 44 62.5 85t59.5 77h159z" />
    <glyph glyph-name="zacute.smcp" unicode="&#xf69b;" horiz-adv-x="558" 
d="M524 122v-122h-492v102q65 78 138 163.5t152 173.5h-277v122h469v-102q-77 -85 -151.5 -171.5t-140.5 -165.5h302zM466 805q-95 -96 -153 -162h-128q31 44 62.5 85t59.5 77h159z" />
    <glyph glyph-name="ohungarumlaut.smcp" unicode="&#xf67a;" horiz-adv-x="668" 
d="M334 574q67 0 120.5 -20.5t92 -59t59 -92.5t20.5 -121t-20.5 -121.5t-59 -93t-92.5 -59t-120 -20.5t-120 20.5t-92.5 59t-59 93t-20.5 121.5t20.5 121t59 92.5t92 59t120.5 20.5zM334 111q65 0 101.5 45t36.5 125q0 79 -36.5 123.5t-101.5 44.5t-101.5 -44.5
t-36.5 -123.5q0 -80 36.5 -125t101.5 -45zM442 805q-94 -96 -153 -162h-116q31 44 62 85t60 77h147zM653 805q-95 -96 -153 -162h-116q31 44 62.5 85t59.5 77h147z" />
    <glyph glyph-name="uhungarumlaut.smcp" unicode="&#xf688;" horiz-adv-x="654" 
d="M327 -13q-81 0 -139.5 30t-89.5 86t-31 134v324h150v-338q0 -54 28.5 -83t81.5 -29t81.5 29t28.5 83v338h150v-324q0 -78 -31 -134t-89.5 -86t-139.5 -30zM435 805q-94 -96 -153 -162h-116q31 44 62 85t60 77h147zM646 805q-95 -96 -153 -162h-116q31 44 62.5 85t59.5 77
h147z" />
    <glyph glyph-name="aacute.alt" horiz-adv-x="597" 
d="M403 0l-8 59q-56 -72 -143 -72q-64 0 -111.5 32t-73.5 90.5t-26 139.5q0 89 33.5 152t96.5 96.5t152 33.5q99 0 207 -48v-483h-127zM192 255q0 -72 26 -110t75 -38q26 0 48 10t41 32v250q-17 7 -33 9.5t-35 2.5q-58 0 -90 -40.5t-32 -115.5zM498 762q-95 -96 -153 -162
h-128q31 44 62.5 85t59.5 77h159z" />
    <glyph glyph-name="gravecomb" unicode="&#x300;" horiz-adv-x="0" 
d="M-28 762q28 -36 59.5 -77t62.5 -85h-128q-58 66 -153 162h159z" />
    <glyph glyph-name="gravecomb.cap" horiz-adv-x="0" 
d="M-39 915q35 -29 72 -62.5t71 -66.5h-144q-34 28 -77.5 61t-91.5 68h170z" />
    <glyph glyph-name="grave" unicode="`" horiz-adv-x="500" 
d="M269 762q28 -36 59.5 -77t62.5 -85h-128q-58 66 -153 162h159z" />
    <glyph glyph-name="gravemod" unicode="&#x2cb;" horiz-adv-x="500" 
d="M269 762q28 -36 59.5 -77t62.5 -85h-128q-58 66 -153 162h159z" />
    <glyph glyph-name="Agrave" unicode="&#xc0;" horiz-adv-x="750" 
d="M570 0q-26 79 -52 155h-290q-26 -77 -52 -155h-165q68 188 138.5 367t142.5 348h166q74 -178 144.5 -357.5t136.5 -357.5h-169zM272 283h201q-24 70 -49.5 139.5t-50.5 136.5q-52 -137 -101 -276zM336 915q35 -29 72 -62.5t71 -66.5h-144q-34 28 -77.5 61t-91.5 68h170z
" />
    <glyph glyph-name="Egrave" unicode="&#xc8;" horiz-adv-x="620" 
d="M76 715h492v-128h-338v-155h300v-128h-300v-176h357v-128h-511v715zM292 915q35 -29 72 -62.5t71 -66.5h-144q-34 28 -77.5 61t-91.5 68h170z" />
    <glyph glyph-name="Igrave" unicode="&#xcc;" horiz-adv-x="306" 
d="M76 715h154v-715h-154v715zM114 915q35 -29 72 -62.5t71 -66.5h-144q-34 28 -77.5 61t-91.5 68h170z" />
    <glyph glyph-name="Ograve" unicode="&#xd2;" horiz-adv-x="802" 
d="M401 730q81 0 146.5 -26t112 -74.5t71.5 -117t25 -154.5q0 -85 -25 -154t-71.5 -118t-112 -75t-146.5 -26t-146.5 26t-112 75t-71.5 118t-25 154q0 86 25 154.5t71.5 117t112 74.5t146.5 26zM401 119q61 0 105 28.5t67 81.5t23 129t-23 129t-67 81t-105 28t-105 -28
t-67 -81t-23 -129t23 -129t67 -81.5t105 -28.5zM362 915q35 -29 72 -62.5t71 -66.5h-144q-34 28 -77.5 61t-91.5 68h170z" />
    <glyph glyph-name="Ugrave" unicode="&#xd9;" horiz-adv-x="758" 
d="M379 -15q-96 0 -164.5 36.5t-105 105.5t-36.5 166v422h154v-439q0 -76 39.5 -116.5t112.5 -40.5t112.5 40.5t39.5 116.5v439h154v-422q0 -97 -36.5 -166t-105.5 -105.5t-164 -36.5zM340 915q35 -29 72 -62.5t71 -66.5h-144q-34 28 -77.5 61t-91.5 68h170z" />
    <glyph glyph-name="Wgrave" unicode="&#x1e80;" horiz-adv-x="990" 
d="M624 0q-34 121 -66.5 242t-63.5 242q-30 -121 -62 -242t-66 -242h-163q-51 175 -98 354t-89 361h168q25 -139 53 -278t59 -273q67 261 127 521h150q30 -128 61.5 -255.5t64.5 -254.5q30 132 58 268t52 272h165q-42 -182 -89 -361t-98 -354h-163zM459 915q35 -29 72 -62.5
t71 -66.5h-144q-34 28 -77.5 61t-91.5 68h170z" />
    <glyph glyph-name="Ygrave" unicode="&#x1ef2;" horiz-adv-x="719" 
d="M436 271v-271h-154v271q-70 110 -137 221t-131 223h175q41 -79 84.5 -158t87.5 -156q45 78 88 156.5t85 157.5h171q-65 -112 -132 -223t-137 -221zM320 915q35 -29 72 -62.5t71 -66.5h-144q-34 28 -77.5 61t-91.5 68h170z" />
    <glyph glyph-name="agrave" unicode="&#xe0;" horiz-adv-x="552" 
d="M460 -10q-86 0 -107 57q-32 -30 -69 -45t-82 -15q-78 0 -122 40.5t-44 112.5q0 79 60.5 121.5t174.5 42.5q16 0 34.5 -1.5t36.5 -4.5v23q0 47 -26 70t-80 23q-45 0 -84.5 -12t-76.5 -38v124q43 21 89 32t93 11q109 0 168 -54.5t59 -155.5v-194q0 -18 6 -26.5t22 -8.5
q8 0 15 1.5t14 5.5v-91q-16 -8 -37.5 -13t-43.5 -5zM180 153q0 -61 70 -61q53 0 92 43v79q-14 3 -29.5 4.5t-30.5 1.5q-52 0 -77 -16t-25 -51zM236 762q28 -36 59.5 -77t62.5 -85h-128q-58 66 -153 162h159z" />
    <glyph glyph-name="egrave" unicode="&#xe8;" horiz-adv-x="554" 
d="M495 26q-77 -39 -182 -39q-85 0 -146 32t-93.5 92.5t-32.5 145.5q0 63 17.5 113.5t50.5 86.5t79 55t103 19q109 0 167 -67.5t58 -193.5v-43h-330q8 -63 44.5 -93t105.5 -30q46 0 83.5 10t75.5 32v-120zM289 424q-42 0 -68 -28.5t-34 -81.5h192q-4 57 -26 83.5t-64 26.5z
M267 762q28 -36 59.5 -77t62.5 -85h-128q-58 66 -153 162h159z" />
    <glyph glyph-name="igrave" unicode="&#xec;" horiz-adv-x="282" 
d="M67 518h148v-518h-148v518zM113 762q28 -36 59.5 -77t62.5 -85h-128q-58 66 -153 162h159z" />
    <glyph glyph-name="ograve" unicode="&#xf2;" horiz-adv-x="600" 
d="M300 531q80 0 138 -33.5t89.5 -94.5t31.5 -144q0 -62 -18 -112t-52 -86t-82 -55t-107 -19t-107 19t-82 55t-52 86t-18 112q0 83 31.5 144t89.5 94.5t138 33.5zM300 106q52 0 80 40.5t28 112.5q0 73 -28.5 113t-79.5 40t-79.5 -40t-28.5 -113q0 -72 28 -112.5t80 -40.5z
M272 762q28 -36 59.5 -77t62.5 -85h-128q-58 66 -153 162h159z" />
    <glyph glyph-name="ugrave" unicode="&#xf9;" 
d="M402 0l-8 62q-63 -75 -154 -75q-85 0 -131 52t-46 147v332h148v-326q0 -41 19 -62.5t56 -21.5q28 0 52.5 12.5t42.5 35.5v362h148v-518h-127zM268 762q28 -36 59.5 -77t62.5 -85h-128q-58 66 -153 162h159z" />
    <glyph glyph-name="wgrave" unicode="&#x1e81;" horiz-adv-x="792" 
d="M491 0q-25 83 -48.5 166.5t-45.5 167.5q-23 -84 -47 -167.5t-49 -166.5h-148q-39 128 -75 258t-69 260h156q17 -96 35.5 -189t38.5 -185q24 88 46.5 176t43.5 178h138q21 -88 43 -175t46 -173q21 92 39.5 183t35.5 185h152q-33 -130 -69 -259.5t-75 -258.5h-148zM370 762
q28 -36 59.5 -77t62.5 -85h-128q-58 66 -153 162h159z" />
    <glyph glyph-name="ygrave" unicode="&#x1ef3;" horiz-adv-x="558" 
d="M324 -59q-21 -49 -42 -83.5t-45.5 -56t-54.5 -31t-69 -9.5q-31 0 -55.5 4t-44.5 13v116q13 -7 34 -11.5t41 -4.5q26 0 43.5 7t30.5 23t24 42q6 14 11 27.5t11 26.5q-53 129 -103 257.5t-97 256.5h159q26 -92 54.5 -182t59.5 -179q31 90 59.5 180t54.5 181h155
q-16 -46 -36.5 -99.5t-42 -110t-43.5 -111.5t-41.5 -104.5t-36 -88.5t-26.5 -63zM251 762q28 -36 59.5 -77t62.5 -85h-128q-58 66 -153 162h159z" />
    <glyph glyph-name="agrave.smcp" unicode="&#xf647;" horiz-adv-x="645" 
d="M471 0q-9 28 -18.5 56.5t-19.5 56.5h-224q-20 -57 -39 -113h-161q58 149 116 290t115 271h165q58 -132 116 -273t115 -288h-165zM249 227h144q-17 50 -35.5 100t-36.5 99q-37 -100 -72 -199zM294 805q28 -36 59.5 -77t62.5 -85h-128q-58 66 -153 162h159z" />
    <glyph glyph-name="egrave.smcp" unicode="&#xf654;" horiz-adv-x="537" 
d="M70 561h423v-119h-277v-100h248v-113h-248v-110h291v-119h-437v561zM260 805q28 -36 59.5 -77t62.5 -85h-128q-58 66 -153 162h159z" />
    <glyph glyph-name="igrave.smcp" unicode="&#xf662;" horiz-adv-x="290" 
d="M70 0v561h150v-561h-150zM117 805q28 -36 59.5 -77t62.5 -85h-128q-58 66 -153 162h159z" />
    <glyph glyph-name="ograve.smcp" unicode="&#xf675;" horiz-adv-x="668" 
d="M334 574q67 0 120.5 -20.5t92 -59t59 -92.5t20.5 -121t-20.5 -121.5t-59 -93t-92.5 -59t-120 -20.5t-120 20.5t-92.5 59t-59 93t-20.5 121.5t20.5 121t59 92.5t92 59t120.5 20.5zM334 111q65 0 101.5 45t36.5 125q0 79 -36.5 123.5t-101.5 44.5t-101.5 -44.5
t-36.5 -123.5q0 -80 36.5 -125t101.5 -45zM306 805q28 -36 59.5 -77t62.5 -85h-128q-58 66 -153 162h159z" />
    <glyph glyph-name="ugrave.smcp" unicode="&#xf689;" horiz-adv-x="654" 
d="M327 -13q-81 0 -139.5 30t-89.5 86t-31 134v324h150v-338q0 -54 28.5 -83t81.5 -29t81.5 29t28.5 83v338h150v-324q0 -78 -31 -134t-89.5 -86t-139.5 -30zM299 805q28 -36 59.5 -77t62.5 -85h-128q-58 66 -153 162h159z" />
    <glyph glyph-name="wgrave.smcp" unicode="&#xf692;" horiz-adv-x="828" 
d="M507 0q-25 90 -49 178t-44 172q-22 -88 -45.5 -175.5t-48.5 -174.5h-159q-39 134 -76 275.5t-71 285.5h164q17 -105 36.5 -210t39.5 -203q26 100 50 198t43 190h140q19 -88 42.5 -183.5t48.5 -196.5q20 97 39 199.5t36 205.5h161q-34 -144 -71 -285.5t-76 -275.5h-160z
M389 805q28 -36 59.5 -77t62.5 -85h-128q-58 66 -153 162h159z" />
    <glyph glyph-name="ygrave.smcp" unicode="&#xf696;" horiz-adv-x="632" 
d="M391 208v-208h-150v208q-60 87 -117.5 176.5t-110.5 176.5h171q30 -55 64 -113.5t70 -117.5q35 57 69 115.5t65 115.5h167q-53 -88 -110.5 -177t-117.5 -176zM288 805q28 -36 59.5 -77t62.5 -85h-128q-58 66 -153 162h159z" />
    <glyph glyph-name="agrave.alt" horiz-adv-x="597" 
d="M403 0l-8 59q-56 -72 -143 -72q-64 0 -111.5 32t-73.5 90.5t-26 139.5q0 89 33.5 152t96.5 96.5t152 33.5q99 0 207 -48v-483h-127zM192 255q0 -72 26 -110t75 -38q26 0 48 10t41 32v250q-17 7 -33 9.5t-35 2.5q-58 0 -90 -40.5t-32 -115.5zM283 762q28 -36 59.5 -77
t62.5 -85h-128q-58 66 -153 162h159z" />
    <glyph glyph-name="circumflexcomb" unicode="&#x302;" horiz-adv-x="0" 
d="M73 600q-15 17 -33.5 37t-40.5 44q-22 -24 -41 -44t-34 -37h-120q31 40 64.5 81.5t67.5 80.5h128q34 -39 67.5 -80.5t64.5 -81.5h-123z" />
    <glyph glyph-name="circumflexcomb.cap" horiz-adv-x="0" 
d="M69 786q-15 12 -32.5 26.5t-37.5 30.5q-20 -16 -38 -30.5t-32 -26.5h-140q37 34 73.5 67t70.5 62h134q34 -29 70.5 -62t73.5 -67h-142z" />
    <glyph glyph-name="circumflex" unicode="&#x2c6;" horiz-adv-x="500" 
d="M323 600q-15 17 -33.5 37t-40.5 44q-22 -24 -41 -44t-34 -37h-120q31 40 64.5 81.5t67.5 80.5h128q34 -39 67.5 -80.5t64.5 -81.5h-123z" />
    <glyph glyph-name="tildecomb" unicode="&#x303;" horiz-adv-x="0" 
d="M-3 738q27 -19 42.5 -29.5t30.5 -10.5q19 0 26.5 14t8.5 45h96q-1 -76 -31.5 -116t-90.5 -40q-23 0 -40.5 5.5t-34.5 17.5q-27 19 -42.5 29.5t-30.5 10.5q-19 0 -26.5 -14t-8.5 -45h-96q1 76 31.5 116t90.5 40q22 0 40 -5.5t35 -17.5z" />
    <glyph glyph-name="tildecomb.cap" horiz-adv-x="0" 
d="M81 785q-24 0 -42.5 5t-36.5 15q-22 12 -39.5 22t-34.5 10q-18 0 -26.5 -11.5t-9.5 -36.5h-98q1 70 32.5 106.5t92.5 36.5q24 0 42.5 -5t36.5 -15q22 -12 39.5 -22t34.5 -10q18 0 26.5 11.5t9.5 36.5h98q-1 -70 -32.5 -106.5t-92.5 -36.5z" />
    <glyph glyph-name="tilde" unicode="&#x2dc;" horiz-adv-x="500" 
d="M247 738q27 -19 42.5 -29.5t30.5 -10.5q19 0 26.5 14t8.5 45h96q-1 -76 -31.5 -116t-90.5 -40q-23 0 -40.5 5.5t-34.5 17.5q-27 19 -42.5 29.5t-30.5 10.5q-19 0 -26.5 -14t-8.5 -45h-96q1 76 31.5 116t90.5 40q22 0 40 -5.5t35 -17.5z" />
    <glyph glyph-name="Acircumflex" unicode="&#xc2;" horiz-adv-x="750" 
d="M570 0q-26 79 -52 155h-290q-26 -77 -52 -155h-165q68 188 138.5 367t142.5 348h166q74 -178 144.5 -357.5t136.5 -357.5h-169zM272 283h201q-24 70 -49.5 139.5t-50.5 136.5q-52 -137 -101 -276zM444 786q-15 12 -32.5 26.5t-37.5 30.5q-20 -16 -38 -30.5t-32 -26.5
h-140q37 34 73.5 67t70.5 62h134q34 -29 70.5 -62t73.5 -67h-142z" />
    <glyph glyph-name="Ecircumflex" unicode="&#xca;" horiz-adv-x="620" 
d="M76 715h492v-128h-338v-155h300v-128h-300v-176h357v-128h-511v715zM400 786q-15 12 -32.5 26.5t-37.5 30.5q-20 -16 -38 -30.5t-32 -26.5h-140q37 34 73.5 67t70.5 62h134q34 -29 70.5 -62t73.5 -67h-142z" />
    <glyph glyph-name="Icircumflex" unicode="&#xce;" horiz-adv-x="306" 
d="M76 715h154v-715h-154v715zM222 786q-15 12 -32.5 26.5t-37.5 30.5q-20 -16 -38 -30.5t-32 -26.5h-140q37 34 73.5 67t70.5 62h134q34 -29 70.5 -62t73.5 -67h-142z" />
    <glyph glyph-name="Ocircumflex" unicode="&#xd4;" horiz-adv-x="802" 
d="M401 730q81 0 146.5 -26t112 -74.5t71.5 -117t25 -154.5q0 -85 -25 -154t-71.5 -118t-112 -75t-146.5 -26t-146.5 26t-112 75t-71.5 118t-25 154q0 86 25 154.5t71.5 117t112 74.5t146.5 26zM401 119q61 0 105 28.5t67 81.5t23 129t-23 129t-67 81t-105 28t-105 -28
t-67 -81t-23 -129t23 -129t67 -81.5t105 -28.5zM470 786q-15 12 -32.5 26.5t-37.5 30.5q-20 -16 -38 -30.5t-32 -26.5h-140q37 34 73.5 67t70.5 62h134q34 -29 70.5 -62t73.5 -67h-142z" />
    <glyph glyph-name="Ucircumflex" unicode="&#xdb;" horiz-adv-x="758" 
d="M379 -15q-96 0 -164.5 36.5t-105 105.5t-36.5 166v422h154v-439q0 -76 39.5 -116.5t112.5 -40.5t112.5 40.5t39.5 116.5v439h154v-422q0 -97 -36.5 -166t-105.5 -105.5t-164 -36.5zM448 786q-15 12 -32.5 26.5t-37.5 30.5q-20 -16 -38 -30.5t-32 -26.5h-140
q37 34 73.5 67t70.5 62h134q34 -29 70.5 -62t73.5 -67h-142z" />
    <glyph glyph-name="Wcircumflex" unicode="&#x174;" horiz-adv-x="990" 
d="M624 0q-34 121 -66.5 242t-63.5 242q-30 -121 -62 -242t-66 -242h-163q-51 175 -98 354t-89 361h168q25 -139 53 -278t59 -273q67 261 127 521h150q30 -128 61.5 -255.5t64.5 -254.5q30 132 58 268t52 272h165q-42 -182 -89 -361t-98 -354h-163zM567 786
q-15 12 -32.5 26.5t-37.5 30.5q-20 -16 -38 -30.5t-32 -26.5h-140q37 34 73.5 67t70.5 62h134q34 -29 70.5 -62t73.5 -67h-142z" />
    <glyph glyph-name="Ycircumflex" unicode="&#x176;" horiz-adv-x="719" 
d="M436 271v-271h-154v271q-70 110 -137 221t-131 223h175q41 -79 84.5 -158t87.5 -156q45 78 88 156.5t85 157.5h171q-65 -112 -132 -223t-137 -221zM428 786q-15 12 -32.5 26.5t-37.5 30.5q-20 -16 -38 -30.5t-32 -26.5h-140q37 34 73.5 67t70.5 62h134q34 -29 70.5 -62
t73.5 -67h-142z" />
    <glyph glyph-name="Atilde" unicode="&#xc3;" horiz-adv-x="750" 
d="M570 0q-26 79 -52 155h-290q-26 -77 -52 -155h-165q68 188 138.5 367t142.5 348h166q74 -178 144.5 -357.5t136.5 -357.5h-169zM272 283h201q-24 70 -49.5 139.5t-50.5 136.5q-52 -137 -101 -276zM456 785q-24 0 -42.5 5t-36.5 15q-22 12 -39.5 22t-34.5 10
q-18 0 -26.5 -11.5t-9.5 -36.5h-98q1 70 32.5 106.5t92.5 36.5q24 0 42.5 -5t36.5 -15q22 -12 39.5 -22t34.5 -10q18 0 26.5 11.5t9.5 36.5h98q-1 -70 -32.5 -106.5t-92.5 -36.5z" />
    <glyph glyph-name="Itilde" unicode="&#x128;" horiz-adv-x="306" 
d="M76 715h154v-715h-154v715zM234 785q-24 0 -42.5 5t-36.5 15q-22 12 -39.5 22t-34.5 10q-18 0 -26.5 -11.5t-9.5 -36.5h-98q1 70 32.5 106.5t92.5 36.5q24 0 42.5 -5t36.5 -15q22 -12 39.5 -22t34.5 -10q18 0 26.5 11.5t9.5 36.5h98q-1 -70 -32.5 -106.5t-92.5 -36.5z
" />
    <glyph glyph-name="Ntilde" unicode="&#xd1;" horiz-adv-x="772" 
d="M540 0q-78 125 -158 250.5t-158 243.5v-494h-148v715h156q81 -121 159.5 -242.5t156.5 -246.5v489h148v-715h-156zM477 785q-24 0 -42.5 5t-36.5 15q-22 12 -39.5 22t-34.5 10q-18 0 -26.5 -11.5t-9.5 -36.5h-98q1 70 32.5 106.5t92.5 36.5q24 0 42.5 -5t36.5 -15
q22 -12 39.5 -22t34.5 -10q18 0 26.5 11.5t9.5 36.5h98q-1 -70 -32.5 -106.5t-92.5 -36.5z" />
    <glyph glyph-name="Otilde" unicode="&#xd5;" horiz-adv-x="802" 
d="M401 730q81 0 146.5 -26t112 -74.5t71.5 -117t25 -154.5q0 -85 -25 -154t-71.5 -118t-112 -75t-146.5 -26t-146.5 26t-112 75t-71.5 118t-25 154q0 86 25 154.5t71.5 117t112 74.5t146.5 26zM401 119q61 0 105 28.5t67 81.5t23 129t-23 129t-67 81t-105 28t-105 -28
t-67 -81t-23 -129t23 -129t67 -81.5t105 -28.5zM482 785q-24 0 -42.5 5t-36.5 15q-22 12 -39.5 22t-34.5 10q-18 0 -26.5 -11.5t-9.5 -36.5h-98q1 70 32.5 106.5t92.5 36.5q24 0 42.5 -5t36.5 -15q22 -12 39.5 -22t34.5 -10q18 0 26.5 11.5t9.5 36.5h98q-1 -70 -32.5 -106.5
t-92.5 -36.5z" />
    <glyph glyph-name="Utilde" unicode="&#x168;" horiz-adv-x="758" 
d="M379 -15q-96 0 -164.5 36.5t-105 105.5t-36.5 166v422h154v-439q0 -76 39.5 -116.5t112.5 -40.5t112.5 40.5t39.5 116.5v439h154v-422q0 -97 -36.5 -166t-105.5 -105.5t-164 -36.5zM460 785q-24 0 -42.5 5t-36.5 15q-22 12 -39.5 22t-34.5 10q-18 0 -26.5 -11.5
t-9.5 -36.5h-98q1 70 32.5 106.5t92.5 36.5q24 0 42.5 -5t36.5 -15q22 -12 39.5 -22t34.5 -10q18 0 26.5 11.5t9.5 36.5h98q-1 -70 -32.5 -106.5t-92.5 -36.5z" />
    <glyph glyph-name="acircumflex" unicode="&#xe2;" horiz-adv-x="552" 
d="M460 -10q-86 0 -107 57q-32 -30 -69 -45t-82 -15q-78 0 -122 40.5t-44 112.5q0 79 60.5 121.5t174.5 42.5q16 0 34.5 -1.5t36.5 -4.5v23q0 47 -26 70t-80 23q-45 0 -84.5 -12t-76.5 -38v124q43 21 89 32t93 11q109 0 168 -54.5t59 -155.5v-194q0 -18 6 -26.5t22 -8.5
q8 0 15 1.5t14 5.5v-91q-16 -8 -37.5 -13t-43.5 -5zM180 153q0 -61 70 -61q53 0 92 43v79q-14 3 -29.5 4.5t-30.5 1.5q-52 0 -77 -16t-25 -51zM337 600q-15 17 -33.5 37t-40.5 44q-22 -24 -41 -44t-34 -37h-120q31 40 64.5 81.5t67.5 80.5h128q34 -39 67.5 -80.5t64.5 -81.5
h-123z" />
    <glyph glyph-name="ecircumflex" unicode="&#xea;" horiz-adv-x="554" 
d="M495 26q-77 -39 -182 -39q-85 0 -146 32t-93.5 92.5t-32.5 145.5q0 63 17.5 113.5t50.5 86.5t79 55t103 19q109 0 167 -67.5t58 -193.5v-43h-330q8 -63 44.5 -93t105.5 -30q46 0 83.5 10t75.5 32v-120zM289 424q-42 0 -68 -28.5t-34 -81.5h192q-4 57 -26 83.5t-64 26.5z
M368 600q-15 17 -33.5 37t-40.5 44q-22 -24 -41 -44t-34 -37h-120q31 40 64.5 81.5t67.5 80.5h128q34 -39 67.5 -80.5t64.5 -81.5h-123z" />
    <glyph glyph-name="icircumflex" unicode="&#xee;" horiz-adv-x="282" 
d="M67 518h148v-518h-148v518zM214 600q-15 17 -33.5 37t-40.5 44q-22 -24 -41 -44t-34 -37h-120q31 40 64.5 81.5t67.5 80.5h128q34 -39 67.5 -80.5t64.5 -81.5h-123z" />
    <glyph glyph-name="ocircumflex" unicode="&#xf4;" horiz-adv-x="600" 
d="M300 531q80 0 138 -33.5t89.5 -94.5t31.5 -144q0 -62 -18 -112t-52 -86t-82 -55t-107 -19t-107 19t-82 55t-52 86t-18 112q0 83 31.5 144t89.5 94.5t138 33.5zM300 106q52 0 80 40.5t28 112.5q0 73 -28.5 113t-79.5 40t-79.5 -40t-28.5 -113q0 -72 28 -112.5t80 -40.5z
M373 600q-15 17 -33.5 37t-40.5 44q-22 -24 -41 -44t-34 -37h-120q31 40 64.5 81.5t67.5 80.5h128q34 -39 67.5 -80.5t64.5 -81.5h-123z" />
    <glyph glyph-name="ucircumflex" unicode="&#xfb;" 
d="M402 0l-8 62q-63 -75 -154 -75q-85 0 -131 52t-46 147v332h148v-326q0 -41 19 -62.5t56 -21.5q28 0 52.5 12.5t42.5 35.5v362h148v-518h-127zM369 600q-15 17 -33.5 37t-40.5 44q-22 -24 -41 -44t-34 -37h-120q31 40 64.5 81.5t67.5 80.5h128q34 -39 67.5 -80.5
t64.5 -81.5h-123z" />
    <glyph glyph-name="wcircumflex" unicode="&#x175;" horiz-adv-x="792" 
d="M491 0q-25 83 -48.5 166.5t-45.5 167.5q-23 -84 -47 -167.5t-49 -166.5h-148q-39 128 -75 258t-69 260h156q17 -96 35.5 -189t38.5 -185q24 88 46.5 176t43.5 178h138q21 -88 43 -175t46 -173q21 92 39.5 183t35.5 185h152q-33 -130 -69 -259.5t-75 -258.5h-148zM471 600
q-15 17 -33.5 37t-40.5 44q-22 -24 -41 -44t-34 -37h-120q31 40 64.5 81.5t67.5 80.5h128q34 -39 67.5 -80.5t64.5 -81.5h-123z" />
    <glyph glyph-name="ycircumflex" unicode="&#x177;" horiz-adv-x="558" 
d="M324 -59q-21 -49 -42 -83.5t-45.5 -56t-54.5 -31t-69 -9.5q-31 0 -55.5 4t-44.5 13v116q13 -7 34 -11.5t41 -4.5q26 0 43.5 7t30.5 23t24 42q6 14 11 27.5t11 26.5q-53 129 -103 257.5t-97 256.5h159q26 -92 54.5 -182t59.5 -179q31 90 59.5 180t54.5 181h155
q-16 -46 -36.5 -99.5t-42 -110t-43.5 -111.5t-41.5 -104.5t-36 -88.5t-26.5 -63zM352 600q-15 17 -33.5 37t-40.5 44q-22 -24 -41 -44t-34 -37h-120q31 40 64.5 81.5t67.5 80.5h128q34 -39 67.5 -80.5t64.5 -81.5h-123z" />
    <glyph glyph-name="atilde" unicode="&#xe3;" horiz-adv-x="552" 
d="M460 -10q-86 0 -107 57q-32 -30 -69 -45t-82 -15q-78 0 -122 40.5t-44 112.5q0 79 60.5 121.5t174.5 42.5q16 0 34.5 -1.5t36.5 -4.5v23q0 47 -26 70t-80 23q-45 0 -84.5 -12t-76.5 -38v124q43 21 89 32t93 11q109 0 168 -54.5t59 -155.5v-194q0 -18 6 -26.5t22 -8.5
q8 0 15 1.5t14 5.5v-91q-16 -8 -37.5 -13t-43.5 -5zM180 153q0 -61 70 -61q53 0 92 43v79q-14 3 -29.5 4.5t-30.5 1.5q-52 0 -77 -16t-25 -51zM261 738q27 -19 42.5 -29.5t30.5 -10.5q19 0 26.5 14t8.5 45h96q-1 -76 -31.5 -116t-90.5 -40q-23 0 -40.5 5.5t-34.5 17.5
q-27 19 -42.5 29.5t-30.5 10.5q-19 0 -26.5 -14t-8.5 -45h-96q1 76 31.5 116t90.5 40q22 0 40 -5.5t35 -17.5z" />
    <glyph glyph-name="itilde" unicode="&#x129;" horiz-adv-x="282" 
d="M67 518h148v-518h-148v518zM138 738q27 -19 42.5 -29.5t30.5 -10.5q19 0 26.5 14t8.5 45h96q-1 -76 -31.5 -116t-90.5 -40q-23 0 -40.5 5.5t-34.5 17.5q-27 19 -42.5 29.5t-30.5 10.5q-19 0 -26.5 -14t-8.5 -45h-96q1 76 31.5 116t90.5 40q22 0 40 -5.5t35 -17.5z" />
    <glyph glyph-name="ntilde" unicode="&#xf1;" horiz-adv-x="601" 
d="M313 410q-58 0 -98 -49v-361h-148v518h127l8 -63q64 76 157 76q85 0 132 -52.5t47 -149.5v-329h-148v323q0 43 -20 65t-57 22zM310 738q27 -19 42.5 -29.5t30.5 -10.5q19 0 26.5 14t8.5 45h96q-1 -76 -31.5 -116t-90.5 -40q-23 0 -40.5 5.5t-34.5 17.5q-27 19 -42.5 29.5
t-30.5 10.5q-19 0 -26.5 -14t-8.5 -45h-96q1 76 31.5 116t90.5 40q22 0 40 -5.5t35 -17.5z" />
    <glyph glyph-name="otilde" unicode="&#xf5;" horiz-adv-x="600" 
d="M300 531q80 0 138 -33.5t89.5 -94.5t31.5 -144q0 -62 -18 -112t-52 -86t-82 -55t-107 -19t-107 19t-82 55t-52 86t-18 112q0 83 31.5 144t89.5 94.5t138 33.5zM300 106q52 0 80 40.5t28 112.5q0 73 -28.5 113t-79.5 40t-79.5 -40t-28.5 -113q0 -72 28 -112.5t80 -40.5z
M297 738q27 -19 42.5 -29.5t30.5 -10.5q19 0 26.5 14t8.5 45h96q-1 -76 -31.5 -116t-90.5 -40q-23 0 -40.5 5.5t-34.5 17.5q-27 19 -42.5 29.5t-30.5 10.5q-19 0 -26.5 -14t-8.5 -45h-96q1 76 31.5 116t90.5 40q22 0 40 -5.5t35 -17.5z" />
    <glyph glyph-name="utilde" unicode="&#x169;" 
d="M402 0l-8 62q-63 -75 -154 -75q-85 0 -131 52t-46 147v332h148v-326q0 -41 19 -62.5t56 -21.5q28 0 52.5 12.5t42.5 35.5v362h148v-518h-127zM293 738q27 -19 42.5 -29.5t30.5 -10.5q19 0 26.5 14t8.5 45h96q-1 -76 -31.5 -116t-90.5 -40q-23 0 -40.5 5.5t-34.5 17.5
q-27 19 -42.5 29.5t-30.5 10.5q-19 0 -26.5 -14t-8.5 -45h-96q1 76 31.5 116t90.5 40q22 0 40 -5.5t35 -17.5z" />
    <glyph glyph-name="acircumflex.smcp" unicode="&#xf649;" horiz-adv-x="645" 
d="M471 0q-9 28 -18.5 56.5t-19.5 56.5h-224q-20 -57 -39 -113h-161q58 149 116 290t115 271h165q58 -132 116 -273t115 -288h-165zM249 227h144q-17 50 -35.5 100t-36.5 99q-37 -100 -72 -199zM395 643q-15 17 -33.5 37t-40.5 44q-22 -24 -41 -44t-34 -37h-120
q31 40 64.5 81.5t67.5 80.5h128q34 -39 67.5 -80.5t64.5 -81.5h-123z" />
    <glyph glyph-name="ecircumflex.smcp" unicode="&#xf656;" horiz-adv-x="537" 
d="M70 561h423v-119h-277v-100h248v-113h-248v-110h291v-119h-437v561zM361 643q-15 17 -33.5 37t-40.5 44q-22 -24 -41 -44t-34 -37h-120q31 40 64.5 81.5t67.5 80.5h128q34 -39 67.5 -80.5t64.5 -81.5h-123z" />
    <glyph glyph-name="icircumflex.smcp" unicode="&#xf664;" horiz-adv-x="290" 
d="M70 0v561h150v-561h-150zM218 643q-15 17 -33.5 37t-40.5 44q-22 -24 -41 -44t-34 -37h-120q31 40 64.5 81.5t67.5 80.5h128q34 -39 67.5 -80.5t64.5 -81.5h-123z" />
    <glyph glyph-name="ocircumflex.smcp" unicode="&#xf677;" horiz-adv-x="668" 
d="M334 574q67 0 120.5 -20.5t92 -59t59 -92.5t20.5 -121t-20.5 -121.5t-59 -93t-92.5 -59t-120 -20.5t-120 20.5t-92.5 59t-59 93t-20.5 121.5t20.5 121t59 92.5t92 59t120.5 20.5zM334 111q65 0 101.5 45t36.5 125q0 79 -36.5 123.5t-101.5 44.5t-101.5 -44.5
t-36.5 -123.5q0 -80 36.5 -125t101.5 -45zM407 643q-15 17 -33.5 37t-40.5 44q-22 -24 -41 -44t-34 -37h-120q31 40 64.5 81.5t67.5 80.5h128q34 -39 67.5 -80.5t64.5 -81.5h-123z" />
    <glyph glyph-name="ucircumflex.smcp" unicode="&#xf68b;" horiz-adv-x="654" 
d="M327 -13q-81 0 -139.5 30t-89.5 86t-31 134v324h150v-338q0 -54 28.5 -83t81.5 -29t81.5 29t28.5 83v338h150v-324q0 -78 -31 -134t-89.5 -86t-139.5 -30zM400 643q-15 17 -33.5 37t-40.5 44q-22 -24 -41 -44t-34 -37h-120q31 40 64.5 81.5t67.5 80.5h128
q34 -39 67.5 -80.5t64.5 -81.5h-123z" />
    <glyph glyph-name="wcircumflex.smcp" unicode="&#xf694;" horiz-adv-x="828" 
d="M507 0q-25 90 -49 178t-44 172q-22 -88 -45.5 -175.5t-48.5 -174.5h-159q-39 134 -76 275.5t-71 285.5h164q17 -105 36.5 -210t39.5 -203q26 100 50 198t43 190h140q19 -88 42.5 -183.5t48.5 -196.5q20 97 39 199.5t36 205.5h161q-34 -144 -71 -285.5t-76 -275.5h-160z
M490 643q-15 17 -33.5 37t-40.5 44q-22 -24 -41 -44t-34 -37h-120q31 40 64.5 81.5t67.5 80.5h128q34 -39 67.5 -80.5t64.5 -81.5h-123z" />
    <glyph glyph-name="ycircumflex.smcp" unicode="&#xf698;" horiz-adv-x="632" 
d="M391 208v-208h-150v208q-60 87 -117.5 176.5t-110.5 176.5h171q30 -55 64 -113.5t70 -117.5q35 57 69 115.5t65 115.5h167q-53 -88 -110.5 -177t-117.5 -176zM389 643q-15 17 -33.5 37t-40.5 44q-22 -24 -41 -44t-34 -37h-120q31 40 64.5 81.5t67.5 80.5h128
q34 -39 67.5 -80.5t64.5 -81.5h-123z" />
    <glyph glyph-name="atilde.smcp" unicode="&#xf64a;" horiz-adv-x="645" 
d="M471 0q-9 28 -18.5 56.5t-19.5 56.5h-224q-20 -57 -39 -113h-161q58 149 116 290t115 271h165q58 -132 116 -273t115 -288h-165zM249 227h144q-17 50 -35.5 100t-36.5 99q-37 -100 -72 -199zM319 781q27 -19 42.5 -29.5t30.5 -10.5q19 0 26.5 14t8.5 45h96
q-1 -76 -31.5 -116t-90.5 -40q-23 0 -40.5 5.5t-34.5 17.5q-27 19 -42.5 29.5t-30.5 10.5q-19 0 -26.5 -14t-8.5 -45h-96q1 76 31.5 116t90.5 40q22 0 40 -5.5t35 -17.5z" />
    <glyph glyph-name="itilde.smcp" unicode="&#xf668;" horiz-adv-x="290" 
d="M70 0v561h150v-561h-150zM142 781q27 -19 42.5 -29.5t30.5 -10.5q19 0 26.5 14t8.5 45h96q-1 -76 -31.5 -116t-90.5 -40q-23 0 -40.5 5.5t-34.5 17.5q-27 19 -42.5 29.5t-30.5 10.5q-19 0 -26.5 -14t-8.5 -45h-96q1 76 31.5 116t90.5 40q22 0 40 -5.5t35 -17.5z" />
    <glyph glyph-name="ntilde.smcp" unicode="&#xf672;" horiz-adv-x="669" 
d="M450 0q-56 86 -117 178t-121 180v-358h-142v561h149q61 -88 121.5 -178t116.5 -177v355h142v-561h-149zM342 781q27 -19 42.5 -29.5t30.5 -10.5q19 0 26.5 14t8.5 45h96q-1 -76 -31.5 -116t-90.5 -40q-23 0 -40.5 5.5t-34.5 17.5q-27 19 -42.5 29.5t-30.5 10.5
q-19 0 -26.5 -14t-8.5 -45h-96q1 76 31.5 116t90.5 40q22 0 40 -5.5t35 -17.5z" />
    <glyph glyph-name="otilde.smcp" unicode="&#xf678;" horiz-adv-x="668" 
d="M334 574q67 0 120.5 -20.5t92 -59t59 -92.5t20.5 -121t-20.5 -121.5t-59 -93t-92.5 -59t-120 -20.5t-120 20.5t-92.5 59t-59 93t-20.5 121.5t20.5 121t59 92.5t92 59t120.5 20.5zM334 111q65 0 101.5 45t36.5 125q0 79 -36.5 123.5t-101.5 44.5t-101.5 -44.5
t-36.5 -123.5q0 -80 36.5 -125t101.5 -45zM331 781q27 -19 42.5 -29.5t30.5 -10.5q19 0 26.5 14t8.5 45h96q-1 -76 -31.5 -116t-90.5 -40q-23 0 -40.5 5.5t-34.5 17.5q-27 19 -42.5 29.5t-30.5 10.5q-19 0 -26.5 -14t-8.5 -45h-96q1 76 31.5 116t90.5 40q22 0 40 -5.5
t35 -17.5z" />
    <glyph glyph-name="utilde.smcp" unicode="&#xf690;" horiz-adv-x="654" 
d="M327 -13q-81 0 -139.5 30t-89.5 86t-31 134v324h150v-338q0 -54 28.5 -83t81.5 -29t81.5 29t28.5 83v338h150v-324q0 -78 -31 -134t-89.5 -86t-139.5 -30zM324 781q27 -19 42.5 -29.5t30.5 -10.5q19 0 26.5 14t8.5 45h96q-1 -76 -31.5 -116t-90.5 -40q-23 0 -40.5 5.5
t-34.5 17.5q-27 19 -42.5 29.5t-30.5 10.5q-19 0 -26.5 -14t-8.5 -45h-96q1 76 31.5 116t90.5 40q22 0 40 -5.5t35 -17.5z" />
    <glyph glyph-name="acircumflex.alt" horiz-adv-x="597" 
d="M403 0l-8 59q-56 -72 -143 -72q-64 0 -111.5 32t-73.5 90.5t-26 139.5q0 89 33.5 152t96.5 96.5t152 33.5q99 0 207 -48v-483h-127zM192 255q0 -72 26 -110t75 -38q26 0 48 10t41 32v250q-17 7 -33 9.5t-35 2.5q-58 0 -90 -40.5t-32 -115.5zM384 600q-15 17 -33.5 37
t-40.5 44q-22 -24 -41 -44t-34 -37h-120q31 40 64.5 81.5t67.5 80.5h128q34 -39 67.5 -80.5t64.5 -81.5h-123z" />
    <glyph glyph-name="atilde.alt" horiz-adv-x="597" 
d="M403 0l-8 59q-56 -72 -143 -72q-64 0 -111.5 32t-73.5 90.5t-26 139.5q0 89 33.5 152t96.5 96.5t152 33.5q99 0 207 -48v-483h-127zM192 255q0 -72 26 -110t75 -38q26 0 48 10t41 32v250q-17 7 -33 9.5t-35 2.5q-58 0 -90 -40.5t-32 -115.5zM308 738q27 -19 42.5 -29.5
t30.5 -10.5q19 0 26.5 14t8.5 45h96q-1 -76 -31.5 -116t-90.5 -40q-23 0 -40.5 5.5t-34.5 17.5q-27 19 -42.5 29.5t-30.5 10.5q-19 0 -26.5 -14t-8.5 -45h-96q1 76 31.5 116t90.5 40q22 0 40 -5.5t35 -17.5z" />
    <glyph glyph-name="caroncomb" unicode="&#x30c;" horiz-adv-x="0" 
d="M196 762q-32 -40 -65 -81.5t-67 -80.5h-128q-34 39 -67 80.5t-65 81.5h123q15 -17 34 -37.5t40 -43.5q22 23 40.5 43.5t33.5 37.5h121z" />
    <glyph glyph-name="caroncomb.cap" horiz-adv-x="0" 
d="M211 915q-37 -35 -73.5 -68t-70.5 -61h-134q-34 28 -70.5 61t-73.5 68h142q15 -12 32.5 -26.5t37.5 -30.5q20 16 38 30.5t32 26.5h140z" />
    <glyph glyph-name="caron" unicode="&#x2c7;" horiz-adv-x="500" 
d="M446 762q-32 -40 -65 -81.5t-67 -80.5h-128q-34 39 -67 80.5t-65 81.5h123q15 -17 34 -37.5t40 -43.5q22 23 40.5 43.5t33.5 37.5h121z" />
    <glyph glyph-name="commaaboverightcomb" unicode="&#x315;" horiz-adv-x="0" 
d="M-64 555q4 45 7 90.5t4 99.5h118q-5 -59 -12 -104t-17 -86h-100z" />
    <glyph glyph-name="commaaboverightcomb.short" horiz-adv-x="0" 
d="M-64 565q4 43 6.5 85.5t3.5 94.5h118q-4 -56 -11 -99t-17 -81h-100z" />
    <glyph glyph-name="macroncomb" unicode="&#x304;" horiz-adv-x="0" 
d="M-163 728h326v-94h-326v94z" />
    <glyph glyph-name="macroncomb.cap" horiz-adv-x="0" 
d="M-177 897h354v-94h-354v94z" />
    <glyph glyph-name="macronmod" unicode="&#x2c9;" horiz-adv-x="500" 
d="M87 728h326v-94h-326v94z" />
    <glyph glyph-name="macron" unicode="&#xaf;" horiz-adv-x="500" 
d="M87 728h326v-94h-326v94z" />
    <glyph glyph-name="Ccaron" unicode="&#x10c;" horiz-adv-x="669" 
d="M411 -15q-85 0 -153 25.5t-115 73.5t-72 117.5t-25 156.5q0 85 26 153.5t75 117.5t117.5 75t153.5 26q59 0 111.5 -12.5t97.5 -36.5v-142q-41 28 -89 42.5t-101 14.5q-73 0 -124.5 -28t-79 -81t-27.5 -129t26.5 -129.5t77 -81.5t122.5 -28q110 0 203 59v-139
q-44 -25 -102 -39.5t-122 -14.5zM626 915q-37 -35 -73.5 -68t-70.5 -61h-134q-34 28 -70.5 61t-73.5 68h142q15 -12 32.5 -26.5t37.5 -30.5q20 16 38 30.5t32 26.5h140z" />
    <glyph glyph-name="Dcaron" unicode="&#x10e;" horiz-adv-x="753" 
d="M76 715h273q113 0 193.5 -42t122.5 -121.5t42 -192.5t-42.5 -193.5t-122.5 -123t-194 -42.5h-272v715zM340 132q100 0 153.5 58.5t53.5 168.5q0 109 -52.5 166.5t-153.5 57.5h-111v-451h110zM560 915q-37 -35 -73.5 -68t-70.5 -61h-134q-34 28 -70.5 61t-73.5 68h142
q15 -12 32.5 -26.5t37.5 -30.5q20 16 38 30.5t32 26.5h140z" />
    <glyph glyph-name="Ecaron" unicode="&#x11a;" horiz-adv-x="620" 
d="M76 715h492v-128h-338v-155h300v-128h-300v-176h357v-128h-511v715zM542 915q-37 -35 -73.5 -68t-70.5 -61h-134q-34 28 -70.5 61t-73.5 68h142q15 -12 32.5 -26.5t37.5 -30.5q20 16 38 30.5t32 26.5h140z" />
    <glyph glyph-name="Lcaron" unicode="&#x13d;" horiz-adv-x="585" 
d="M76 715h154v-581h339v-134h-493v715zM341 525q4 45 7 90.5t4 99.5h118q-5 -59 -12 -104t-17 -86h-100z" />
    <glyph glyph-name="Ncaron" unicode="&#x147;" horiz-adv-x="772" 
d="M540 0q-78 125 -158 250.5t-158 243.5v-494h-148v715h156q81 -121 159.5 -242.5t156.5 -246.5v489h148v-715h-156zM607 915q-37 -35 -73.5 -68t-70.5 -61h-134q-34 28 -70.5 61t-73.5 68h142q15 -12 32.5 -26.5t37.5 -30.5q20 16 38 30.5t32 26.5h140z" />
    <glyph glyph-name="Rcaron" unicode="&#x158;" horiz-adv-x="689" 
d="M228 260v-260h-152v715h261q141 0 216.5 -59t75.5 -169q0 -71 -33.5 -121t-95.5 -77q45 -71 89 -142.5t88 -146.5h-177q-72 132 -149 260h-15h-108zM228 381h100q71 0 108 25.5t37 80.5t-36.5 81t-107.5 26h-101v-213zM551 915q-37 -35 -73.5 -68t-70.5 -61h-134
q-34 28 -70.5 61t-73.5 68h142q15 -12 32.5 -26.5t37.5 -30.5q20 16 38 30.5t32 26.5h140z" />
    <glyph glyph-name="Scaron" unicode="&#x160;" horiz-adv-x="615" 
d="M278 -15q-59 0 -116.5 13t-110.5 41v138q107 -65 227 -65q68 0 103.5 23t35.5 64q0 31 -17.5 48.5t-46.5 28t-65 19.5q-59 14 -104 32t-76 42.5t-47 59t-16 82.5q0 68 34.5 117t97.5 75.5t150 26.5q57 0 112 -13t99 -35v-136q-44 27 -99.5 42t-111.5 15q-61 0 -94.5 -21
t-33.5 -60q0 -28 16 -44.5t45.5 -27t69.5 -20.5q51 -13 95 -28.5t77.5 -39.5t52 -61t18.5 -91q0 -71 -35 -121.5t-101 -77t-159 -26.5zM541 915q-37 -35 -73.5 -68t-70.5 -61h-134q-34 28 -70.5 61t-73.5 68h142q15 -12 32.5 -26.5t37.5 -30.5q20 16 38 30.5t32 26.5h140z
" />
    <glyph glyph-name="Tcaron" unicode="&#x164;" horiz-adv-x="636" 
d="M16 715h604v-134h-225v-581h-154v581h-225v134zM529 915q-37 -35 -73.5 -68t-70.5 -61h-134q-34 28 -70.5 61t-73.5 68h142q15 -12 32.5 -26.5t37.5 -30.5q20 16 38 30.5t32 26.5h140z" />
    <glyph glyph-name="Zcaron" unicode="&#x17d;" horiz-adv-x="651" 
d="M615 130v-130h-579v110q91 122 182 240.5t182 234.5h-347v130h549v-110q-92 -117 -184 -236t-182 -239h379zM538 915q-37 -35 -73.5 -68t-70.5 -61h-134q-34 28 -70.5 61t-73.5 68h142q15 -12 32.5 -26.5t37.5 -30.5q20 16 38 30.5t32 26.5h140z" />
    <glyph glyph-name="Amacron" unicode="&#x100;" horiz-adv-x="750" 
d="M570 0q-26 79 -52 155h-290q-26 -77 -52 -155h-165q68 188 138.5 367t142.5 348h166q74 -178 144.5 -357.5t136.5 -357.5h-169zM272 283h201q-24 70 -49.5 139.5t-50.5 136.5q-52 -137 -101 -276zM198 897h354v-94h-354v94z" />
    <glyph glyph-name="Emacron" unicode="&#x112;" horiz-adv-x="620" 
d="M76 715h492v-128h-338v-155h300v-128h-300v-176h357v-128h-511v715zM154 897h354v-94h-354v94z" />
    <glyph glyph-name="Imacron" unicode="&#x12a;" horiz-adv-x="306" 
d="M76 715h154v-715h-154v715zM-24 897h354v-94h-354v94z" />
    <glyph glyph-name="Umacron" unicode="&#x16a;" horiz-adv-x="758" 
d="M379 -15q-96 0 -164.5 36.5t-105 105.5t-36.5 166v422h154v-439q0 -76 39.5 -116.5t112.5 -40.5t112.5 40.5t39.5 116.5v439h154v-422q0 -97 -36.5 -166t-105.5 -105.5t-164 -36.5zM202 897h354v-94h-354v94z" />
    <glyph glyph-name="ccaron" unicode="&#x10d;" horiz-adv-x="493" 
d="M313 -13q-86 0 -147 32t-93 92.5t-32 147.5q0 62 19.5 112.5t55.5 86t87.5 54.5t114.5 19q40 0 74 -8t64 -23v-127q-26 19 -57 28.5t-64 9.5q-68 0 -105.5 -40t-37.5 -112t37 -112t103 -40q36 0 68 9t63 30v-124q-31 -17 -69.5 -26t-80.5 -9zM496 762q-32 -40 -65 -81.5
t-67 -80.5h-128q-34 39 -67 80.5t-65 81.5h123q15 -17 34 -37.5t40 -43.5q22 23 40.5 43.5t33.5 37.5h121z" />
    <glyph glyph-name="dcaron" unicode="&#x10f;" horiz-adv-x="605" 
d="M411 0l-7 57q-30 -36 -67 -53t-81 -17q-66 0 -114 32t-74.5 91t-26.5 139q0 87 31 150t87.5 97.5t134.5 34.5q51 0 96 -21v235h148v-745h-127zM192 255q0 -72 26.5 -110t78.5 -38q27 0 50 10.5t43 33.5v241q-19 10 -36.5 14.5t-37.5 4.5q-59 0 -91.5 -41t-32.5 -115z
M600 555q4 45 7 90.5t4 99.5h118q-5 -59 -12 -104t-17 -86h-100z" />
    <glyph glyph-name="ecaron" unicode="&#x11b;" horiz-adv-x="554" 
d="M495 26q-77 -39 -182 -39q-85 0 -146 32t-93.5 92.5t-32.5 145.5q0 63 17.5 113.5t50.5 86.5t79 55t103 19q109 0 167 -67.5t58 -193.5v-43h-330q8 -63 44.5 -93t105.5 -30q46 0 83.5 10t75.5 32v-120zM289 424q-42 0 -68 -28.5t-34 -81.5h192q-4 57 -26 83.5t-64 26.5z
M491 762q-32 -40 -65 -81.5t-67 -80.5h-128q-34 39 -67 80.5t-65 81.5h123q15 -17 34 -37.5t40 -43.5q22 23 40.5 43.5t33.5 37.5h121z" />
    <glyph glyph-name="lcaron" unicode="&#x13e;" horiz-adv-x="326" 
d="M202 -9q-137 0 -137 149v605h148v-592q0 -25 9.5 -35.5t32.5 -10.5q11 0 22 2.5t22 7.5v-109q-39 -17 -97 -17zM272 555q4 45 7 90.5t4 99.5h118q-5 -59 -12 -104t-17 -86h-100z" />
    <glyph glyph-name="ncaron" unicode="&#x148;" horiz-adv-x="601" 
d="M313 410q-58 0 -98 -49v-361h-148v518h127l8 -63q64 76 157 76q85 0 132 -52.5t47 -149.5v-329h-148v323q0 43 -20 65t-57 22zM509 762q-32 -40 -65 -81.5t-67 -80.5h-128q-34 39 -67 80.5t-65 81.5h123q15 -17 34 -37.5t40 -43.5q22 23 40.5 43.5t33.5 37.5h121z" />
    <glyph glyph-name="rcaron" unicode="&#x159;" horiz-adv-x="416" 
d="M338 399q-74 0 -123 -63v-336h-148v518h127l10 -80q55 89 138 89q20 0 35 -3t29 -10v-133q-28 18 -68 18zM442 762q-32 -40 -65 -81.5t-67 -80.5h-128q-34 39 -67 80.5t-65 81.5h123q15 -17 34 -37.5t40 -43.5q22 23 40.5 43.5t33.5 37.5h121z" />
    <glyph glyph-name="scaron" unicode="&#x161;" horiz-adv-x="478" 
d="M217 -13q-47 0 -91 9.5t-83 28.5v121q35 -23 77.5 -36t83.5 -13q92 0 92 51q0 22 -17.5 33t-60.5 22q-66 16 -105.5 37t-57 51.5t-17.5 74.5q0 51 26.5 88t75 57t116.5 20q46 0 89 -9.5t77 -28.5v-120q-30 23 -69.5 35.5t-79.5 12.5q-42 0 -66 -12t-24 -36q0 -15 7 -24
t24.5 -16t49.5 -15q64 -16 103 -37t57 -51.5t18 -74.5q0 -53 -27 -91t-77 -57.5t-121 -19.5zM452 762q-32 -40 -65 -81.5t-67 -80.5h-128q-34 39 -67 80.5t-65 81.5h123q15 -17 34 -37.5t40 -43.5q22 23 40.5 43.5t33.5 37.5h121z" />
    <glyph glyph-name="tcaron" unicode="&#x165;" horiz-adv-x="413" 
d="M393 11q-54 -24 -118 -24q-86 0 -131 44.5t-45 129.5v242h-87v115h87v125l148 33v-158h135v-115h-135v-226q0 -71 71 -71q18 0 37 4.5t38 14.5v-114zM306 565q4 43 6.5 85.5t3.5 94.5h118q-4 -56 -11 -99t-17 -81h-100z" />
    <glyph glyph-name="zcaron" unicode="&#x17e;" horiz-adv-x="494" 
d="M462 114v-114h-432v100q62 78 125 153.5t127 150.5h-240v114h412v-100q-66 -77 -129.5 -152.5t-124.5 -151.5h262zM446 762q-32 -40 -65 -81.5t-67 -80.5h-128q-34 39 -67 80.5t-65 81.5h123q15 -17 34 -37.5t40 -43.5q22 23 40.5 43.5t33.5 37.5h121z" />
    <glyph glyph-name="amacron" unicode="&#x101;" horiz-adv-x="552" 
d="M460 -10q-86 0 -107 57q-32 -30 -69 -45t-82 -15q-78 0 -122 40.5t-44 112.5q0 79 60.5 121.5t174.5 42.5q16 0 34.5 -1.5t36.5 -4.5v23q0 47 -26 70t-80 23q-45 0 -84.5 -12t-76.5 -38v124q43 21 89 32t93 11q109 0 168 -54.5t59 -155.5v-194q0 -18 6 -26.5t22 -8.5
q8 0 15 1.5t14 5.5v-91q-16 -8 -37.5 -13t-43.5 -5zM180 153q0 -61 70 -61q53 0 92 43v79q-14 3 -29.5 4.5t-30.5 1.5q-52 0 -77 -16t-25 -51zM101 728h326v-94h-326v94z" />
    <glyph glyph-name="emacron" unicode="&#x113;" horiz-adv-x="554" 
d="M495 26q-77 -39 -182 -39q-85 0 -146 32t-93.5 92.5t-32.5 145.5q0 63 17.5 113.5t50.5 86.5t79 55t103 19q109 0 167 -67.5t58 -193.5v-43h-330q8 -63 44.5 -93t105.5 -30q46 0 83.5 10t75.5 32v-120zM289 424q-42 0 -68 -28.5t-34 -81.5h192q-4 57 -26 83.5t-64 26.5z
M132 728h326v-94h-326v94z" />
    <glyph glyph-name="imacron" unicode="&#x12b;" horiz-adv-x="282" 
d="M67 518h148v-518h-148v518zM-22 728h326v-94h-326v94z" />
    <glyph glyph-name="umacron" unicode="&#x16b;" 
d="M402 0l-8 62q-63 -75 -154 -75q-85 0 -131 52t-46 147v332h148v-326q0 -41 19 -62.5t56 -21.5q28 0 52.5 12.5t42.5 35.5v362h148v-518h-127zM133 728h326v-94h-326v94z" />
    <glyph glyph-name="ccaron.smcp" unicode="&#xf64e;" horiz-adv-x="553" 
d="M347 -13q-95 0 -163.5 35t-105 100.5t-36.5 157.5q0 67 21.5 121t62.5 92.5t98 59.5t128 21q92 0 164 -35v-131q-64 41 -145 41q-84 0 -129.5 -44.5t-45.5 -124.5t44.5 -124.5t126.5 -44.5t155 43v-128q-35 -19 -80.5 -29t-94.5 -10zM541 805q-32 -40 -65 -81.5
t-67 -80.5h-128q-34 39 -67 80.5t-65 81.5h123q15 -17 34 -37.5t40 -43.5q22 23 40.5 43.5t33.5 37.5h121z" />
    <glyph glyph-name="dcaron.smcp" unicode="&#xf652;" horiz-adv-x="647" 
d="M70 0v561h238q94 0 160 -33t101.5 -95.5t35.5 -150.5q0 -89 -35.5 -152t-102 -96.5t-160.5 -33.5h-237zM220 122h80q74 0 112.5 41t38.5 119q0 77 -38.5 117t-111.5 40h-81v-317zM503 805q-32 -40 -65 -81.5t-67 -80.5h-128q-34 39 -67 80.5t-65 81.5h123
q15 -17 34 -37.5t40 -43.5q22 23 40.5 43.5t33.5 37.5h121z" />
    <glyph glyph-name="ecaron.smcp" unicode="&#xf658;" horiz-adv-x="537" 
d="M70 561h423v-119h-277v-100h248v-113h-248v-110h291v-119h-437v561zM484 805q-32 -40 -65 -81.5t-67 -80.5h-128q-34 39 -67 80.5t-65 81.5h123q15 -17 34 -37.5t40 -43.5q22 23 40.5 43.5t33.5 37.5h121z" />
    <glyph glyph-name="lcaron.smcp" unicode="&#xf66d;" horiz-adv-x="504" 
d="M70 561h150v-436h270v-125h-420v561zM314 365q4 45 7 90.5t4 99.5h118q-5 -59 -12 -104t-17 -86h-100z" />
    <glyph glyph-name="ncaron.smcp" unicode="&#xf673;" horiz-adv-x="669" 
d="M450 0q-56 86 -117 178t-121 180v-358h-142v561h149q61 -88 121.5 -178t116.5 -177v355h142v-561h-149zM541 805q-32 -40 -65 -81.5t-67 -80.5h-128q-34 39 -67 80.5t-65 81.5h123q15 -17 34 -37.5t40 -43.5q22 23 40.5 43.5t33.5 37.5h121z" />
    <glyph glyph-name="rcaron.smcp" unicode="&#xf67e;" horiz-adv-x="602" 
d="M216 191v-191h-146v561h227q122 0 187 -47.5t65 -137.5q0 -54 -26 -94t-75 -63q37 -54 74 -110.5t69 -108.5h-169q-26 45 -55.5 94t-59.5 97h-10h-81zM216 303h74q56 0 82.5 18t26.5 55t-26.5 55t-82.5 18h-74v-146zM479 805q-32 -40 -65 -81.5t-67 -80.5h-128
q-34 39 -67 80.5t-65 81.5h123q15 -17 34 -37.5t40 -43.5q22 23 40.5 43.5t33.5 37.5h121z" />
    <glyph glyph-name="scaron.smcp" unicode="&#xf683;" horiz-adv-x="535" 
d="M48 156q88 -51 189 -51q51 0 79 13.5t28 37.5q0 16 -9 27.5t-31 20t-62 16.5q-72 16 -116.5 38.5t-64.5 56t-20 81.5q0 55 30.5 95t87.5 61.5t135 21.5q45 0 90.5 -10t80.5 -29v-125q-37 23 -82.5 34.5t-88.5 11.5q-49 0 -76.5 -12t-27.5 -38q0 -15 8.5 -24.5t31.5 -17.5
t66 -17q72 -15 116 -38t63.5 -57.5t19.5 -83.5q0 -57 -30 -97.5t-87.5 -62t-137.5 -21.5q-106 0 -192 42v127zM480 805q-32 -40 -65 -81.5t-67 -80.5h-128q-34 39 -67 80.5t-65 81.5h123q15 -17 34 -37.5t40 -43.5q22 23 40.5 43.5t33.5 37.5h121z" />
    <glyph glyph-name="tcaron.smcp" unicode="&#xf685;" horiz-adv-x="539" 
d="M14 561h511v-125h-181v-436h-150v436h-180v125zM465 805q-32 -40 -65 -81.5t-67 -80.5h-128q-34 39 -67 80.5t-65 81.5h123q15 -17 34 -37.5t40 -43.5q22 23 40.5 43.5t33.5 37.5h121z" />
    <glyph glyph-name="zcaron.smcp" unicode="&#xf69d;" horiz-adv-x="558" 
d="M524 122v-122h-492v102q65 78 138 163.5t152 173.5h-277v122h469v-102q-77 -85 -151.5 -171.5t-140.5 -165.5h302zM475 805q-32 -40 -65 -81.5t-67 -80.5h-128q-34 39 -67 80.5t-65 81.5h123q15 -17 34 -37.5t40 -43.5q22 23 40.5 43.5t33.5 37.5h121z" />
    <glyph glyph-name="amacron.smcp" unicode="&#xf645;" horiz-adv-x="645" 
d="M471 0q-9 28 -18.5 56.5t-19.5 56.5h-224q-20 -57 -39 -113h-161q58 149 116 290t115 271h165q58 -132 116 -273t115 -288h-165zM249 227h144q-17 50 -35.5 100t-36.5 99q-37 -100 -72 -199zM159 771h326v-94h-326v94z" />
    <glyph glyph-name="emacron.smcp" unicode="&#xf65a;" horiz-adv-x="537" 
d="M70 561h423v-119h-277v-100h248v-113h-248v-110h291v-119h-437v561zM125 771h326v-94h-326v94z" />
    <glyph glyph-name="imacron.smcp" unicode="&#xf666;" horiz-adv-x="290" 
d="M70 0v561h150v-561h-150zM-18 771h326v-94h-326v94z" />
    <glyph glyph-name="umacron.smcp" unicode="&#xf68d;" horiz-adv-x="654" 
d="M327 -13q-81 0 -139.5 30t-89.5 86t-31 134v324h150v-338q0 -54 28.5 -83t81.5 -29t81.5 29t28.5 83v338h150v-324q0 -78 -31 -134t-89.5 -86t-139.5 -30zM164 771h326v-94h-326v94z" />
    <glyph glyph-name="amacron.alt" horiz-adv-x="597" 
d="M403 0l-8 59q-56 -72 -143 -72q-64 0 -111.5 32t-73.5 90.5t-26 139.5q0 89 33.5 152t96.5 96.5t152 33.5q99 0 207 -48v-483h-127zM192 255q0 -72 26 -110t75 -38q26 0 48 10t41 32v250q-17 7 -33 9.5t-35 2.5q-58 0 -90 -40.5t-32 -115.5zM148 728h326v-94h-326v94z
" />
    <glyph glyph-name="dieresiscomb" unicode="&#x308;" horiz-adv-x="0" 
d="M-121 750q32 0 52 -18t20 -51q0 -31 -20 -50.5t-52 -19.5q-31 0 -50.5 19.5t-19.5 50.5q0 33 19.5 51t50.5 18zM120 750q32 0 51.5 -18t19.5 -51q0 -31 -19.5 -50.5t-51.5 -19.5t-51.5 19.5t-19.5 50.5q0 33 19.5 51t51.5 18z" />
    <glyph glyph-name="dieresiscomb.cap" horiz-adv-x="0" 
d="M-129 929q34 0 53.5 -17.5t19.5 -52.5q0 -31 -19.5 -50.5t-53.5 -19.5q-31 0 -51 19.5t-20 50.5q0 35 20 52.5t51 17.5zM128 929q33 0 52.5 -17.5t19.5 -52.5q0 -31 -19.5 -50.5t-52.5 -19.5q-32 0 -52 19.5t-20 50.5q0 35 20 52.5t52 17.5z" />
    <glyph glyph-name="dieresis" unicode="&#xa8;" horiz-adv-x="500" 
d="M129 750q32 0 52 -18t20 -51q0 -31 -20 -50.5t-52 -19.5q-31 0 -50.5 19.5t-19.5 50.5q0 33 19.5 51t50.5 18zM370 750q32 0 51.5 -18t19.5 -51q0 -31 -19.5 -50.5t-51.5 -19.5t-51.5 19.5t-19.5 50.5q0 33 19.5 51t51.5 18z" />
    <glyph glyph-name="brevecomb" unicode="&#x306;" horiz-adv-x="0" 
d="M0 600q-52 0 -91 20t-61 55.5t-23 83.5h99q4 -35 24 -54t52 -19t52 19t24 54h99q-1 -48 -23 -83.5t-61 -55.5t-91 -20z" />
    <glyph glyph-name="brevecomb.cap" horiz-adv-x="0" 
d="M0 785q-54 0 -95 18t-64 50.5t-23 76.5h101q3 -28 24 -43.5t57 -15.5t57 15.5t24 43.5h101q0 -44 -23 -76.5t-64 -50.5t-95 -18z" />
    <glyph glyph-name="breve" unicode="&#x2d8;" horiz-adv-x="500" 
d="M250 600q-52 0 -91 20t-61 55.5t-23 83.5h99q4 -35 24 -54t52 -19t52 19t24 54h99q-1 -48 -23 -83.5t-61 -55.5t-91 -20z" />
    <glyph glyph-name="Adieresis" unicode="&#xc4;" horiz-adv-x="750" 
d="M570 0q-26 79 -52 155h-290q-26 -77 -52 -155h-165q68 188 138.5 367t142.5 348h166q74 -178 144.5 -357.5t136.5 -357.5h-169zM272 283h201q-24 70 -49.5 139.5t-50.5 136.5q-52 -137 -101 -276zM246 929q34 0 53.5 -17.5t19.5 -52.5q0 -31 -19.5 -50.5t-53.5 -19.5
q-31 0 -51 19.5t-20 50.5q0 35 20 52.5t51 17.5zM503 929q33 0 52.5 -17.5t19.5 -52.5q0 -31 -19.5 -50.5t-52.5 -19.5q-32 0 -52 19.5t-20 50.5q0 35 20 52.5t52 17.5z" />
    <glyph glyph-name="Edieresis" unicode="&#xcb;" horiz-adv-x="620" 
d="M76 715h492v-128h-338v-155h300v-128h-300v-176h357v-128h-511v715zM202 929q34 0 53.5 -17.5t19.5 -52.5q0 -31 -19.5 -50.5t-53.5 -19.5q-31 0 -51 19.5t-20 50.5q0 35 20 52.5t51 17.5zM459 929q33 0 52.5 -17.5t19.5 -52.5q0 -31 -19.5 -50.5t-52.5 -19.5
q-32 0 -52 19.5t-20 50.5q0 35 20 52.5t52 17.5z" />
    <glyph glyph-name="Idieresis" unicode="&#xcf;" horiz-adv-x="306" 
d="M76 715h154v-715h-154v715zM24 929q34 0 53.5 -17.5t19.5 -52.5q0 -31 -19.5 -50.5t-53.5 -19.5q-31 0 -51 19.5t-20 50.5q0 35 20 52.5t51 17.5zM281 929q33 0 52.5 -17.5t19.5 -52.5q0 -31 -19.5 -50.5t-52.5 -19.5q-32 0 -52 19.5t-20 50.5q0 35 20 52.5t52 17.5z" />
    <glyph glyph-name="Odieresis" unicode="&#xd6;" horiz-adv-x="802" 
d="M401 730q81 0 146.5 -26t112 -74.5t71.5 -117t25 -154.5q0 -85 -25 -154t-71.5 -118t-112 -75t-146.5 -26t-146.5 26t-112 75t-71.5 118t-25 154q0 86 25 154.5t71.5 117t112 74.5t146.5 26zM401 119q61 0 105 28.5t67 81.5t23 129t-23 129t-67 81t-105 28t-105 -28
t-67 -81t-23 -129t23 -129t67 -81.5t105 -28.5zM272 929q34 0 53.5 -17.5t19.5 -52.5q0 -31 -19.5 -50.5t-53.5 -19.5q-31 0 -51 19.5t-20 50.5q0 35 20 52.5t51 17.5zM529 929q33 0 52.5 -17.5t19.5 -52.5q0 -31 -19.5 -50.5t-52.5 -19.5q-32 0 -52 19.5t-20 50.5
q0 35 20 52.5t52 17.5z" />
    <glyph glyph-name="Udieresis" unicode="&#xdc;" horiz-adv-x="758" 
d="M379 -15q-96 0 -164.5 36.5t-105 105.5t-36.5 166v422h154v-439q0 -76 39.5 -116.5t112.5 -40.5t112.5 40.5t39.5 116.5v439h154v-422q0 -97 -36.5 -166t-105.5 -105.5t-164 -36.5zM250 929q34 0 53.5 -17.5t19.5 -52.5q0 -31 -19.5 -50.5t-53.5 -19.5q-31 0 -51 19.5
t-20 50.5q0 35 20 52.5t51 17.5zM507 929q33 0 52.5 -17.5t19.5 -52.5q0 -31 -19.5 -50.5t-52.5 -19.5q-32 0 -52 19.5t-20 50.5q0 35 20 52.5t52 17.5z" />
    <glyph glyph-name="Wdieresis" unicode="&#x1e84;" horiz-adv-x="990" 
d="M624 0q-34 121 -66.5 242t-63.5 242q-30 -121 -62 -242t-66 -242h-163q-51 175 -98 354t-89 361h168q25 -139 53 -278t59 -273q67 261 127 521h150q30 -128 61.5 -255.5t64.5 -254.5q30 132 58 268t52 272h165q-42 -182 -89 -361t-98 -354h-163zM369 929q34 0 53.5 -17.5
t19.5 -52.5q0 -31 -19.5 -50.5t-53.5 -19.5q-31 0 -51 19.5t-20 50.5q0 35 20 52.5t51 17.5zM626 929q33 0 52.5 -17.5t19.5 -52.5q0 -31 -19.5 -50.5t-52.5 -19.5q-32 0 -52 19.5t-20 50.5q0 35 20 52.5t52 17.5z" />
    <glyph glyph-name="Ydieresis" unicode="&#x178;" horiz-adv-x="719" 
d="M436 271v-271h-154v271q-70 110 -137 221t-131 223h175q41 -79 84.5 -158t87.5 -156q45 78 88 156.5t85 157.5h171q-65 -112 -132 -223t-137 -221zM230 929q34 0 53.5 -17.5t19.5 -52.5q0 -31 -19.5 -50.5t-53.5 -19.5q-31 0 -51 19.5t-20 50.5q0 35 20 52.5t51 17.5z
M487 929q33 0 52.5 -17.5t19.5 -52.5q0 -31 -19.5 -50.5t-52.5 -19.5q-32 0 -52 19.5t-20 50.5q0 35 20 52.5t52 17.5z" />
    <glyph glyph-name="Abreve" unicode="&#x102;" horiz-adv-x="750" 
d="M570 0q-26 79 -52 155h-290q-26 -77 -52 -155h-165q68 188 138.5 367t142.5 348h166q74 -178 144.5 -357.5t136.5 -357.5h-169zM272 283h201q-24 70 -49.5 139.5t-50.5 136.5q-52 -137 -101 -276zM375 785q-54 0 -95 18t-64 50.5t-23 76.5h101q3 -28 24 -43.5t57 -15.5
t57 15.5t24 43.5h101q0 -44 -23 -76.5t-64 -50.5t-95 -18z" />
    <glyph glyph-name="Gbreve" unicode="&#x11e;" horiz-adv-x="741" 
d="M681 42q-34 -18 -77 -31t-90 -19.5t-94 -6.5q-87 0 -156.5 25.5t-118 74t-74 117.5t-25.5 156q0 85 27 153.5t77 117.5t120.5 75t157.5 26q65 0 124.5 -12.5t109.5 -36.5v-142q-46 28 -100.5 42.5t-117.5 14.5q-76 0 -129 -28t-81 -81t-28 -129q0 -116 58 -178.5
t166 -62.5q27 0 54 4t53 12v144h-128v121h272v-356zM425 785q-54 0 -95 18t-64 50.5t-23 76.5h101q3 -28 24 -43.5t57 -15.5t57 15.5t24 43.5h101q0 -44 -23 -76.5t-64 -50.5t-95 -18z" />
    <glyph glyph-name="adieresis" unicode="&#xe4;" horiz-adv-x="552" 
d="M460 -10q-86 0 -107 57q-32 -30 -69 -45t-82 -15q-78 0 -122 40.5t-44 112.5q0 79 60.5 121.5t174.5 42.5q16 0 34.5 -1.5t36.5 -4.5v23q0 47 -26 70t-80 23q-45 0 -84.5 -12t-76.5 -38v124q43 21 89 32t93 11q109 0 168 -54.5t59 -155.5v-194q0 -18 6 -26.5t22 -8.5
q8 0 15 1.5t14 5.5v-91q-16 -8 -37.5 -13t-43.5 -5zM180 153q0 -61 70 -61q53 0 92 43v79q-14 3 -29.5 4.5t-30.5 1.5q-52 0 -77 -16t-25 -51zM143 750q32 0 52 -18t20 -51q0 -31 -20 -50.5t-52 -19.5q-31 0 -50.5 19.5t-19.5 50.5q0 33 19.5 51t50.5 18zM384 750
q32 0 51.5 -18t19.5 -51q0 -31 -19.5 -50.5t-51.5 -19.5t-51.5 19.5t-19.5 50.5q0 33 19.5 51t51.5 18z" />
    <glyph glyph-name="edieresis" unicode="&#xeb;" horiz-adv-x="554" 
d="M495 26q-77 -39 -182 -39q-85 0 -146 32t-93.5 92.5t-32.5 145.5q0 63 17.5 113.5t50.5 86.5t79 55t103 19q109 0 167 -67.5t58 -193.5v-43h-330q8 -63 44.5 -93t105.5 -30q46 0 83.5 10t75.5 32v-120zM289 424q-42 0 -68 -28.5t-34 -81.5h192q-4 57 -26 83.5t-64 26.5z
M174 750q32 0 52 -18t20 -51q0 -31 -20 -50.5t-52 -19.5q-31 0 -50.5 19.5t-19.5 50.5q0 33 19.5 51t50.5 18zM415 750q32 0 51.5 -18t19.5 -51q0 -31 -19.5 -50.5t-51.5 -19.5t-51.5 19.5t-19.5 50.5q0 33 19.5 51t51.5 18z" />
    <glyph glyph-name="idieresis" unicode="&#xef;" horiz-adv-x="282" 
d="M67 518h148v-518h-148v518zM20 750q32 0 52 -18t20 -51q0 -31 -20 -50.5t-52 -19.5q-31 0 -50.5 19.5t-19.5 50.5q0 33 19.5 51t50.5 18zM261 750q32 0 51.5 -18t19.5 -51q0 -31 -19.5 -50.5t-51.5 -19.5t-51.5 19.5t-19.5 50.5q0 33 19.5 51t51.5 18z" />
    <glyph glyph-name="odieresis" unicode="&#xf6;" horiz-adv-x="600" 
d="M300 531q80 0 138 -33.5t89.5 -94.5t31.5 -144q0 -62 -18 -112t-52 -86t-82 -55t-107 -19t-107 19t-82 55t-52 86t-18 112q0 83 31.5 144t89.5 94.5t138 33.5zM300 106q52 0 80 40.5t28 112.5q0 73 -28.5 113t-79.5 40t-79.5 -40t-28.5 -113q0 -72 28 -112.5t80 -40.5z
M179 750q32 0 52 -18t20 -51q0 -31 -20 -50.5t-52 -19.5q-31 0 -50.5 19.5t-19.5 50.5q0 33 19.5 51t50.5 18zM420 750q32 0 51.5 -18t19.5 -51q0 -31 -19.5 -50.5t-51.5 -19.5t-51.5 19.5t-19.5 50.5q0 33 19.5 51t51.5 18z" />
    <glyph glyph-name="udieresis" unicode="&#xfc;" 
d="M402 0l-8 62q-63 -75 -154 -75q-85 0 -131 52t-46 147v332h148v-326q0 -41 19 -62.5t56 -21.5q28 0 52.5 12.5t42.5 35.5v362h148v-518h-127zM175 750q32 0 52 -18t20 -51q0 -31 -20 -50.5t-52 -19.5q-31 0 -50.5 19.5t-19.5 50.5q0 33 19.5 51t50.5 18zM416 750
q32 0 51.5 -18t19.5 -51q0 -31 -19.5 -50.5t-51.5 -19.5t-51.5 19.5t-19.5 50.5q0 33 19.5 51t51.5 18z" />
    <glyph glyph-name="wdieresis" unicode="&#x1e85;" horiz-adv-x="792" 
d="M491 0q-25 83 -48.5 166.5t-45.5 167.5q-23 -84 -47 -167.5t-49 -166.5h-148q-39 128 -75 258t-69 260h156q17 -96 35.5 -189t38.5 -185q24 88 46.5 176t43.5 178h138q21 -88 43 -175t46 -173q21 92 39.5 183t35.5 185h152q-33 -130 -69 -259.5t-75 -258.5h-148zM277 750
q32 0 52 -18t20 -51q0 -31 -20 -50.5t-52 -19.5q-31 0 -50.5 19.5t-19.5 50.5q0 33 19.5 51t50.5 18zM518 750q32 0 51.5 -18t19.5 -51q0 -31 -19.5 -50.5t-51.5 -19.5t-51.5 19.5t-19.5 50.5q0 33 19.5 51t51.5 18z" />
    <glyph glyph-name="ydieresis" unicode="&#xff;" horiz-adv-x="558" 
d="M324 -59q-21 -49 -42 -83.5t-45.5 -56t-54.5 -31t-69 -9.5q-31 0 -55.5 4t-44.5 13v116q13 -7 34 -11.5t41 -4.5q26 0 43.5 7t30.5 23t24 42q6 14 11 27.5t11 26.5q-53 129 -103 257.5t-97 256.5h159q26 -92 54.5 -182t59.5 -179q31 90 59.5 180t54.5 181h155
q-16 -46 -36.5 -99.5t-42 -110t-43.5 -111.5t-41.5 -104.5t-36 -88.5t-26.5 -63zM158 750q32 0 52 -18t20 -51q0 -31 -20 -50.5t-52 -19.5q-31 0 -50.5 19.5t-19.5 50.5q0 33 19.5 51t50.5 18zM399 750q32 0 51.5 -18t19.5 -51q0 -31 -19.5 -50.5t-51.5 -19.5t-51.5 19.5
t-19.5 50.5q0 33 19.5 51t51.5 18z" />
    <glyph glyph-name="abreve" unicode="&#x103;" horiz-adv-x="552" 
d="M460 -10q-86 0 -107 57q-32 -30 -69 -45t-82 -15q-78 0 -122 40.5t-44 112.5q0 79 60.5 121.5t174.5 42.5q16 0 34.5 -1.5t36.5 -4.5v23q0 47 -26 70t-80 23q-45 0 -84.5 -12t-76.5 -38v124q43 21 89 32t93 11q109 0 168 -54.5t59 -155.5v-194q0 -18 6 -26.5t22 -8.5
q8 0 15 1.5t14 5.5v-91q-16 -8 -37.5 -13t-43.5 -5zM180 153q0 -61 70 -61q53 0 92 43v79q-14 3 -29.5 4.5t-30.5 1.5q-52 0 -77 -16t-25 -51zM264 600q-52 0 -91 20t-61 55.5t-23 83.5h99q4 -35 24 -54t52 -19t52 19t24 54h99q-1 -48 -23 -83.5t-61 -55.5t-91 -20z" />
    <glyph glyph-name="gbreve" unicode="&#x11f;" horiz-adv-x="605" 
d="M538 10q0 -122 -69 -185.5t-202 -63.5q-54 0 -100.5 10t-85.5 31v124q34 -22 78 -34t90 -12q141 0 141 123v61q-28 -30 -61 -44t-73 -14q-66 0 -114 31t-74.5 88t-26.5 134q0 86 34 147t98.5 93t156.5 32q50 0 100 -11.5t108 -36.5v-473zM192 265q0 -67 27 -103t78 -36
q55 0 93 43v229q-18 7 -35 10t-37 3q-61 0 -93.5 -37.5t-32.5 -108.5zM318 600q-52 0 -91 20t-61 55.5t-23 83.5h99q4 -35 24 -54t52 -19t52 19t24 54h99q-1 -48 -23 -83.5t-61 -55.5t-91 -20z" />
    <glyph glyph-name="adieresis.smcp" unicode="&#xf64b;" horiz-adv-x="645" 
d="M471 0q-9 28 -18.5 56.5t-19.5 56.5h-224q-20 -57 -39 -113h-161q58 149 116 290t115 271h165q58 -132 116 -273t115 -288h-165zM249 227h144q-17 50 -35.5 100t-36.5 99q-37 -100 -72 -199zM201 793q32 0 52 -18t20 -51q0 -31 -20 -50.5t-52 -19.5q-31 0 -50.5 19.5
t-19.5 50.5q0 33 19.5 51t50.5 18zM442 793q32 0 51.5 -18t19.5 -51q0 -31 -19.5 -50.5t-51.5 -19.5t-51.5 19.5t-19.5 50.5q0 33 19.5 51t51.5 18z" />
    <glyph glyph-name="edieresis.smcp" unicode="&#xf657;" horiz-adv-x="537" 
d="M70 561h423v-119h-277v-100h248v-113h-248v-110h291v-119h-437v561zM167 793q32 0 52 -18t20 -51q0 -31 -20 -50.5t-52 -19.5q-31 0 -50.5 19.5t-19.5 50.5q0 33 19.5 51t50.5 18zM408 793q32 0 51.5 -18t19.5 -51q0 -31 -19.5 -50.5t-51.5 -19.5t-51.5 19.5t-19.5 50.5
q0 33 19.5 51t51.5 18z" />
    <glyph glyph-name="idieresis.smcp" unicode="&#xf665;" horiz-adv-x="290" 
d="M70 0v561h150v-561h-150zM24 793q32 0 52 -18t20 -51q0 -31 -20 -50.5t-52 -19.5q-31 0 -50.5 19.5t-19.5 50.5q0 33 19.5 51t50.5 18zM265 793q32 0 51.5 -18t19.5 -51q0 -31 -19.5 -50.5t-51.5 -19.5t-51.5 19.5t-19.5 50.5q0 33 19.5 51t51.5 18z" />
    <glyph glyph-name="odieresis.smcp" unicode="&#xf679;" horiz-adv-x="668" 
d="M334 574q67 0 120.5 -20.5t92 -59t59 -92.5t20.5 -121t-20.5 -121.5t-59 -93t-92.5 -59t-120 -20.5t-120 20.5t-92.5 59t-59 93t-20.5 121.5t20.5 121t59 92.5t92 59t120.5 20.5zM334 111q65 0 101.5 45t36.5 125q0 79 -36.5 123.5t-101.5 44.5t-101.5 -44.5
t-36.5 -123.5q0 -80 36.5 -125t101.5 -45zM213 793q32 0 52 -18t20 -51q0 -31 -20 -50.5t-52 -19.5q-31 0 -50.5 19.5t-19.5 50.5q0 33 19.5 51t50.5 18zM454 793q32 0 51.5 -18t19.5 -51q0 -31 -19.5 -50.5t-51.5 -19.5t-51.5 19.5t-19.5 50.5q0 33 19.5 51t51.5 18z" />
    <glyph glyph-name="udieresis.smcp" unicode="&#xf68c;" horiz-adv-x="654" 
d="M327 -13q-81 0 -139.5 30t-89.5 86t-31 134v324h150v-338q0 -54 28.5 -83t81.5 -29t81.5 29t28.5 83v338h150v-324q0 -78 -31 -134t-89.5 -86t-139.5 -30zM206 793q32 0 52 -18t20 -51q0 -31 -20 -50.5t-52 -19.5q-31 0 -50.5 19.5t-19.5 50.5q0 33 19.5 51t50.5 18z
M447 793q32 0 51.5 -18t19.5 -51q0 -31 -19.5 -50.5t-51.5 -19.5t-51.5 19.5t-19.5 50.5q0 33 19.5 51t51.5 18z" />
    <glyph glyph-name="wdieresis.smcp" unicode="&#xf695;" horiz-adv-x="828" 
d="M507 0q-25 90 -49 178t-44 172q-22 -88 -45.5 -175.5t-48.5 -174.5h-159q-39 134 -76 275.5t-71 285.5h164q17 -105 36.5 -210t39.5 -203q26 100 50 198t43 190h140q19 -88 42.5 -183.5t48.5 -196.5q20 97 39 199.5t36 205.5h161q-34 -144 -71 -285.5t-76 -275.5h-160z
M296 793q32 0 52 -18t20 -51q0 -31 -20 -50.5t-52 -19.5q-31 0 -50.5 19.5t-19.5 50.5q0 33 19.5 51t50.5 18zM537 793q32 0 51.5 -18t19.5 -51q0 -31 -19.5 -50.5t-51.5 -19.5t-51.5 19.5t-19.5 50.5q0 33 19.5 51t51.5 18z" />
    <glyph glyph-name="ydieresis.smcp" unicode="&#xf699;" horiz-adv-x="632" 
d="M391 208v-208h-150v208q-60 87 -117.5 176.5t-110.5 176.5h171q30 -55 64 -113.5t70 -117.5q35 57 69 115.5t65 115.5h167q-53 -88 -110.5 -177t-117.5 -176zM195 793q32 0 52 -18t20 -51q0 -31 -20 -50.5t-52 -19.5q-31 0 -50.5 19.5t-19.5 50.5q0 33 19.5 51t50.5 18z
M436 793q32 0 51.5 -18t19.5 -51q0 -31 -19.5 -50.5t-51.5 -19.5t-51.5 19.5t-19.5 50.5q0 33 19.5 51t51.5 18z" />
    <glyph glyph-name="abreve.smcp" unicode="&#xf644;" horiz-adv-x="645" 
d="M471 0q-9 28 -18.5 56.5t-19.5 56.5h-224q-20 -57 -39 -113h-161q58 149 116 290t115 271h165q58 -132 116 -273t115 -288h-165zM249 227h144q-17 50 -35.5 100t-36.5 99q-37 -100 -72 -199zM322 643q-52 0 -91 20t-61 55.5t-23 83.5h99q4 -35 24 -54t52 -19t52 19t24 54
h99q-1 -48 -23 -83.5t-61 -55.5t-91 -20z" />
    <glyph glyph-name="gbreve.smcp" unicode="&#xf65d;" horiz-adv-x="621" 
d="M566 30q-29 -14 -65 -23.5t-75.5 -14.5t-79.5 -5q-95 0 -163 35.5t-104.5 101t-36.5 156.5q0 67 22.5 121t65 92.5t101.5 59.5t132 21q104 0 185 -35v-131q-36 20 -77.5 30.5t-90.5 10.5q-88 0 -136 -44t-48 -125q0 -82 41 -126.5t118 -44.5q37 0 75 8v95h-94v110h230
v-292zM354 643q-52 0 -91 20t-61 55.5t-23 83.5h99q4 -35 24 -54t52 -19t52 19t24 54h99q-1 -48 -23 -83.5t-61 -55.5t-91 -20z" />
    <glyph glyph-name="adieresis.alt" horiz-adv-x="597" 
d="M403 0l-8 59q-56 -72 -143 -72q-64 0 -111.5 32t-73.5 90.5t-26 139.5q0 89 33.5 152t96.5 96.5t152 33.5q99 0 207 -48v-483h-127zM192 255q0 -72 26 -110t75 -38q26 0 48 10t41 32v250q-17 7 -33 9.5t-35 2.5q-58 0 -90 -40.5t-32 -115.5zM190 750q32 0 52 -18t20 -51
q0 -31 -20 -50.5t-52 -19.5q-31 0 -50.5 19.5t-19.5 50.5q0 33 19.5 51t50.5 18zM431 750q32 0 51.5 -18t19.5 -51q0 -31 -19.5 -50.5t-51.5 -19.5t-51.5 19.5t-19.5 50.5q0 33 19.5 51t51.5 18z" />
    <glyph glyph-name="abreve.alt" horiz-adv-x="597" 
d="M403 0l-8 59q-56 -72 -143 -72q-64 0 -111.5 32t-73.5 90.5t-26 139.5q0 89 33.5 152t96.5 96.5t152 33.5q99 0 207 -48v-483h-127zM192 255q0 -72 26 -110t75 -38q26 0 48 10t41 32v250q-17 7 -33 9.5t-35 2.5q-58 0 -90 -40.5t-32 -115.5zM311 600q-52 0 -91 20
t-61 55.5t-23 83.5h99q4 -35 24 -54t52 -19t52 19t24 54h99q-1 -48 -23 -83.5t-61 -55.5t-91 -20z" />
    <glyph glyph-name="dotaccentcomb" unicode="&#x307;" horiz-adv-x="0" 
d="M0 754q34 0 54.5 -18.5t20.5 -54.5q0 -33 -20.5 -53.5t-54.5 -20.5q-33 0 -54 20.5t-21 53.5q0 36 21 54.5t54 18.5z" />
    <glyph glyph-name="dotaccentcomb.cap" horiz-adv-x="0" 
d="M0 937q35 0 55.5 -18.5t20.5 -56.5q0 -33 -20.5 -53.5t-55.5 -20.5q-34 0 -55 20.5t-21 53.5q0 38 21 56.5t55 18.5z" />
    <glyph glyph-name="dotaccent" unicode="&#x2d9;" horiz-adv-x="500" 
d="M250 754q34 0 54.5 -18.5t20.5 -54.5q0 -33 -20.5 -53.5t-54.5 -20.5q-33 0 -54 20.5t-21 53.5q0 36 21 54.5t54 18.5z" />
    <glyph glyph-name="Edotaccent" unicode="&#x116;" horiz-adv-x="620" 
d="M76 715h492v-128h-338v-155h300v-128h-300v-176h357v-128h-511v715zM331 937q35 0 55.5 -18.5t20.5 -56.5q0 -33 -20.5 -53.5t-55.5 -20.5q-34 0 -55 20.5t-21 53.5q0 38 21 56.5t55 18.5z" />
    <glyph glyph-name="Idotaccent" unicode="&#x130;" horiz-adv-x="306" 
d="M76 715h154v-715h-154v715zM153 937q35 0 55.5 -18.5t20.5 -56.5q0 -33 -20.5 -53.5t-55.5 -20.5q-34 0 -55 20.5t-21 53.5q0 38 21 56.5t55 18.5z" />
    <glyph glyph-name="Cdotaccent" unicode="&#x10a;" horiz-adv-x="669" 
d="M411 -15q-85 0 -153 25.5t-115 73.5t-72 117.5t-25 156.5q0 85 26 153.5t75 117.5t117.5 75t153.5 26q59 0 111.5 -12.5t97.5 -36.5v-142q-41 28 -89 42.5t-101 14.5q-73 0 -124.5 -28t-79 -81t-27.5 -129t26.5 -129.5t77 -81.5t122.5 -28q110 0 203 59v-139
q-44 -25 -102 -39.5t-122 -14.5zM415 937q35 0 55.5 -18.5t20.5 -56.5q0 -33 -20.5 -53.5t-55.5 -20.5q-34 0 -55 20.5t-21 53.5q0 38 21 56.5t55 18.5z" />
    <glyph glyph-name="Gdotaccent" unicode="&#x120;" horiz-adv-x="741" 
d="M681 42q-34 -18 -77 -31t-90 -19.5t-94 -6.5q-87 0 -156.5 25.5t-118 74t-74 117.5t-25.5 156q0 85 27 153.5t77 117.5t120.5 75t157.5 26q65 0 124.5 -12.5t109.5 -36.5v-142q-46 28 -100.5 42.5t-117.5 14.5q-76 0 -129 -28t-81 -81t-28 -129q0 -116 58 -178.5
t166 -62.5q27 0 54 4t53 12v144h-128v121h272v-356zM425 937q35 0 55.5 -18.5t20.5 -56.5q0 -33 -20.5 -53.5t-55.5 -20.5q-34 0 -55 20.5t-21 53.5q0 38 21 56.5t55 18.5z" />
    <glyph glyph-name="Zdotaccent" unicode="&#x17b;" horiz-adv-x="651" 
d="M615 130v-130h-579v110q91 122 182 240.5t182 234.5h-347v130h549v-110q-92 -117 -184 -236t-182 -239h379zM327 937q35 0 55.5 -18.5t20.5 -56.5q0 -33 -20.5 -53.5t-55.5 -20.5q-34 0 -55 20.5t-21 53.5q0 38 21 56.5t55 18.5z" />
    <glyph glyph-name="edotaccent" unicode="&#x117;" horiz-adv-x="554" 
d="M495 26q-77 -39 -182 -39q-85 0 -146 32t-93.5 92.5t-32.5 145.5q0 63 17.5 113.5t50.5 86.5t79 55t103 19q109 0 167 -67.5t58 -193.5v-43h-330q8 -63 44.5 -93t105.5 -30q46 0 83.5 10t75.5 32v-120zM289 424q-42 0 -68 -28.5t-34 -81.5h192q-4 57 -26 83.5t-64 26.5z
M295 754q34 0 54.5 -18.5t20.5 -54.5q0 -33 -20.5 -53.5t-54.5 -20.5q-33 0 -54 20.5t-21 53.5q0 36 21 54.5t54 18.5z" />
    <glyph glyph-name="cdotaccent" unicode="&#x10b;" horiz-adv-x="493" 
d="M313 -13q-86 0 -147 32t-93 92.5t-32 147.5q0 62 19.5 112.5t55.5 86t87.5 54.5t114.5 19q40 0 74 -8t64 -23v-127q-26 19 -57 28.5t-64 9.5q-68 0 -105.5 -40t-37.5 -112t37 -112t103 -40q36 0 68 9t63 30v-124q-31 -17 -69.5 -26t-80.5 -9zM300 754q34 0 54.5 -18.5
t20.5 -54.5q0 -33 -20.5 -53.5t-54.5 -20.5q-33 0 -54 20.5t-21 53.5q0 36 21 54.5t54 18.5z" />
    <glyph glyph-name="gdotaccent" unicode="&#x121;" horiz-adv-x="605" 
d="M538 10q0 -122 -69 -185.5t-202 -63.5q-54 0 -100.5 10t-85.5 31v124q34 -22 78 -34t90 -12q141 0 141 123v61q-28 -30 -61 -44t-73 -14q-66 0 -114 31t-74.5 88t-26.5 134q0 86 34 147t98.5 93t156.5 32q50 0 100 -11.5t108 -36.5v-473zM192 265q0 -67 27 -103t78 -36
q55 0 93 43v229q-18 7 -35 10t-37 3q-61 0 -93.5 -37.5t-32.5 -108.5zM318 754q34 0 54.5 -18.5t20.5 -54.5q0 -33 -20.5 -53.5t-54.5 -20.5q-33 0 -54 20.5t-21 53.5q0 36 21 54.5t54 18.5z" />
    <glyph glyph-name="zdotaccent" unicode="&#x17c;" horiz-adv-x="494" 
d="M462 114v-114h-432v100q62 78 125 153.5t127 150.5h-240v114h412v-100q-66 -77 -129.5 -152.5t-124.5 -151.5h262zM250 754q34 0 54.5 -18.5t20.5 -54.5q0 -33 -20.5 -53.5t-54.5 -20.5q-33 0 -54 20.5t-21 53.5q0 36 21 54.5t54 18.5z" />
    <glyph glyph-name="edotaccent.smcp" unicode="&#xf659;" horiz-adv-x="537" 
d="M70 561h423v-119h-277v-100h248v-113h-248v-110h291v-119h-437v561zM288 797q34 0 54.5 -18.5t20.5 -54.5q0 -33 -20.5 -53.5t-54.5 -20.5q-33 0 -54 20.5t-21 53.5q0 36 21 54.5t54 18.5z" />
    <glyph glyph-name="idotaccent.smcp" unicode="&#xf625;" horiz-adv-x="290" 
d="M70 0v561h150v-561h-150zM145 797q34 0 54.5 -18.5t20.5 -54.5q0 -33 -20.5 -53.5t-54.5 -20.5q-33 0 -54 20.5t-21 53.5q0 36 21 54.5t54 18.5z" />
    <glyph glyph-name="cdotaccent.smcp" unicode="&#xf64f;" horiz-adv-x="553" 
d="M347 -13q-95 0 -163.5 35t-105 100.5t-36.5 157.5q0 67 21.5 121t62.5 92.5t98 59.5t128 21q92 0 164 -35v-131q-64 41 -145 41q-84 0 -129.5 -44.5t-45.5 -124.5t44.5 -124.5t126.5 -44.5t155 43v-128q-35 -19 -80.5 -29t-94.5 -10zM345 797q34 0 54.5 -18.5t20.5 -54.5
q0 -33 -20.5 -53.5t-54.5 -20.5q-33 0 -54 20.5t-21 53.5q0 36 21 54.5t54 18.5z" />
    <glyph glyph-name="gdotaccent.smcp" unicode="&#xf65f;" horiz-adv-x="621" 
d="M566 30q-29 -14 -65 -23.5t-75.5 -14.5t-79.5 -5q-95 0 -163 35.5t-104.5 101t-36.5 156.5q0 67 22.5 121t65 92.5t101.5 59.5t132 21q104 0 185 -35v-131q-36 20 -77.5 30.5t-90.5 10.5q-88 0 -136 -44t-48 -125q0 -82 41 -126.5t118 -44.5q37 0 75 8v95h-94v110h230
v-292zM354 797q34 0 54.5 -18.5t20.5 -54.5q0 -33 -20.5 -53.5t-54.5 -20.5q-33 0 -54 20.5t-21 53.5q0 36 21 54.5t54 18.5z" />
    <glyph glyph-name="zdotaccent.smcp" unicode="&#xf69a;" horiz-adv-x="558" 
d="M524 122v-122h-492v102q65 78 138 163.5t152 173.5h-277v122h469v-102q-77 -85 -151.5 -171.5t-140.5 -165.5h302zM279 797q34 0 54.5 -18.5t20.5 -54.5q0 -33 -20.5 -53.5t-54.5 -20.5q-33 0 -54 20.5t-21 53.5q0 36 21 54.5t54 18.5z" />
    <glyph glyph-name="ringcomb" unicode="&#x30a;" horiz-adv-x="0" 
d="M0 815q34 0 60.5 -14.5t41.5 -40.5t15 -59t-15 -58.5t-41.5 -40t-60.5 -14.5t-60.5 14.5t-41.5 40t-15 58.5t15 59t41.5 40.5t60.5 14.5zM0 645q22 0 37 14.5t15 40.5q0 28 -15 43t-37 15t-37 -15t-15 -43q0 -26 15 -40.5t37 -14.5z" />
    <glyph glyph-name="ringcomb.cap" horiz-adv-x="0" 
d="M0 997q35 0 62 -14.5t42.5 -39.5t15.5 -58t-15.5 -58t-42.5 -39t-62 -14t-62 14t-42.5 39t-15.5 58t15.5 58t42.5 39.5t62 14.5zM0 832q23 0 38.5 14t15.5 38q0 26 -15.5 40.5t-38.5 14.5t-38.5 -14.5t-15.5 -40.5q0 -24 15.5 -38t38.5 -14z" />
    <glyph glyph-name="ring" unicode="&#x2da;" horiz-adv-x="500" 
d="M250 815q34 0 60.5 -14.5t41.5 -40.5t15 -59t-15 -58.5t-41.5 -40t-60.5 -14.5t-60.5 14.5t-41.5 40t-15 58.5t15 59t41.5 40.5t60.5 14.5zM250 645q22 0 37 14.5t15 40.5q0 28 -15 43t-37 15t-37 -15t-15 -43q0 -26 15 -40.5t37 -14.5z" />
    <glyph glyph-name="Aring" unicode="&#xc5;" horiz-adv-x="750" 
d="M570 0q-26 79 -52 155h-290q-26 -77 -52 -155h-165q68 188 138.5 367t142.5 348h166q74 -178 144.5 -357.5t136.5 -357.5h-169zM272 283h201q-24 70 -49.5 139.5t-50.5 136.5q-52 -137 -101 -276zM375 997q35 0 62 -14.5t42.5 -39.5t15.5 -58t-15.5 -58t-42.5 -39
t-62 -14t-62 14t-42.5 39t-15.5 58t15.5 58t42.5 39.5t62 14.5zM375 832q23 0 38.5 14t15.5 38q0 26 -15.5 40.5t-38.5 14.5t-38.5 -14.5t-15.5 -40.5q0 -24 15.5 -38t38.5 -14z" />
    <glyph glyph-name="Uring" unicode="&#x16e;" horiz-adv-x="758" 
d="M379 -15q-96 0 -164.5 36.5t-105 105.5t-36.5 166v422h154v-439q0 -76 39.5 -116.5t112.5 -40.5t112.5 40.5t39.5 116.5v439h154v-422q0 -97 -36.5 -166t-105.5 -105.5t-164 -36.5zM379 997q35 0 62 -14.5t42.5 -39.5t15.5 -58t-15.5 -58t-42.5 -39t-62 -14t-62 14
t-42.5 39t-15.5 58t15.5 58t42.5 39.5t62 14.5zM379 832q23 0 38.5 14t15.5 38q0 26 -15.5 40.5t-38.5 14.5t-38.5 -14.5t-15.5 -40.5q0 -24 15.5 -38t38.5 -14z" />
    <glyph glyph-name="aring" unicode="&#xe5;" horiz-adv-x="552" 
d="M460 -10q-86 0 -107 57q-32 -30 -69 -45t-82 -15q-78 0 -122 40.5t-44 112.5q0 79 60.5 121.5t174.5 42.5q16 0 34.5 -1.5t36.5 -4.5v23q0 47 -26 70t-80 23q-45 0 -84.5 -12t-76.5 -38v124q43 21 89 32t93 11q109 0 168 -54.5t59 -155.5v-194q0 -18 6 -26.5t22 -8.5
q8 0 15 1.5t14 5.5v-91q-16 -8 -37.5 -13t-43.5 -5zM180 153q0 -61 70 -61q53 0 92 43v79q-14 3 -29.5 4.5t-30.5 1.5q-52 0 -77 -16t-25 -51zM264 815q34 0 60.5 -14.5t41.5 -40.5t15 -59t-15 -58.5t-41.5 -40t-60.5 -14.5t-60.5 14.5t-41.5 40t-15 58.5t15 59t41.5 40.5
t60.5 14.5zM264 645q22 0 37 14.5t15 40.5q0 28 -15 43t-37 15t-37 -15t-15 -43q0 -26 15 -40.5t37 -14.5z" />
    <glyph glyph-name="uring" unicode="&#x16f;" 
d="M402 0l-8 62q-63 -75 -154 -75q-85 0 -131 52t-46 147v332h148v-326q0 -41 19 -62.5t56 -21.5q28 0 52.5 12.5t42.5 35.5v362h148v-518h-127zM296 815q34 0 60.5 -14.5t41.5 -40.5t15 -59t-15 -58.5t-41.5 -40t-60.5 -14.5t-60.5 14.5t-41.5 40t-15 58.5t15 59t41.5 40.5
t60.5 14.5zM296 645q22 0 37 14.5t15 40.5q0 28 -15 43t-37 15t-37 -15t-15 -43q0 -26 15 -40.5t37 -14.5z" />
    <glyph glyph-name="aring.smcp" unicode="&#xf64c;" horiz-adv-x="645" 
d="M471 0q-9 28 -18.5 56.5t-19.5 56.5h-224q-20 -57 -39 -113h-161q58 149 116 290t115 271h165q58 -132 116 -273t115 -288h-165zM249 227h144q-17 50 -35.5 100t-36.5 99q-37 -100 -72 -199zM322 858q34 0 60.5 -14.5t41.5 -40.5t15 -59t-15 -58.5t-41.5 -40t-60.5 -14.5
t-60.5 14.5t-41.5 40t-15 58.5t15 59t41.5 40.5t60.5 14.5zM322 688q22 0 37 14.5t15 40.5q0 28 -15 43t-37 15t-37 -15t-15 -43q0 -26 15 -40.5t37 -14.5z" />
    <glyph glyph-name="uring.smcp" unicode="&#xf68f;" horiz-adv-x="654" 
d="M327 -13q-81 0 -139.5 30t-89.5 86t-31 134v324h150v-338q0 -54 28.5 -83t81.5 -29t81.5 29t28.5 83v338h150v-324q0 -78 -31 -134t-89.5 -86t-139.5 -30zM327 858q34 0 60.5 -14.5t41.5 -40.5t15 -59t-15 -58.5t-41.5 -40t-60.5 -14.5t-60.5 14.5t-41.5 40t-15 58.5
t15 59t41.5 40.5t60.5 14.5zM327 688q22 0 37 14.5t15 40.5q0 28 -15 43t-37 15t-37 -15t-15 -43q0 -26 15 -40.5t37 -14.5z" />
    </font>
</defs>
</svg>
